G04 DipTrace 2.4.0.2*
%INBottomSilk.gbr*%
%MOIN*%
%ADD12C,0.003*%
%ADD85C,0.0046*%
%FSLAX44Y44*%
G04*
G70*
G90*
G75*
G01*
%LNBotSilk*%
%LPD*%
X12610Y5690D2*
D12*
X12700D1*
X12604Y5660D2*
X12711D1*
X12582Y5630D2*
X12726D1*
X12430Y5600D2*
X12460D1*
X12526D2*
X12749D1*
X12850D2*
X12910D1*
X12407Y5570D2*
X12781D1*
X12805D2*
X12919D1*
X12389Y5540D2*
X12926D1*
X12389Y5510D2*
X12923D1*
X12391Y5480D2*
X12919D1*
X12392Y5450D2*
X12918D1*
X12376Y5420D2*
X12933D1*
X12355Y5390D2*
X12611D1*
X12698D2*
X12954D1*
X12335Y5360D2*
X12587D1*
X12722D2*
X12974D1*
X12319Y5330D2*
X12569D1*
X12740D2*
X12990D1*
X12318Y5300D2*
X12571D1*
X12738D2*
X12991D1*
X12333Y5270D2*
X12584D1*
X12725D2*
X12976D1*
X12354Y5240D2*
X12595D1*
X12715D2*
X12955D1*
X12376Y5210D2*
X12602D1*
X12708D2*
X12933D1*
X12386Y5180D2*
X12602D1*
X12714D2*
X12923D1*
X12384Y5150D2*
X12595D1*
X12722D2*
X12926D1*
X12382Y5120D2*
X12580D1*
X12734D2*
X12930D1*
X12391Y5090D2*
X12560D1*
X12752D2*
X12932D1*
X12409Y5060D2*
X12513D1*
X12797D2*
X12922D1*
X12430Y5030D2*
X12460D1*
X12850D2*
X12910D1*
X17010Y11157D2*
X17940D1*
X16980Y11127D2*
X17923D1*
X16950Y11097D2*
X17902D1*
X16921Y11067D2*
X17876D1*
X16895Y11037D2*
X17848D1*
X16872Y11007D2*
X17819D1*
X16849Y10977D2*
X17789D1*
X16825Y10947D2*
X17759D1*
X16797Y10917D2*
X17730D1*
X16769Y10887D2*
X17701D1*
X16739Y10857D2*
X17675D1*
X16709Y10827D2*
X17652D1*
X16679Y10797D2*
X17629D1*
X16650Y10767D2*
X17605D1*
X16621Y10737D2*
X17577D1*
X19620D2*
X19800D1*
X16595Y10707D2*
X17549D1*
X19481D2*
X19800D1*
X16572Y10677D2*
X17519D1*
X19359D2*
X19800D1*
X16549Y10647D2*
X17491D1*
X19246D2*
X19800D1*
X16525Y10617D2*
X17464D1*
X19121D2*
X19954D1*
X16497Y10587D2*
X17442D1*
X18420D2*
X18870D1*
X18973D2*
X19596D1*
X19715D2*
X20109D1*
X16469Y10557D2*
X17419D1*
X18340D2*
X19461D1*
X19741D2*
X20260D1*
X16439Y10527D2*
X17395D1*
X18270D2*
X19343D1*
X19809D2*
X20401D1*
X16409Y10497D2*
X17367D1*
X18209D2*
X18794D1*
X18825D2*
X19242D1*
X19901D2*
X20528D1*
X16379Y10467D2*
X17339D1*
X18153D2*
X19152D1*
X20011D2*
X20630D1*
X16350Y10437D2*
X17309D1*
X18102D2*
X19066D1*
X20130D2*
X20708D1*
X16321Y10407D2*
X17280D1*
X18056D2*
X18983D1*
X19993D2*
X20740D1*
X16295Y10377D2*
X17251D1*
X18018D2*
X18902D1*
X19851D2*
X20751D1*
X16272Y10347D2*
X17224D1*
X17988D2*
X18826D1*
X19716D2*
X20760D1*
X16249Y10317D2*
X17202D1*
X17962D2*
X18404D1*
X18435D2*
X18757D1*
X19592D2*
X20669D1*
X16225Y10287D2*
X17179D1*
X17936D2*
X18693D1*
X19476D2*
X20596D1*
X7230Y10257D2*
X7890D1*
X7980D2*
X8730D1*
X8820D2*
X9570D1*
X10290D2*
X10410D1*
X10470D2*
X11220D1*
X11310D2*
X12000D1*
X12150D2*
X12840D1*
X12990D2*
X13110D1*
X13590D2*
X13710D1*
X13800D2*
X14550D1*
X14730D2*
X15390D1*
X16197D2*
X17155D1*
X17909D2*
X18631D1*
X19370D2*
X20537D1*
X7204Y10227D2*
X7903D1*
X7980D2*
X8743D1*
X8820D2*
X9583D1*
X10290D2*
X10410D1*
X10470D2*
X11233D1*
X11310D2*
X12025D1*
X12150D2*
X12864D1*
X12990D2*
X13110D1*
X13546D2*
X13723D1*
X13800D2*
X14563D1*
X14697D2*
X15403D1*
X16169D2*
X17127D1*
X17884D2*
X18571D1*
X19279D2*
X19770D1*
X20190D2*
X20487D1*
X7183Y10197D2*
X7912D1*
X7980D2*
X8752D1*
X8820D2*
X9592D1*
X10290D2*
X10410D1*
X10470D2*
X11242D1*
X11310D2*
X12046D1*
X12150D2*
X12881D1*
X12990D2*
X13110D1*
X13507D2*
X13732D1*
X13801D2*
X14572D1*
X14673D2*
X15412D1*
X16139D2*
X17099D1*
X17863D2*
X18515D1*
X19202D2*
X19664D1*
X19695D2*
X19948D1*
X20280D2*
X20442D1*
X7166Y10167D2*
X7916D1*
X7980D2*
X8756D1*
X8820D2*
X9596D1*
X10290D2*
X10410D1*
X10470D2*
X11246D1*
X11310D2*
X12063D1*
X12150D2*
X12892D1*
X12990D2*
X13110D1*
X13472D2*
X13736D1*
X13805D2*
X14576D1*
X14656D2*
X15416D1*
X16109D2*
X17069D1*
X17844D2*
X18462D1*
X19134D2*
X19526D1*
X19650D2*
X20087D1*
X20370D2*
X20400D1*
X7153Y10137D2*
X7918D1*
X7980D2*
X8758D1*
X8820D2*
X9598D1*
X10290D2*
X10410D1*
X10470D2*
X11248D1*
X11310D2*
X12076D1*
X12150D2*
X12902D1*
X12990D2*
X13110D1*
X13436D2*
X13738D1*
X13816D2*
X14578D1*
X14647D2*
X15418D1*
X16079D2*
X17039D1*
X17828D2*
X18410D1*
X19066D2*
X19464D1*
X19580D2*
X20196D1*
X7146Y10107D2*
X7919D1*
X7980D2*
X8759D1*
X8820D2*
X9599D1*
X10290D2*
X10410D1*
X10470D2*
X11249D1*
X11310D2*
X12082D1*
X12150D2*
X12914D1*
X12990D2*
X13110D1*
X13398D2*
X13739D1*
X13830D2*
X14579D1*
X14643D2*
X15419D1*
X16050D2*
X17009D1*
X17812D2*
X18356D1*
X18999D2*
X19408D1*
X19520D2*
X20283D1*
X7143Y10077D2*
X7290D1*
X7770D2*
X7919D1*
X8610D2*
X8759D1*
X8820D2*
X8940D1*
X9450D2*
X9599D1*
X10290D2*
X10410D1*
X11100D2*
X11249D1*
X11910D2*
X12082D1*
X12750D2*
X12930D1*
X12990D2*
X13110D1*
X13360D2*
X13739D1*
X14430D2*
X14579D1*
X14642D2*
X14790D1*
X15270D2*
X15419D1*
X16021D2*
X16980D1*
X17797D2*
X18303D1*
X18935D2*
X19363D1*
X19469D2*
X20352D1*
X7146Y10047D2*
X7919D1*
X8280D2*
X8759D1*
X8820D2*
X9599D1*
X10290D2*
X10410D1*
X10770D2*
X11249D1*
X11370D2*
X12075D1*
X12210D2*
X12914D1*
X12990D2*
X13110D1*
X13324D2*
X13556D1*
X13620D2*
X13739D1*
X14100D2*
X14579D1*
X14645D2*
X15419D1*
X15995D2*
X16951D1*
X17783D2*
X18252D1*
X18878D2*
X19325D1*
X19424D2*
X20407D1*
X7154Y10017D2*
X7919D1*
X8280D2*
X8759D1*
X8820D2*
X9599D1*
X10290D2*
X10410D1*
X10770D2*
X11249D1*
X11351D2*
X12063D1*
X12191D2*
X12901D1*
X12990D2*
X13110D1*
X13290D2*
X13521D1*
X13620D2*
X13739D1*
X14100D2*
X14579D1*
X14653D2*
X15419D1*
X15972D2*
X16925D1*
X17772D2*
X18205D1*
X18827D2*
X19292D1*
X19386D2*
X20450D1*
X7168Y9987D2*
X7920D1*
X8280D2*
X8760D1*
X8820D2*
X9600D1*
X10290D2*
X10410D1*
X10770D2*
X11250D1*
X11335D2*
X12045D1*
X12175D2*
X12883D1*
X12990D2*
X13111D1*
X13253D2*
X13487D1*
X13620D2*
X13740D1*
X14100D2*
X14580D1*
X14667D2*
X15420D1*
X15949D2*
X16902D1*
X17764D2*
X17894D1*
X17925D2*
X18162D1*
X18782D2*
X19261D1*
X19352D2*
X20485D1*
X7192Y9957D2*
X7920D1*
X8280D2*
X8760D1*
X8820D2*
X9600D1*
X10290D2*
X10410D1*
X10770D2*
X11250D1*
X11323D2*
X12017D1*
X12163D2*
X12857D1*
X12990D2*
X13115D1*
X13206D2*
X13452D1*
X13620D2*
X13740D1*
X14100D2*
X14580D1*
X14688D2*
X15420D1*
X15925D2*
X16879D1*
X17757D2*
X18121D1*
X18736D2*
X19235D1*
X19322D2*
X20518D1*
X7224Y9927D2*
X7920D1*
X8280D2*
X8760D1*
X8820D2*
X9600D1*
X10290D2*
X10410D1*
X10770D2*
X11250D1*
X11316D2*
X11981D1*
X12156D2*
X12821D1*
X12990D2*
X13126D1*
X13146D2*
X13416D1*
X13620D2*
X13740D1*
X14100D2*
X14580D1*
X14718D2*
X15420D1*
X15897D2*
X16855D1*
X17750D2*
X18079D1*
X18689D2*
X19212D1*
X19295D2*
X20548D1*
X7256Y9897D2*
X7920D1*
X8280D2*
X8760D1*
X8820D2*
X9600D1*
X10290D2*
X10410D1*
X10770D2*
X11250D1*
X11312D2*
X11940D1*
X12152D2*
X12780D1*
X12990D2*
X13379D1*
X13620D2*
X13740D1*
X14100D2*
X14580D1*
X14753D2*
X15420D1*
X15869D2*
X16827D1*
X17743D2*
X18037D1*
X18645D2*
X19191D1*
X19273D2*
X20138D1*
X20451D2*
X20573D1*
X7272Y9867D2*
X7500D1*
X7770D2*
X7920D1*
X8610D2*
X8760D1*
X8820D2*
X8940D1*
X9450D2*
X9600D1*
X10290D2*
X10410D1*
X11100D2*
X11250D1*
X11311D2*
X11460D1*
X12151D2*
X12300D1*
X12990D2*
X13343D1*
X13620D2*
X13740D1*
X14430D2*
X14580D1*
X14790D2*
X15000D1*
X15270D2*
X15420D1*
X15839D2*
X16799D1*
X17749D2*
X17996D1*
X18606D2*
X19170D1*
X19255D2*
X20068D1*
X20520D2*
X20591D1*
X7269Y9837D2*
X7470D1*
X7770D2*
X7920D1*
X7980D2*
X8760D1*
X8820D2*
X8940D1*
X9450D2*
X9600D1*
X9660D2*
X10410D1*
X10470D2*
X11250D1*
X11311D2*
X12090D1*
X12151D2*
X12900D1*
X12990D2*
X13307D1*
X13620D2*
X13740D1*
X13830D2*
X14580D1*
X14760D2*
X14970D1*
X15270D2*
X15420D1*
X15809D2*
X16769D1*
X17760D2*
X17959D1*
X18568D2*
X19151D1*
X19238D2*
X20013D1*
X20570D2*
X20602D1*
X7250Y9807D2*
X7440D1*
X7770D2*
X7920D1*
X7980D2*
X8759D1*
X8820D2*
X8940D1*
X9450D2*
X9600D1*
X9660D2*
X10409D1*
X10470D2*
X11249D1*
X11316D2*
X12090D1*
X12155D2*
X12900D1*
X12991D2*
X13272D1*
X13620D2*
X13740D1*
X13816D2*
X14579D1*
X14730D2*
X14940D1*
X15270D2*
X15420D1*
X15779D2*
X16739D1*
X17719D2*
X17923D1*
X18529D2*
X19134D1*
X19222D2*
X19969D1*
X20610D2*
D3*
X7225Y9777D2*
X7410D1*
X7770D2*
X7920D1*
X7980D2*
X8758D1*
X8820D2*
X8940D1*
X9450D2*
X9600D1*
X9660D2*
X10408D1*
X10470D2*
X11248D1*
X11326D2*
X12090D1*
X12162D2*
X12900D1*
X12996D2*
X13236D1*
X13620D2*
X13740D1*
X13807D2*
X14578D1*
X14701D2*
X14910D1*
X15270D2*
X15420D1*
X15750D2*
X16709D1*
X17680D2*
X17887D1*
X18490D2*
X19118D1*
X19207D2*
X19930D1*
X7198Y9747D2*
X7380D1*
X7770D2*
X7920D1*
X7980D2*
X8754D1*
X8820D2*
X8940D1*
X9450D2*
X9600D1*
X9660D2*
X10404D1*
X10470D2*
X11244D1*
X11353D2*
X12090D1*
X12186D2*
X12900D1*
X13008D2*
X13197D1*
X13620D2*
X13740D1*
X13803D2*
X14574D1*
X14675D2*
X14880D1*
X15270D2*
X15420D1*
X15721D2*
X16680D1*
X17646D2*
X17852D1*
X18455D2*
X19102D1*
X19192D2*
X19895D1*
X7169Y9717D2*
X7350D1*
X7770D2*
X7920D1*
X7980D2*
X8743D1*
X8820D2*
X8940D1*
X9450D2*
X9600D1*
X9660D2*
X10393D1*
X10470D2*
X11233D1*
X11389D2*
X12090D1*
X12223D2*
X12900D1*
X13027D2*
X13155D1*
X13620D2*
X13740D1*
X13801D2*
X14563D1*
X14656D2*
X14850D1*
X15270D2*
X15420D1*
X15695D2*
X16651D1*
X17617D2*
X17817D1*
X18422D2*
X19087D1*
X19177D2*
X19867D1*
X7140Y9687D2*
X7320D1*
X7770D2*
X7920D1*
X7980D2*
X8730D1*
X8820D2*
X8940D1*
X9450D2*
X9600D1*
X9660D2*
X10380D1*
X10470D2*
X11220D1*
X11430D2*
X12090D1*
X12270D2*
X12900D1*
X13050D2*
X13110D1*
X13620D2*
X13740D1*
X13800D2*
X14550D1*
X14640D2*
X14820D1*
X15270D2*
X15420D1*
X15672D2*
X16625D1*
X17593D2*
X17783D1*
X18389D2*
X19073D1*
X19163D2*
X19844D1*
X15649Y9657D2*
X16602D1*
X17570D2*
X17752D1*
X18355D2*
X19062D1*
X19151D2*
X19825D1*
X15625Y9627D2*
X16579D1*
X17545D2*
X17724D1*
X18317D2*
X19054D1*
X19140D2*
X19807D1*
X15599Y9597D2*
X16555D1*
X17519D2*
X17697D1*
X18280D2*
X19047D1*
X19130D2*
X19789D1*
X15575Y9567D2*
X16527D1*
X17494D2*
X17668D1*
X18244D2*
X19038D1*
X19121D2*
X19770D1*
X15555Y9537D2*
X16499D1*
X17473D2*
X17640D1*
X18212D2*
X19030D1*
X19115D2*
X19754D1*
X15550Y9507D2*
X16470D1*
X17454D2*
X17614D1*
X18180D2*
X19024D1*
X19111D2*
X19742D1*
X15557Y9477D2*
X16500D1*
X17438D2*
X17592D1*
X18150D2*
X19021D1*
X19105D2*
X19730D1*
X15578Y9447D2*
X16530D1*
X17422D2*
X17569D1*
X18119D2*
X19015D1*
X19098D2*
X19720D1*
X15603Y9417D2*
X16560D1*
X17407D2*
X17546D1*
X18086D2*
X19008D1*
X19090D2*
X19710D1*
X14700Y9387D2*
X14760D1*
X15300D2*
X15330D1*
X15631D2*
X16590D1*
X17392D2*
X17523D1*
X18052D2*
X19000D1*
X19084D2*
X19700D1*
X7140Y9357D2*
X7920D1*
X8070D2*
X8730D1*
X8820D2*
X9570D1*
X9750D2*
X10380D1*
X10470D2*
X11160D1*
X11400D2*
X12060D1*
X12150D2*
X12900D1*
X12990D2*
X13740D1*
X13830D2*
X14550D1*
X14672D2*
X14790D1*
X15266D2*
X15362D1*
X15660D2*
X16620D1*
X17377D2*
X17502D1*
X18021D2*
X18994D1*
X19082D2*
X19691D1*
X7140Y9327D2*
X7920D1*
X8041D2*
X8740D1*
X8820D2*
X9580D1*
X9721D2*
X10393D1*
X10470D2*
X11181D1*
X11371D2*
X12070D1*
X12150D2*
X12910D1*
X12990D2*
X13740D1*
X13819D2*
X14560D1*
X14651D2*
X14820D1*
X15235D2*
X15387D1*
X15690D2*
X16650D1*
X17362D2*
X17484D1*
X17989D2*
X18992D1*
X19080D2*
X19685D1*
X7140Y9297D2*
X7920D1*
X8016D2*
X8749D1*
X8820D2*
X9589D1*
X9696D2*
X10402D1*
X10470D2*
X11203D1*
X11346D2*
X12079D1*
X12150D2*
X12919D1*
X12990D2*
X13740D1*
X13810D2*
X14569D1*
X14645D2*
X14850D1*
X15203D2*
X15403D1*
X15720D2*
X16679D1*
X17347D2*
X17468D1*
X17955D2*
X18990D1*
X19080D2*
X19682D1*
X7140Y9267D2*
X7920D1*
X7998D2*
X8754D1*
X8820D2*
X9594D1*
X9678D2*
X10406D1*
X10470D2*
X11221D1*
X11328D2*
X12084D1*
X12150D2*
X12924D1*
X12990D2*
X13740D1*
X13805D2*
X14574D1*
X14642D2*
X14880D1*
X15168D2*
X15412D1*
X15749D2*
X16708D1*
X17333D2*
X17453D1*
X17918D2*
X18990D1*
X19080D2*
X19680D1*
X7140Y9237D2*
X7920D1*
X7988D2*
X8757D1*
X8820D2*
X9597D1*
X9668D2*
X10408D1*
X10470D2*
X11235D1*
X11318D2*
X12087D1*
X12150D2*
X12927D1*
X12990D2*
X13740D1*
X13802D2*
X14577D1*
X14640D2*
X14910D1*
X15134D2*
X15416D1*
X15778D2*
X16735D1*
X17321D2*
X17441D1*
X17884D2*
X18990D1*
X19080D2*
X19680D1*
X7140Y9207D2*
X7920D1*
X7983D2*
X8759D1*
X8820D2*
X9599D1*
X9663D2*
X10409D1*
X10470D2*
X11243D1*
X11313D2*
X12089D1*
X12150D2*
X12929D1*
X12990D2*
X13740D1*
X13800D2*
X14579D1*
X14640D2*
X14941D1*
X15105D2*
X15418D1*
X15805D2*
X16757D1*
X17310D2*
X17430D1*
X17851D2*
X18990D1*
X19080D2*
X19680D1*
X7470Y9177D2*
X7590D1*
X7981D2*
X8130D1*
X8610D2*
X8759D1*
X8820D2*
X8940D1*
X9450D2*
X9599D1*
X9661D2*
X9810D1*
X10290D2*
X10409D1*
X11100D2*
X11246D1*
X11311D2*
X11460D1*
X11940D2*
X12089D1*
X12150D2*
X12270D1*
X12780D2*
X12929D1*
X13290D2*
X13440D1*
X13800D2*
X13920D1*
X14430D2*
X14579D1*
X14640D2*
X14975D1*
X15076D2*
X15419D1*
X15827D2*
X16780D1*
X17300D2*
X17420D1*
X17819D2*
X18991D1*
X19080D2*
X19680D1*
X7470Y9147D2*
X7590D1*
X7981D2*
X8759D1*
X8820D2*
X8940D1*
X9450D2*
X9599D1*
X9661D2*
X10409D1*
X10620D2*
X11243D1*
X11311D2*
X12089D1*
X12150D2*
X12270D1*
X12780D2*
X12929D1*
X13290D2*
X13440D1*
X13800D2*
X13920D1*
X14430D2*
X14579D1*
X14640D2*
X15016D1*
X15040D2*
X15419D1*
X15850D2*
X16804D1*
X17291D2*
X17409D1*
X17785D2*
X18995D1*
X19080D2*
X19680D1*
X7470Y9117D2*
X7590D1*
X7986D2*
X8759D1*
X8820D2*
X8940D1*
X9450D2*
X9599D1*
X9665D2*
X10409D1*
X10563D2*
X11236D1*
X11316D2*
X12089D1*
X12150D2*
X12270D1*
X12780D2*
X12929D1*
X13290D2*
X13440D1*
X13800D2*
X13920D1*
X14430D2*
X14579D1*
X14640D2*
X15419D1*
X15874D2*
X16832D1*
X17285D2*
X17400D1*
X17746D2*
X19002D1*
X19081D2*
X19680D1*
X7470Y9087D2*
X7590D1*
X7996D2*
X8760D1*
X8820D2*
X8940D1*
X9450D2*
X9600D1*
X9674D2*
X10410D1*
X10521D2*
X11222D1*
X11326D2*
X12090D1*
X12150D2*
X12270D1*
X12780D2*
X12930D1*
X13290D2*
X13440D1*
X13800D2*
X13920D1*
X14430D2*
X14580D1*
X14640D2*
X14760D1*
X14821D2*
X15210D1*
X15270D2*
X15419D1*
X15902D2*
X16860D1*
X17282D2*
X17390D1*
X17706D2*
X19009D1*
X19085D2*
X19681D1*
X7470Y9057D2*
X7590D1*
X8023D2*
X8760D1*
X8820D2*
X8940D1*
X9450D2*
X9600D1*
X9689D2*
X10410D1*
X10490D2*
X11200D1*
X11353D2*
X12090D1*
X12150D2*
X12270D1*
X12780D2*
X12930D1*
X13290D2*
X13440D1*
X13800D2*
X13920D1*
X14430D2*
X14580D1*
X14640D2*
X14760D1*
X14853D2*
X15180D1*
X15270D2*
X15420D1*
X15930D2*
X16890D1*
X17280D2*
X17381D1*
X17666D2*
X19015D1*
X19092D2*
X19685D1*
X7470Y9027D2*
X7590D1*
X8061D2*
X8760D1*
X8820D2*
X8940D1*
X9450D2*
X9600D1*
X9726D2*
X10410D1*
X10479D2*
X11165D1*
X11391D2*
X12090D1*
X12150D2*
X12270D1*
X12780D2*
X12930D1*
X13290D2*
X13440D1*
X13800D2*
X13920D1*
X14430D2*
X14580D1*
X14640D2*
X14760D1*
X14887D2*
X15150D1*
X15270D2*
X15420D1*
X15960D2*
X16920D1*
X17280D2*
X17375D1*
X17629D2*
X19019D1*
X19100D2*
X19692D1*
X7470Y8997D2*
X7590D1*
X8108D2*
X8760D1*
X8820D2*
X8940D1*
X9450D2*
X9600D1*
X9779D2*
X10410D1*
X10474D2*
X11120D1*
X11438D2*
X12090D1*
X12150D2*
X12270D1*
X12780D2*
X12930D1*
X13290D2*
X13440D1*
X13800D2*
X13920D1*
X14430D2*
X14580D1*
X14640D2*
X14760D1*
X14917D2*
X15120D1*
X15270D2*
X15420D1*
X15990D2*
X16950D1*
X17280D2*
X17372D1*
X17591D2*
X19024D1*
X19106D2*
X19701D1*
X7470Y8967D2*
X7590D1*
X8160D2*
X8760D1*
X8820D2*
X8940D1*
X9450D2*
X9600D1*
X9840D2*
X10410D1*
X10471D2*
X11070D1*
X11490D2*
X12090D1*
X12150D2*
X12270D1*
X12780D2*
X12930D1*
X13290D2*
X13440D1*
X13800D2*
X13920D1*
X14430D2*
X14580D1*
X14640D2*
X14760D1*
X14945D2*
X15090D1*
X15270D2*
X15420D1*
X16020D2*
X16979D1*
X17280D2*
X17373D1*
X17548D2*
X19033D1*
X19113D2*
X19710D1*
X7470Y8937D2*
X7590D1*
X8130D2*
X8340D1*
X8610D2*
X8760D1*
X8820D2*
X9600D1*
X10290D2*
X10410D1*
X10471D2*
X11250D1*
X11460D2*
X11640D1*
X11940D2*
X12090D1*
X12150D2*
X12930D1*
X13290D2*
X13440D1*
X13800D2*
X14580D1*
X14640D2*
X14760D1*
X14972D2*
X15060D1*
X15270D2*
X15420D1*
X16049D2*
X17008D1*
X17280D2*
X17378D1*
X17493D2*
X19044D1*
X19122D2*
X19720D1*
X7470Y8907D2*
X7590D1*
X8100D2*
X8310D1*
X8610D2*
X8760D1*
X8820D2*
X9599D1*
X10290D2*
X10410D1*
X10475D2*
X11250D1*
X11430D2*
X11611D1*
X11940D2*
X12090D1*
X12150D2*
X12929D1*
X13290D2*
X13440D1*
X13800D2*
X14579D1*
X14640D2*
X14760D1*
X15000D2*
X15030D1*
X15270D2*
X15420D1*
X16078D2*
X17035D1*
X17280D2*
X17401D1*
X17421D2*
X19058D1*
X19134D2*
X19730D1*
X7470Y8877D2*
X7590D1*
X8070D2*
X8280D1*
X8610D2*
X8760D1*
X8820D2*
X9598D1*
X10290D2*
X10410D1*
X10483D2*
X11250D1*
X11400D2*
X11585D1*
X11940D2*
X12089D1*
X12150D2*
X12928D1*
X13290D2*
X13440D1*
X13801D2*
X14578D1*
X14640D2*
X14760D1*
X15270D2*
X15419D1*
X16105D2*
X17057D1*
X17281D2*
X19072D1*
X19148D2*
X19739D1*
X7470Y8847D2*
X7590D1*
X8040D2*
X8250D1*
X8610D2*
X8760D1*
X8820D2*
X9593D1*
X10290D2*
X10410D1*
X10498D2*
X11250D1*
X11370D2*
X11562D1*
X11940D2*
X12088D1*
X12152D2*
X12923D1*
X13290D2*
X13440D1*
X13806D2*
X14573D1*
X14640D2*
X14760D1*
X15270D2*
X15418D1*
X16127D2*
X17080D1*
X17284D2*
X19087D1*
X19164D2*
X19751D1*
X7470Y8817D2*
X7590D1*
X8010D2*
X8220D1*
X8610D2*
X8760D1*
X8820D2*
X9581D1*
X10290D2*
X10410D1*
X10519D2*
X11250D1*
X11340D2*
X11539D1*
X11940D2*
X12084D1*
X12157D2*
X12911D1*
X13290D2*
X13440D1*
X13818D2*
X14561D1*
X14640D2*
X14760D1*
X15270D2*
X15414D1*
X16150D2*
X17104D1*
X17302D2*
X19103D1*
X19182D2*
X19765D1*
X7470Y8787D2*
X7590D1*
X7980D2*
X8190D1*
X8610D2*
X8760D1*
X8820D2*
X9562D1*
X10290D2*
X10410D1*
X10566D2*
X11250D1*
X11310D2*
X11515D1*
X11940D2*
X12073D1*
X12181D2*
X12892D1*
X13290D2*
X13440D1*
X13837D2*
X14542D1*
X14640D2*
X14760D1*
X15270D2*
X15403D1*
X16174D2*
X17132D1*
X17330D2*
X19120D1*
X19205D2*
X19783D1*
X7470Y8757D2*
X7590D1*
X8100D2*
X8160D1*
X8610D2*
X8760D1*
X8970D2*
X9540D1*
X10290D2*
X10410D1*
X10620D2*
X11250D1*
X11340D2*
X11490D1*
X11940D2*
X12060D1*
X12210D2*
X12240D1*
X12300D2*
X12870D1*
X13290D2*
X13440D1*
X13860D2*
X14520D1*
X15270D2*
X15390D1*
X16202D2*
X17160D1*
X17363D2*
X19140D1*
X19232D2*
X19805D1*
X16230Y8727D2*
X17190D1*
X17397D2*
X18998D1*
X19259D2*
X19828D1*
X16260Y8697D2*
X17220D1*
X17435D2*
X18841D1*
X19286D2*
X19853D1*
X16290Y8667D2*
X17250D1*
X17483D2*
X18667D1*
X19313D2*
X19883D1*
X16320Y8637D2*
X17279D1*
X17543D2*
X18475D1*
X19343D2*
X19921D1*
X16350Y8607D2*
X17308D1*
X17610D2*
X18270D1*
X19380D2*
X19966D1*
X16380Y8577D2*
X17335D1*
X19424D2*
X20023D1*
X16410Y8547D2*
X17357D1*
X19473D2*
X20102D1*
X16440Y8517D2*
X17380D1*
X19527D2*
X20211D1*
X16470Y8487D2*
X17404D1*
X19592D2*
X20340D1*
X16500Y8457D2*
X17432D1*
X19675D2*
X20274D1*
X16529Y8427D2*
X17459D1*
X19777D2*
X20203D1*
X16558Y8397D2*
X17485D1*
X19890D2*
X20130D1*
X16585Y8367D2*
X17507D1*
X16607Y8337D2*
X17530D1*
X16630Y8307D2*
X17554D1*
X16654Y8277D2*
X17582D1*
X16682Y8247D2*
X17610D1*
X16710Y8217D2*
X17640D1*
X16740Y8187D2*
X17670D1*
X16770Y8157D2*
X17700D1*
X16800Y8127D2*
X17729D1*
X16829Y8097D2*
X17758D1*
X16858Y8067D2*
X17785D1*
X16885Y8037D2*
X17807D1*
X16907Y8007D2*
X17830D1*
X16930Y7977D2*
X17854D1*
X16954Y7947D2*
X17882D1*
X16981Y7917D2*
X17910D1*
X17010Y7887D2*
X17940D1*
X12610Y5690D2*
X12604Y5660D1*
X12582Y5630D1*
X12526Y5600D1*
X12460Y5570D1*
X12700Y5690D2*
X12711Y5660D1*
X12726Y5630D1*
X12749Y5600D1*
X12781Y5570D1*
X12820Y5540D1*
X12430Y5600D2*
X12407Y5570D1*
X12389Y5540D1*
Y5510D1*
X12391Y5480D1*
X12392Y5450D1*
X12376Y5420D1*
X12355Y5390D1*
X12335Y5360D1*
X12319Y5330D1*
X12318Y5300D1*
X12333Y5270D1*
X12354Y5240D1*
X12376Y5210D1*
X12386Y5180D1*
X12384Y5150D1*
X12382Y5120D1*
X12391Y5090D1*
X12409Y5060D1*
X12430Y5030D1*
X12460Y5600D2*
X12490Y5570D1*
X12850Y5600D2*
X12805Y5570D1*
X12760Y5540D1*
X12910Y5600D2*
X12919Y5570D1*
X12926Y5540D1*
X12923Y5510D1*
X12919Y5480D1*
X12918Y5450D1*
X12933Y5420D1*
X12954Y5390D1*
X12974Y5360D1*
X12990Y5330D1*
X12991Y5300D1*
X12976Y5270D1*
X12955Y5240D1*
X12933Y5210D1*
X12923Y5180D1*
X12926Y5150D1*
X12930Y5120D1*
X12932Y5090D1*
X12922Y5060D1*
X12910Y5030D1*
X12640Y5420D2*
X12611Y5390D1*
X12587Y5360D1*
X12569Y5330D1*
X12571Y5300D1*
X12584Y5270D1*
X12595Y5240D1*
X12602Y5210D1*
Y5180D1*
X12595Y5150D1*
X12580Y5120D1*
X12560Y5090D1*
X12513Y5060D1*
X12460Y5030D1*
X12670Y5420D2*
X12698Y5390D1*
X12722Y5360D1*
X12740Y5330D1*
X12738Y5300D1*
X12725Y5270D1*
X12715Y5240D1*
X12708Y5210D1*
X12714Y5180D1*
X12722Y5150D1*
X12734Y5120D1*
X12752Y5090D1*
X12797Y5060D1*
X12850Y5030D1*
X17010Y11157D2*
X16980Y11127D1*
X16950Y11097D1*
X16921Y11067D1*
X16895Y11037D1*
X16872Y11007D1*
X16849Y10977D1*
X16825Y10947D1*
X16797Y10917D1*
X16769Y10887D1*
X16739Y10857D1*
X16709Y10827D1*
X16679Y10797D1*
X16650Y10767D1*
X16621Y10737D1*
X16595Y10707D1*
X16572Y10677D1*
X16549Y10647D1*
X16525Y10617D1*
X16497Y10587D1*
X16469Y10557D1*
X16439Y10527D1*
X16409Y10497D1*
X16379Y10467D1*
X16350Y10437D1*
X16321Y10407D1*
X16295Y10377D1*
X16272Y10347D1*
X16249Y10317D1*
X16225Y10287D1*
X16197Y10257D1*
X16169Y10227D1*
X16139Y10197D1*
X16109Y10167D1*
X16079Y10137D1*
X16050Y10107D1*
X16021Y10077D1*
X15995Y10047D1*
X15972Y10017D1*
X15949Y9987D1*
X15925Y9957D1*
X15897Y9927D1*
X15869Y9897D1*
X15839Y9867D1*
X15809Y9837D1*
X15779Y9807D1*
X15750Y9777D1*
X15721Y9747D1*
X15695Y9717D1*
X15672Y9687D1*
X15649Y9657D1*
X15625Y9627D1*
X15599Y9597D1*
X15575Y9567D1*
X15555Y9537D1*
X15550Y9507D1*
X15557Y9477D1*
X15578Y9447D1*
X15603Y9417D1*
X15631Y9387D1*
X15660Y9357D1*
X15690Y9327D1*
X15720Y9297D1*
X15749Y9267D1*
X15778Y9237D1*
X15805Y9207D1*
X15827Y9177D1*
X15850Y9147D1*
X15874Y9117D1*
X15902Y9087D1*
X15930Y9057D1*
X15960Y9027D1*
X15990Y8997D1*
X16020Y8967D1*
X16049Y8937D1*
X16078Y8907D1*
X16105Y8877D1*
X16127Y8847D1*
X16150Y8817D1*
X16174Y8787D1*
X16202Y8757D1*
X16230Y8727D1*
X16260Y8697D1*
X16290Y8667D1*
X16320Y8637D1*
X16350Y8607D1*
X16380Y8577D1*
X16410Y8547D1*
X16440Y8517D1*
X16470Y8487D1*
X16500Y8457D1*
X16529Y8427D1*
X16558Y8397D1*
X16585Y8367D1*
X16607Y8337D1*
X16630Y8307D1*
X16654Y8277D1*
X16682Y8247D1*
X16710Y8217D1*
X16740Y8187D1*
X16770Y8157D1*
X16800Y8127D1*
X16829Y8097D1*
X16858Y8067D1*
X16885Y8037D1*
X16907Y8007D1*
X16930Y7977D1*
X16954Y7947D1*
X16981Y7917D1*
X17010Y7887D1*
X17940Y11157D2*
X17923Y11127D1*
X17902Y11097D1*
X17876Y11067D1*
X17848Y11037D1*
X17819Y11007D1*
X17789Y10977D1*
X17759Y10947D1*
X17730Y10917D1*
X17701Y10887D1*
X17675Y10857D1*
X17652Y10827D1*
X17629Y10797D1*
X17605Y10767D1*
X17577Y10737D1*
X17549Y10707D1*
X17519Y10677D1*
X17491Y10647D1*
X17464Y10617D1*
X17442Y10587D1*
X17419Y10557D1*
X17395Y10527D1*
X17367Y10497D1*
X17339Y10467D1*
X17309Y10437D1*
X17280Y10407D1*
X17251Y10377D1*
X17224Y10347D1*
X17202Y10317D1*
X17179Y10287D1*
X17155Y10257D1*
X17127Y10227D1*
X17099Y10197D1*
X17069Y10167D1*
X17039Y10137D1*
X17009Y10107D1*
X16980Y10077D1*
X16951Y10047D1*
X16925Y10017D1*
X16902Y9987D1*
X16879Y9957D1*
X16855Y9927D1*
X16827Y9897D1*
X16799Y9867D1*
X16769Y9837D1*
X16739Y9807D1*
X16709Y9777D1*
X16680Y9747D1*
X16651Y9717D1*
X16625Y9687D1*
X16602Y9657D1*
X16579Y9627D1*
X16555Y9597D1*
X16527Y9567D1*
X16499Y9537D1*
X16470Y9507D1*
X16500Y9477D1*
X16530Y9447D1*
X16560Y9417D1*
X16590Y9387D1*
X16620Y9357D1*
X16650Y9327D1*
X16679Y9297D1*
X16708Y9267D1*
X16735Y9237D1*
X16757Y9207D1*
X16780Y9177D1*
X16804Y9147D1*
X16832Y9117D1*
X16860Y9087D1*
X16890Y9057D1*
X16920Y9027D1*
X16950Y8997D1*
X16979Y8967D1*
X17008Y8937D1*
X17035Y8907D1*
X17057Y8877D1*
X17080Y8847D1*
X17104Y8817D1*
X17132Y8787D1*
X17160Y8757D1*
X17190Y8727D1*
X17220Y8697D1*
X17250Y8667D1*
X17279Y8637D1*
X17308Y8607D1*
X17335Y8577D1*
X17357Y8547D1*
X17380Y8517D1*
X17404Y8487D1*
X17432Y8457D1*
X17459Y8427D1*
X17485Y8397D1*
X17507Y8367D1*
X17530Y8337D1*
X17554Y8307D1*
X17582Y8277D1*
X17610Y8247D1*
X17640Y8217D1*
X17670Y8187D1*
X17700Y8157D1*
X17729Y8127D1*
X17758Y8097D1*
X17785Y8067D1*
X17807Y8037D1*
X17830Y8007D1*
X17854Y7977D1*
X17882Y7947D1*
X17910Y7917D1*
X17940Y7887D1*
X19620Y10737D2*
X19481Y10707D1*
X19359Y10677D1*
X19246Y10647D1*
X19121Y10617D1*
X18973Y10587D1*
X18810Y10557D1*
X19800Y10737D2*
Y10707D1*
Y10677D1*
Y10647D1*
X19954Y10617D1*
X20109Y10587D1*
X20260Y10557D1*
X20401Y10527D1*
X20528Y10497D1*
X20630Y10467D1*
X20708Y10437D1*
X20740Y10407D1*
X20751Y10377D1*
X20760Y10347D1*
X20669Y10317D1*
X20596Y10287D1*
X20537Y10257D1*
X20487Y10227D1*
X20442Y10197D1*
X20400Y10167D1*
X18420Y10587D2*
X18340Y10557D1*
X18270Y10527D1*
X18209Y10497D1*
X18153Y10467D1*
X18102Y10437D1*
X18056Y10407D1*
X18018Y10377D1*
X17988Y10347D1*
X17962Y10317D1*
X17936Y10287D1*
X17909Y10257D1*
X17884Y10227D1*
X17863Y10197D1*
X17844Y10167D1*
X17828Y10137D1*
X17812Y10107D1*
X17797Y10077D1*
X17783Y10047D1*
X17772Y10017D1*
X17764Y9987D1*
X17757Y9957D1*
X17750Y9927D1*
X17743Y9897D1*
X17749Y9867D1*
X17760Y9837D1*
X17719Y9807D1*
X17680Y9777D1*
X17646Y9747D1*
X17617Y9717D1*
X17593Y9687D1*
X17570Y9657D1*
X17545Y9627D1*
X17519Y9597D1*
X17494Y9567D1*
X17473Y9537D1*
X17454Y9507D1*
X17438Y9477D1*
X17422Y9447D1*
X17407Y9417D1*
X17392Y9387D1*
X17377Y9357D1*
X17362Y9327D1*
X17347Y9297D1*
X17333Y9267D1*
X17321Y9237D1*
X17310Y9207D1*
X17300Y9177D1*
X17291Y9147D1*
X17285Y9117D1*
X17282Y9087D1*
X17280Y9057D1*
Y9027D1*
Y8997D1*
Y8967D1*
Y8937D1*
Y8907D1*
X17281Y8877D1*
X17284Y8847D1*
X17302Y8817D1*
X17330Y8787D1*
X17363Y8757D1*
X17397Y8727D1*
X17435Y8697D1*
X17483Y8667D1*
X17543Y8637D1*
X17610Y8607D1*
X18870Y10587D2*
X18900Y10557D1*
X19740Y10617D2*
X19596Y10587D1*
X19461Y10557D1*
X19343Y10527D1*
X19242Y10497D1*
X19152Y10467D1*
X19066Y10437D1*
X18983Y10407D1*
X18902Y10377D1*
X18826Y10347D1*
X18757Y10317D1*
X18693Y10287D1*
X18631Y10257D1*
X18571Y10227D1*
X18515Y10197D1*
X18462Y10167D1*
X18410Y10137D1*
X18356Y10107D1*
X18303Y10077D1*
X18252Y10047D1*
X18205Y10017D1*
X18162Y9987D1*
X18121Y9957D1*
X18079Y9927D1*
X18037Y9897D1*
X17996Y9867D1*
X17959Y9837D1*
X17923Y9807D1*
X17887Y9777D1*
X17852Y9747D1*
X17817Y9717D1*
X17783Y9687D1*
X17752Y9657D1*
X17724Y9627D1*
X17697Y9597D1*
X17668Y9567D1*
X17640Y9537D1*
X17614Y9507D1*
X17592Y9477D1*
X17569Y9447D1*
X17546Y9417D1*
X17523Y9387D1*
X17502Y9357D1*
X17484Y9327D1*
X17468Y9297D1*
X17453Y9267D1*
X17441Y9237D1*
X17430Y9207D1*
X17420Y9177D1*
X17409Y9147D1*
X17400Y9117D1*
X17390Y9087D1*
X17381Y9057D1*
X17375Y9027D1*
X17372Y8997D1*
X17373Y8967D1*
X17378Y8937D1*
X17401Y8907D1*
X17430Y8877D1*
X19710Y10617D2*
X19715Y10587D1*
X19741Y10557D1*
X19809Y10527D1*
X19901Y10497D1*
X20011Y10467D1*
X20130Y10437D1*
X19993Y10407D1*
X19851Y10377D1*
X19716Y10347D1*
X19592Y10317D1*
X19476Y10287D1*
X19370Y10257D1*
X19279Y10227D1*
X19202Y10197D1*
X19134Y10167D1*
X19066Y10137D1*
X18999Y10107D1*
X18935Y10077D1*
X18878Y10047D1*
X18827Y10017D1*
X18782Y9987D1*
X18736Y9957D1*
X18689Y9927D1*
X18645Y9897D1*
X18606Y9867D1*
X18568Y9837D1*
X18529Y9807D1*
X18490Y9777D1*
X18455Y9747D1*
X18422Y9717D1*
X18389Y9687D1*
X18355Y9657D1*
X18317Y9627D1*
X18280Y9597D1*
X18244Y9567D1*
X18212Y9537D1*
X18180Y9507D1*
X18150Y9477D1*
X18119Y9447D1*
X18086Y9417D1*
X18052Y9387D1*
X18021Y9357D1*
X17989Y9327D1*
X17955Y9297D1*
X17918Y9267D1*
X17884Y9237D1*
X17851Y9207D1*
X17819Y9177D1*
X17785Y9147D1*
X17746Y9117D1*
X17706Y9087D1*
X17666Y9057D1*
X17629Y9027D1*
X17591Y8997D1*
X17548Y8967D1*
X17493Y8937D1*
X17421Y8907D1*
X17340Y8877D1*
X18810Y10527D2*
X18794Y10497D1*
X18780Y10467D1*
X18810Y10527D2*
X18825Y10497D1*
X18840Y10467D1*
X18420Y10347D2*
X18404Y10317D1*
X18390Y10287D1*
X18420Y10347D2*
X18435Y10317D1*
X18450Y10287D1*
X7230Y10257D2*
X7204Y10227D1*
X7183Y10197D1*
X7166Y10167D1*
X7153Y10137D1*
X7146Y10107D1*
X7143Y10077D1*
X7146Y10047D1*
X7154Y10017D1*
X7168Y9987D1*
X7192Y9957D1*
X7224Y9927D1*
X7256Y9897D1*
X7272Y9867D1*
X7269Y9837D1*
X7250Y9807D1*
X7225Y9777D1*
X7198Y9747D1*
X7169Y9717D1*
X7140Y9687D1*
X7890Y10257D2*
X7903Y10227D1*
X7912Y10197D1*
X7916Y10167D1*
X7918Y10137D1*
X7919Y10107D1*
Y10077D1*
Y10047D1*
Y10017D1*
X7920Y9987D1*
Y9957D1*
Y9927D1*
Y9897D1*
Y9867D1*
Y9837D1*
Y9807D1*
Y9777D1*
Y9747D1*
Y9717D1*
Y9687D1*
X7980Y10257D2*
Y10227D1*
Y10197D1*
Y10167D1*
Y10137D1*
Y10107D1*
X8730Y10257D2*
X8743Y10227D1*
X8752Y10197D1*
X8756Y10167D1*
X8758Y10137D1*
X8759Y10107D1*
Y10077D1*
Y10047D1*
Y10017D1*
X8760Y9987D1*
Y9957D1*
Y9927D1*
Y9897D1*
Y9867D1*
Y9837D1*
X8759Y9807D1*
X8758Y9777D1*
X8754Y9747D1*
X8743Y9717D1*
X8730Y9687D1*
X8820Y10257D2*
Y10227D1*
Y10197D1*
Y10167D1*
Y10137D1*
Y10107D1*
Y10077D1*
Y10047D1*
Y10017D1*
Y9987D1*
Y9957D1*
Y9927D1*
Y9897D1*
Y9867D1*
Y9837D1*
Y9807D1*
Y9777D1*
Y9747D1*
Y9717D1*
Y9687D1*
X9570Y10257D2*
X9583Y10227D1*
X9592Y10197D1*
X9596Y10167D1*
X9598Y10137D1*
X9599Y10107D1*
Y10077D1*
Y10047D1*
Y10017D1*
X9600Y9987D1*
Y9957D1*
Y9927D1*
Y9897D1*
Y9867D1*
Y9837D1*
Y9807D1*
Y9777D1*
Y9747D1*
Y9717D1*
Y9687D1*
X10290Y10257D2*
Y10227D1*
Y10197D1*
Y10167D1*
Y10137D1*
Y10107D1*
Y10077D1*
Y10047D1*
Y10017D1*
Y9987D1*
Y9957D1*
Y9927D1*
Y9897D1*
Y9867D1*
Y9837D1*
X10410Y10257D2*
Y10227D1*
Y10197D1*
Y10167D1*
Y10137D1*
Y10107D1*
Y10077D1*
Y10047D1*
Y10017D1*
Y9987D1*
Y9957D1*
Y9927D1*
Y9897D1*
Y9867D1*
Y9837D1*
X10409Y9807D1*
X10408Y9777D1*
X10404Y9747D1*
X10393Y9717D1*
X10380Y9687D1*
X10470Y10257D2*
Y10227D1*
Y10197D1*
Y10167D1*
Y10137D1*
Y10107D1*
X11220Y10257D2*
X11233Y10227D1*
X11242Y10197D1*
X11246Y10167D1*
X11248Y10137D1*
X11249Y10107D1*
Y10077D1*
Y10047D1*
Y10017D1*
X11250Y9987D1*
Y9957D1*
Y9927D1*
Y9897D1*
Y9867D1*
Y9837D1*
X11249Y9807D1*
X11248Y9777D1*
X11244Y9747D1*
X11233Y9717D1*
X11220Y9687D1*
X11310Y10257D2*
Y10227D1*
Y10197D1*
Y10167D1*
Y10137D1*
Y10107D1*
X12000Y10257D2*
X12025Y10227D1*
X12046Y10197D1*
X12063Y10167D1*
X12076Y10137D1*
X12082Y10107D1*
Y10077D1*
X12075Y10047D1*
X12063Y10017D1*
X12045Y9987D1*
X12017Y9957D1*
X11981Y9927D1*
X11940Y9897D1*
X12150Y10257D2*
Y10227D1*
Y10197D1*
Y10167D1*
Y10137D1*
Y10107D1*
X12840Y10257D2*
X12864Y10227D1*
X12881Y10197D1*
X12892Y10167D1*
X12902Y10137D1*
X12914Y10107D1*
X12930Y10077D1*
X12914Y10047D1*
X12901Y10017D1*
X12883Y9987D1*
X12857Y9957D1*
X12821Y9927D1*
X12780Y9897D1*
X12990Y10257D2*
Y10227D1*
Y10197D1*
Y10167D1*
Y10137D1*
Y10107D1*
Y10077D1*
Y10047D1*
Y10017D1*
Y9987D1*
Y9957D1*
Y9927D1*
Y9897D1*
Y9867D1*
Y9837D1*
X12991Y9807D1*
X12996Y9777D1*
X13008Y9747D1*
X13027Y9717D1*
X13050Y9687D1*
X13110Y10257D2*
Y10227D1*
Y10197D1*
Y10167D1*
Y10137D1*
Y10107D1*
Y10077D1*
Y10047D1*
Y10017D1*
X13111Y9987D1*
X13115Y9957D1*
X13126Y9927D1*
X13140Y9897D1*
X13590Y10257D2*
X13546Y10227D1*
X13507Y10197D1*
X13472Y10167D1*
X13436Y10137D1*
X13398Y10107D1*
X13360Y10077D1*
X13324Y10047D1*
X13290Y10017D1*
X13253Y9987D1*
X13206Y9957D1*
X13146Y9927D1*
X13080Y9897D1*
X13710Y10257D2*
X13723Y10227D1*
X13732Y10197D1*
X13736Y10167D1*
X13738Y10137D1*
X13739Y10107D1*
Y10077D1*
Y10047D1*
Y10017D1*
X13740Y9987D1*
Y9957D1*
Y9927D1*
Y9897D1*
Y9867D1*
Y9837D1*
Y9807D1*
Y9777D1*
Y9747D1*
Y9717D1*
Y9687D1*
X13800Y10257D2*
Y10227D1*
X13801Y10197D1*
X13805Y10167D1*
X13816Y10137D1*
X13830Y10107D1*
X14550Y10257D2*
X14563Y10227D1*
X14572Y10197D1*
X14576Y10167D1*
X14578Y10137D1*
X14579Y10107D1*
Y10077D1*
Y10047D1*
Y10017D1*
X14580Y9987D1*
Y9957D1*
Y9927D1*
Y9897D1*
Y9867D1*
Y9837D1*
X14579Y9807D1*
X14578Y9777D1*
X14574Y9747D1*
X14563Y9717D1*
X14550Y9687D1*
X14730Y10257D2*
X14697Y10227D1*
X14673Y10197D1*
X14656Y10167D1*
X14647Y10137D1*
X14643Y10107D1*
X14642Y10077D1*
X14645Y10047D1*
X14653Y10017D1*
X14667Y9987D1*
X14688Y9957D1*
X14718Y9927D1*
X14753Y9897D1*
X14790Y9867D1*
X14760Y9837D1*
X14730Y9807D1*
X14701Y9777D1*
X14675Y9747D1*
X14656Y9717D1*
X14640Y9687D1*
X15390Y10257D2*
X15403Y10227D1*
X15412Y10197D1*
X15416Y10167D1*
X15418Y10137D1*
X15419Y10107D1*
Y10077D1*
Y10047D1*
Y10017D1*
X15420Y9987D1*
Y9957D1*
Y9927D1*
Y9897D1*
Y9867D1*
Y9837D1*
Y9807D1*
Y9777D1*
Y9747D1*
Y9717D1*
Y9687D1*
X19560Y10257D2*
X19770Y10227D1*
X19948Y10197D1*
X20087Y10167D1*
X20196Y10137D1*
X20283Y10107D1*
X20352Y10077D1*
X20407Y10047D1*
X20450Y10017D1*
X20485Y9987D1*
X20518Y9957D1*
X20548Y9927D1*
X20573Y9897D1*
X20591Y9867D1*
X20602Y9837D1*
X20610Y9807D1*
X20100Y10257D2*
X20190Y10227D1*
X20280Y10197D1*
X20370Y10167D1*
X19680Y10227D2*
X19664Y10197D1*
X19650Y10167D1*
X19680Y10227D2*
X19695Y10197D1*
X19710Y10167D1*
X19590Y10197D2*
X19526Y10167D1*
X19464Y10137D1*
X19408Y10107D1*
X19363Y10077D1*
X19325Y10047D1*
X19292Y10017D1*
X19261Y9987D1*
X19235Y9957D1*
X19212Y9927D1*
X19191Y9897D1*
X19170Y9867D1*
X19151Y9837D1*
X19134Y9807D1*
X19118Y9777D1*
X19102Y9747D1*
X19087Y9717D1*
X19073Y9687D1*
X19062Y9657D1*
X19054Y9627D1*
X19047Y9597D1*
X19038Y9567D1*
X19030Y9537D1*
X19024Y9507D1*
X19021Y9477D1*
X19015Y9447D1*
X19008Y9417D1*
X19000Y9387D1*
X18994Y9357D1*
X18992Y9327D1*
X18990Y9297D1*
Y9267D1*
Y9237D1*
Y9207D1*
X18991Y9177D1*
X18995Y9147D1*
X19002Y9117D1*
X19009Y9087D1*
X19015Y9057D1*
X19019Y9027D1*
X19024Y8997D1*
X19033Y8967D1*
X19044Y8937D1*
X19058Y8907D1*
X19072Y8877D1*
X19087Y8847D1*
X19103Y8817D1*
X19120Y8787D1*
X19140Y8757D1*
X18998Y8727D1*
X18841Y8697D1*
X18667Y8667D1*
X18475Y8637D1*
X18270Y8607D1*
X19650Y10167D2*
X19580Y10137D1*
X19520Y10107D1*
X19469Y10077D1*
X19424Y10047D1*
X19386Y10017D1*
X19352Y9987D1*
X19322Y9957D1*
X19295Y9927D1*
X19273Y9897D1*
X19255Y9867D1*
X19238Y9837D1*
X19222Y9807D1*
X19207Y9777D1*
X19192Y9747D1*
X19177Y9717D1*
X19163Y9687D1*
X19151Y9657D1*
X19140Y9627D1*
X19130Y9597D1*
X19121Y9567D1*
X19115Y9537D1*
X19111Y9507D1*
X19105Y9477D1*
X19098Y9447D1*
X19090Y9417D1*
X19084Y9387D1*
X19082Y9357D1*
X19080Y9327D1*
Y9297D1*
Y9267D1*
Y9237D1*
Y9207D1*
Y9177D1*
Y9147D1*
X19081Y9117D1*
X19085Y9087D1*
X19092Y9057D1*
X19100Y9027D1*
X19106Y8997D1*
X19113Y8967D1*
X19122Y8937D1*
X19134Y8907D1*
X19148Y8877D1*
X19164Y8847D1*
X19182Y8817D1*
X19205Y8787D1*
X19232Y8757D1*
X19259Y8727D1*
X19286Y8697D1*
X19313Y8667D1*
X19343Y8637D1*
X19380Y8607D1*
X19424Y8577D1*
X19473Y8547D1*
X19527Y8517D1*
X19592Y8487D1*
X19675Y8457D1*
X19777Y8427D1*
X19890Y8397D1*
X7290Y10107D2*
Y10077D1*
Y10047D1*
X7770Y10107D2*
Y10077D1*
Y10047D1*
X8940Y10107D2*
X8610Y10077D1*
X8280Y10047D1*
Y10017D1*
Y9987D1*
Y9957D1*
Y9927D1*
Y9897D1*
X8610Y9867D1*
X8940Y9837D1*
Y10107D2*
Y10077D1*
Y10047D1*
X9450Y10107D2*
Y10077D1*
Y10047D1*
X11430Y10107D2*
X11100Y10077D1*
X10770Y10047D1*
Y10017D1*
Y9987D1*
Y9957D1*
Y9927D1*
Y9897D1*
X11100Y9867D1*
X11430Y9837D1*
X11910Y10107D2*
Y10077D1*
Y10047D1*
X12750Y10107D2*
Y10077D1*
Y10047D1*
X14760Y10107D2*
X14430Y10077D1*
X14100Y10047D1*
Y10017D1*
Y9987D1*
Y9957D1*
Y9927D1*
Y9897D1*
X14430Y9867D1*
X14760Y9837D1*
X14790Y10107D2*
Y10077D1*
Y10047D1*
X15270Y10107D2*
Y10077D1*
Y10047D1*
X11370D2*
X11351Y10017D1*
X11335Y9987D1*
X11323Y9957D1*
X11316Y9927D1*
X11312Y9897D1*
X11311Y9867D1*
Y9837D1*
X11316Y9807D1*
X11326Y9777D1*
X11353Y9747D1*
X11389Y9717D1*
X11430Y9687D1*
X12210Y10047D2*
X12191Y10017D1*
X12175Y9987D1*
X12163Y9957D1*
X12156Y9927D1*
X12152Y9897D1*
X12151Y9867D1*
Y9837D1*
X12155Y9807D1*
X12162Y9777D1*
X12186Y9747D1*
X12223Y9717D1*
X12270Y9687D1*
X13590Y10077D2*
X13556Y10047D1*
X13521Y10017D1*
X13487Y9987D1*
X13452Y9957D1*
X13416Y9927D1*
X13379Y9897D1*
X13343Y9867D1*
X13307Y9837D1*
X13272Y9807D1*
X13236Y9777D1*
X13197Y9747D1*
X13155Y9717D1*
X13110Y9687D1*
X13620Y10077D2*
Y10047D1*
Y10017D1*
Y9987D1*
Y9957D1*
Y9927D1*
Y9897D1*
Y9867D1*
Y9837D1*
Y9807D1*
Y9777D1*
Y9747D1*
Y9717D1*
Y9687D1*
X17910Y10017D2*
X17894Y9987D1*
X17880Y9957D1*
X17910Y10017D2*
X17925Y9987D1*
X17940Y9957D1*
X20220Y9927D2*
X20138Y9897D1*
X20068Y9867D1*
X20013Y9837D1*
X19969Y9807D1*
X19930Y9777D1*
X19895Y9747D1*
X19867Y9717D1*
X19844Y9687D1*
X19825Y9657D1*
X19807Y9627D1*
X19789Y9597D1*
X19770Y9567D1*
X19754Y9537D1*
X19742Y9507D1*
X19730Y9477D1*
X19720Y9447D1*
X19710Y9417D1*
X19700Y9387D1*
X19691Y9357D1*
X19685Y9327D1*
X19682Y9297D1*
X19680Y9267D1*
Y9237D1*
Y9207D1*
Y9177D1*
Y9147D1*
Y9117D1*
X19681Y9087D1*
X19685Y9057D1*
X19692Y9027D1*
X19701Y8997D1*
X19710Y8967D1*
X19720Y8937D1*
X19730Y8907D1*
X19739Y8877D1*
X19751Y8847D1*
X19765Y8817D1*
X19783Y8787D1*
X19805Y8757D1*
X19828Y8727D1*
X19853Y8697D1*
X19883Y8667D1*
X19921Y8637D1*
X19966Y8607D1*
X20023Y8577D1*
X20102Y8547D1*
X20211Y8517D1*
X20340Y8487D1*
X20274Y8457D1*
X20203Y8427D1*
X20130Y8397D1*
X20370Y9927D2*
X20451Y9897D1*
X20520Y9867D1*
X20570Y9837D1*
X20610Y9807D1*
X7530Y9897D2*
X7500Y9867D1*
X7470Y9837D1*
X7440Y9807D1*
X7410Y9777D1*
X7380Y9747D1*
X7350Y9717D1*
X7320Y9687D1*
X7770Y9897D2*
Y9867D1*
Y9837D1*
Y9807D1*
Y9777D1*
Y9747D1*
Y9717D1*
Y9687D1*
X8940Y9897D2*
Y9867D1*
Y9837D1*
Y9807D1*
Y9777D1*
Y9747D1*
Y9717D1*
Y9687D1*
X9450Y9897D2*
Y9867D1*
Y9837D1*
Y9807D1*
Y9777D1*
Y9747D1*
Y9717D1*
Y9687D1*
X11460Y9897D2*
Y9867D1*
Y9837D1*
X12300Y9897D2*
Y9867D1*
Y9837D1*
X15030Y9897D2*
X15000Y9867D1*
X14970Y9837D1*
X14940Y9807D1*
X14910Y9777D1*
X14880Y9747D1*
X14850Y9717D1*
X14820Y9687D1*
X15270Y9897D2*
Y9867D1*
Y9837D1*
Y9807D1*
Y9777D1*
Y9747D1*
Y9717D1*
Y9687D1*
X7980Y9837D2*
Y9807D1*
Y9777D1*
Y9747D1*
Y9717D1*
Y9687D1*
X9660Y9837D2*
Y9807D1*
Y9777D1*
Y9747D1*
Y9717D1*
Y9687D1*
X10470Y9837D2*
Y9807D1*
Y9777D1*
Y9747D1*
Y9717D1*
Y9687D1*
X12090Y9837D2*
Y9807D1*
Y9777D1*
Y9747D1*
Y9717D1*
Y9687D1*
X12900Y9837D2*
Y9807D1*
Y9777D1*
Y9747D1*
Y9717D1*
Y9687D1*
X13830Y9837D2*
X13816Y9807D1*
X13807Y9777D1*
X13803Y9747D1*
X13801Y9717D1*
X13800Y9687D1*
X14700Y9387D2*
X14672Y9357D1*
X14651Y9327D1*
X14645Y9297D1*
X14642Y9267D1*
X14640Y9237D1*
Y9207D1*
Y9177D1*
Y9147D1*
Y9117D1*
Y9087D1*
Y9057D1*
Y9027D1*
Y8997D1*
Y8967D1*
Y8937D1*
Y8907D1*
Y8877D1*
Y8847D1*
Y8817D1*
Y8787D1*
X14760Y9387D2*
X14790Y9357D1*
X14820Y9327D1*
X14850Y9297D1*
X14880Y9267D1*
X14910Y9237D1*
X14941Y9207D1*
X14975Y9177D1*
X15016Y9147D1*
X15060Y9117D1*
X15300Y9387D2*
X15266Y9357D1*
X15235Y9327D1*
X15203Y9297D1*
X15168Y9267D1*
X15134Y9237D1*
X15105Y9207D1*
X15076Y9177D1*
X15040Y9147D1*
X15000Y9117D1*
X15330Y9387D2*
X15362Y9357D1*
X15387Y9327D1*
X15403Y9297D1*
X15412Y9267D1*
X15416Y9237D1*
X15418Y9207D1*
X15419Y9177D1*
Y9147D1*
Y9117D1*
Y9087D1*
X15420Y9057D1*
Y9027D1*
Y8997D1*
Y8967D1*
Y8937D1*
Y8907D1*
X15419Y8877D1*
X15418Y8847D1*
X15414Y8817D1*
X15403Y8787D1*
X15390Y8757D1*
X7140Y9357D2*
Y9327D1*
Y9297D1*
Y9267D1*
Y9237D1*
Y9207D1*
Y9177D1*
X7470D1*
Y9147D1*
Y9117D1*
Y9087D1*
Y9057D1*
Y9027D1*
Y8997D1*
Y8967D1*
Y8937D1*
Y8907D1*
Y8877D1*
Y8847D1*
Y8817D1*
Y8787D1*
Y8757D1*
X7920Y9357D2*
Y9327D1*
Y9297D1*
Y9267D1*
Y9237D1*
Y9207D1*
Y9177D1*
X7590D1*
Y9147D1*
Y9117D1*
Y9087D1*
Y9057D1*
Y9027D1*
Y8997D1*
Y8967D1*
Y8937D1*
Y8907D1*
Y8877D1*
Y8847D1*
Y8817D1*
Y8787D1*
Y8757D1*
X8070Y9357D2*
X8041Y9327D1*
X8016Y9297D1*
X7998Y9267D1*
X7988Y9237D1*
X7983Y9207D1*
X7981Y9177D1*
Y9147D1*
X7986Y9117D1*
X7996Y9087D1*
X8023Y9057D1*
X8061Y9027D1*
X8108Y8997D1*
X8160Y8967D1*
X8130Y8937D1*
X8100Y8907D1*
X8070Y8877D1*
X8040Y8847D1*
X8010Y8817D1*
X7980Y8787D1*
X8100Y8757D1*
X8730Y9357D2*
X8740Y9327D1*
X8749Y9297D1*
X8754Y9267D1*
X8757Y9237D1*
X8759Y9207D1*
Y9177D1*
Y9147D1*
Y9117D1*
X8760Y9087D1*
Y9057D1*
Y9027D1*
Y8997D1*
Y8967D1*
Y8937D1*
Y8907D1*
Y8877D1*
Y8847D1*
Y8817D1*
Y8787D1*
Y8757D1*
X8820Y9357D2*
Y9327D1*
Y9297D1*
Y9267D1*
Y9237D1*
Y9207D1*
Y9177D1*
Y9147D1*
Y9117D1*
Y9087D1*
Y9057D1*
Y9027D1*
Y8997D1*
Y8967D1*
Y8937D1*
Y8907D1*
Y8877D1*
Y8847D1*
Y8817D1*
Y8787D1*
X8970Y8757D1*
X9570Y9357D2*
X9580Y9327D1*
X9589Y9297D1*
X9594Y9267D1*
X9597Y9237D1*
X9599Y9207D1*
Y9177D1*
Y9147D1*
Y9117D1*
X9600Y9087D1*
Y9057D1*
Y9027D1*
Y8997D1*
Y8967D1*
Y8937D1*
X9599Y8907D1*
X9598Y8877D1*
X9593Y8847D1*
X9581Y8817D1*
X9562Y8787D1*
X9540Y8757D1*
X9750Y9357D2*
X9721Y9327D1*
X9696Y9297D1*
X9678Y9267D1*
X9668Y9237D1*
X9663Y9207D1*
X9661Y9177D1*
Y9147D1*
X9665Y9117D1*
X9674Y9087D1*
X9689Y9057D1*
X9726Y9027D1*
X9779Y8997D1*
X9840Y8967D1*
X10380Y9357D2*
X10393Y9327D1*
X10402Y9297D1*
X10406Y9267D1*
X10408Y9237D1*
X10409Y9207D1*
Y9177D1*
Y9147D1*
Y9117D1*
X10410Y9087D1*
Y9057D1*
Y9027D1*
Y8997D1*
Y8967D1*
Y8937D1*
Y8907D1*
Y8877D1*
Y8847D1*
Y8817D1*
Y8787D1*
Y8757D1*
X10470Y9357D2*
Y9327D1*
Y9297D1*
Y9267D1*
Y9237D1*
Y9207D1*
X11160Y9357D2*
X11181Y9327D1*
X11203Y9297D1*
X11221Y9267D1*
X11235Y9237D1*
X11243Y9207D1*
X11246Y9177D1*
X11243Y9147D1*
X11236Y9117D1*
X11222Y9087D1*
X11200Y9057D1*
X11165Y9027D1*
X11120Y8997D1*
X11070Y8967D1*
X11250Y8937D1*
Y8907D1*
Y8877D1*
Y8847D1*
Y8817D1*
Y8787D1*
Y8757D1*
X11400Y9357D2*
X11371Y9327D1*
X11346Y9297D1*
X11328Y9267D1*
X11318Y9237D1*
X11313Y9207D1*
X11311Y9177D1*
Y9147D1*
X11316Y9117D1*
X11326Y9087D1*
X11353Y9057D1*
X11391Y9027D1*
X11438Y8997D1*
X11490Y8967D1*
X11460Y8937D1*
X11430Y8907D1*
X11400Y8877D1*
X11370Y8847D1*
X11340Y8817D1*
X11310Y8787D1*
X11340Y8757D1*
X12060Y9357D2*
X12070Y9327D1*
X12079Y9297D1*
X12084Y9267D1*
X12087Y9237D1*
X12089Y9207D1*
Y9177D1*
Y9147D1*
Y9117D1*
X12090Y9087D1*
Y9057D1*
Y9027D1*
Y8997D1*
Y8967D1*
Y8937D1*
Y8907D1*
X12089Y8877D1*
X12088Y8847D1*
X12084Y8817D1*
X12073Y8787D1*
X12060Y8757D1*
X12150Y9357D2*
Y9327D1*
Y9297D1*
Y9267D1*
Y9237D1*
Y9207D1*
Y9177D1*
Y9147D1*
Y9117D1*
Y9087D1*
Y9057D1*
Y9027D1*
Y8997D1*
Y8967D1*
Y8937D1*
Y8907D1*
Y8877D1*
X12152Y8847D1*
X12157Y8817D1*
X12181Y8787D1*
X12210Y8757D1*
X12900Y9357D2*
X12910Y9327D1*
X12919Y9297D1*
X12924Y9267D1*
X12927Y9237D1*
X12929Y9207D1*
Y9177D1*
Y9147D1*
Y9117D1*
X12930Y9087D1*
Y9057D1*
Y9027D1*
Y8997D1*
Y8967D1*
Y8937D1*
X12929Y8907D1*
X12928Y8877D1*
X12923Y8847D1*
X12911Y8817D1*
X12892Y8787D1*
X12870Y8757D1*
X12990Y9357D2*
Y9327D1*
Y9297D1*
Y9267D1*
Y9237D1*
Y9207D1*
Y9177D1*
X13290D1*
Y9147D1*
Y9117D1*
Y9087D1*
Y9057D1*
Y9027D1*
Y8997D1*
Y8967D1*
Y8937D1*
Y8907D1*
Y8877D1*
Y8847D1*
Y8817D1*
Y8787D1*
Y8757D1*
X13740Y9357D2*
Y9327D1*
Y9297D1*
Y9267D1*
Y9237D1*
Y9207D1*
Y9177D1*
X13440D1*
Y9147D1*
Y9117D1*
Y9087D1*
Y9057D1*
Y9027D1*
Y8997D1*
Y8967D1*
Y8937D1*
Y8907D1*
Y8877D1*
Y8847D1*
Y8817D1*
Y8787D1*
Y8757D1*
X13830Y9357D2*
X13819Y9327D1*
X13810Y9297D1*
X13805Y9267D1*
X13802Y9237D1*
X13800Y9207D1*
Y9177D1*
Y9147D1*
Y9117D1*
Y9087D1*
Y9057D1*
Y9027D1*
Y8997D1*
Y8967D1*
Y8937D1*
Y8907D1*
X13801Y8877D1*
X13806Y8847D1*
X13818Y8817D1*
X13837Y8787D1*
X13860Y8757D1*
X14550Y9357D2*
X14560Y9327D1*
X14569Y9297D1*
X14574Y9267D1*
X14577Y9237D1*
X14579Y9207D1*
Y9177D1*
Y9147D1*
Y9117D1*
X14580Y9087D1*
Y9057D1*
Y9027D1*
Y8997D1*
Y8967D1*
Y8937D1*
X14579Y8907D1*
X14578Y8877D1*
X14573Y8847D1*
X14561Y8817D1*
X14542Y8787D1*
X14520Y8757D1*
X8130Y9207D2*
Y9177D1*
Y9147D1*
X8610Y9207D2*
Y9177D1*
Y9147D1*
X8940Y9207D2*
Y9177D1*
Y9147D1*
Y9117D1*
Y9087D1*
Y9057D1*
Y9027D1*
Y8997D1*
Y8967D1*
Y8937D1*
X9450Y9207D2*
Y9177D1*
Y9147D1*
Y9117D1*
Y9087D1*
Y9057D1*
Y9027D1*
Y8997D1*
Y8967D1*
Y8937D1*
X9810Y9207D2*
Y9177D1*
Y9147D1*
X10290Y9207D2*
Y9177D1*
Y9147D1*
X11100Y9207D2*
Y9177D1*
Y9147D1*
X11460Y9207D2*
Y9177D1*
Y9147D1*
X11940Y9207D2*
Y9177D1*
Y9147D1*
X12270Y9207D2*
Y9177D1*
Y9147D1*
Y9117D1*
Y9087D1*
Y9057D1*
Y9027D1*
Y8997D1*
Y8967D1*
Y8937D1*
X12780Y9207D2*
Y9177D1*
Y9147D1*
Y9117D1*
Y9087D1*
Y9057D1*
Y9027D1*
Y8997D1*
Y8967D1*
Y8937D1*
X13920Y9207D2*
Y9177D1*
Y9147D1*
Y9117D1*
Y9087D1*
Y9057D1*
Y9027D1*
Y8997D1*
Y8967D1*
Y8937D1*
X14430Y9207D2*
Y9177D1*
Y9147D1*
Y9117D1*
Y9087D1*
Y9057D1*
Y9027D1*
Y8997D1*
Y8967D1*
Y8937D1*
X10620Y9147D2*
X10563Y9117D1*
X10521Y9087D1*
X10490Y9057D1*
X10479Y9027D1*
X10474Y8997D1*
X10471Y8967D1*
Y8937D1*
X10475Y8907D1*
X10483Y8877D1*
X10498Y8847D1*
X10519Y8817D1*
X10566Y8787D1*
X10620Y8757D1*
X14760Y9117D2*
Y9087D1*
Y9057D1*
Y9027D1*
Y8997D1*
Y8967D1*
Y8937D1*
Y8907D1*
Y8877D1*
Y8847D1*
Y8817D1*
Y8787D1*
X14790Y9117D2*
X14821Y9087D1*
X14853Y9057D1*
X14887Y9027D1*
X14917Y8997D1*
X14945Y8967D1*
X14972Y8937D1*
X15000Y8907D1*
X15240Y9117D2*
X15210Y9087D1*
X15180Y9057D1*
X15150Y9027D1*
X15120Y8997D1*
X15090Y8967D1*
X15060Y8937D1*
X15030Y8907D1*
X15270Y9117D2*
Y9087D1*
Y9057D1*
Y9027D1*
Y8997D1*
Y8967D1*
Y8937D1*
Y8907D1*
Y8877D1*
Y8847D1*
Y8817D1*
Y8787D1*
Y8757D1*
X8370Y8967D2*
X8340Y8937D1*
X8310Y8907D1*
X8280Y8877D1*
X8250Y8847D1*
X8220Y8817D1*
X8190Y8787D1*
X8160Y8757D1*
X8610Y8967D2*
Y8937D1*
Y8907D1*
Y8877D1*
Y8847D1*
Y8817D1*
Y8787D1*
Y8757D1*
X10290Y8967D2*
Y8937D1*
Y8907D1*
Y8877D1*
Y8847D1*
Y8817D1*
Y8787D1*
Y8757D1*
X11670Y8967D2*
X11640Y8937D1*
X11611Y8907D1*
X11585Y8877D1*
X11562Y8847D1*
X11539Y8817D1*
X11515Y8787D1*
X11490Y8757D1*
X11940Y8967D2*
Y8937D1*
Y8907D1*
Y8877D1*
Y8847D1*
Y8817D1*
Y8787D1*
Y8757D1*
X12270Y8787D2*
X12240Y8757D1*
X12270Y8787D2*
X12300Y8757D1*
X21708Y6721D2*
D85*
X21895D1*
Y6420D1*
X21708D1*
X21895Y6578D2*
X21780D1*
X21616Y6621D2*
Y6420D1*
Y6534D2*
X21601Y6578D1*
X21573Y6606D1*
X21544Y6621D1*
X21501D1*
X21408Y6721D2*
X21394Y6707D1*
X21379Y6721D1*
X21394Y6736D1*
X21408Y6721D1*
X21394Y6621D2*
Y6420D1*
X21114Y6578D2*
X21143Y6606D1*
X21172Y6621D1*
X21215D1*
X21243Y6606D1*
X21272Y6578D1*
X21287Y6534D1*
Y6506D1*
X21272Y6463D1*
X21243Y6434D1*
X21215Y6420D1*
X21172D1*
X21143Y6434D1*
X21114Y6463D1*
X20644Y6721D2*
X20672Y6707D1*
X20701Y6678D1*
X20716Y6649D1*
X20730Y6606D1*
Y6534D1*
X20716Y6492D1*
X20701Y6463D1*
X20672Y6434D1*
X20644Y6420D1*
X20586D1*
X20558Y6434D1*
X20529Y6463D1*
X20515Y6492D1*
X20500Y6534D1*
Y6606D1*
X20515Y6649D1*
X20529Y6678D1*
X20558Y6707D1*
X20586Y6721D1*
X20644D1*
X20250Y6578D2*
X20264Y6606D1*
X20307Y6621D1*
X20350D1*
X20393Y6606D1*
X20408Y6578D1*
X20393Y6549D1*
X20365Y6534D1*
X20293Y6520D1*
X20264Y6506D1*
X20250Y6477D1*
Y6463D1*
X20264Y6434D1*
X20307Y6420D1*
X20350D1*
X20393Y6434D1*
X20408Y6463D1*
X20157Y6621D2*
X20100Y6420D1*
X20042Y6621D1*
X19985Y6420D1*
X19928Y6621D1*
X19663D2*
Y6420D1*
Y6578D2*
X19692Y6606D1*
X19720Y6621D1*
X19763D1*
X19792Y6606D1*
X19821Y6578D1*
X19835Y6534D1*
Y6506D1*
X19821Y6463D1*
X19792Y6434D1*
X19763Y6420D1*
X19720D1*
X19692Y6434D1*
X19663Y6463D1*
X19570Y6721D2*
Y6420D1*
X19306Y6721D2*
Y6420D1*
Y6578D2*
X19334Y6606D1*
X19363Y6621D1*
X19406D1*
X19435Y6606D1*
X19463Y6578D1*
X19478Y6534D1*
Y6506D1*
X19463Y6463D1*
X19435Y6434D1*
X19406Y6420D1*
X19363D1*
X19334Y6434D1*
X19306Y6463D1*
X21891Y6053D2*
X21719D1*
Y6082D1*
X21733Y6110D1*
X21748Y6125D1*
X21777Y6139D1*
X21820D1*
X21848Y6125D1*
X21877Y6096D1*
X21891Y6053D1*
Y6024D1*
X21877Y5981D1*
X21848Y5953D1*
X21820Y5938D1*
X21777D1*
X21748Y5953D1*
X21719Y5981D1*
X21555Y6139D2*
X21583Y6125D1*
X21612Y6096D1*
X21627Y6053D1*
Y6024D1*
X21612Y5981D1*
X21583Y5953D1*
X21555Y5938D1*
X21512D1*
X21483Y5953D1*
X21454Y5981D1*
X21440Y6024D1*
Y6053D1*
X21454Y6096D1*
X21483Y6125D1*
X21512Y6139D1*
X21555D1*
X21189Y6096D2*
X21204Y6125D1*
X21247Y6139D1*
X21290D1*
X21333Y6125D1*
X21347Y6096D1*
X21333Y6067D1*
X21304Y6053D1*
X21232Y6038D1*
X21204Y6024D1*
X21189Y5995D1*
Y5981D1*
X21204Y5953D1*
X21247Y5938D1*
X21290D1*
X21333Y5953D1*
X21347Y5981D1*
X21097Y6139D2*
X21039Y5938D1*
X20982Y6139D1*
X20925Y5938D1*
X20867Y6139D1*
X20602D2*
Y5938D1*
Y6096D2*
X20631Y6125D1*
X20660Y6139D1*
X20703D1*
X20731Y6125D1*
X20760Y6096D1*
X20775Y6053D1*
Y6024D1*
X20760Y5981D1*
X20731Y5953D1*
X20703Y5938D1*
X20660D1*
X20631Y5953D1*
X20602Y5981D1*
X20510Y6239D2*
Y5938D1*
X20245Y6239D2*
Y5938D1*
Y6096D2*
X20274Y6125D1*
X20302Y6139D1*
X20346D1*
X20374Y6125D1*
X20403Y6096D1*
X20417Y6053D1*
Y6024D1*
X20403Y5981D1*
X20374Y5953D1*
X20346Y5938D1*
X20302D1*
X20274Y5953D1*
X20245Y5981D1*
X20124Y6239D2*
X19966D1*
X20052Y6124D1*
X20009D1*
X19980Y6110D1*
X19966Y6096D1*
X19951Y6053D1*
Y6024D1*
X19966Y5981D1*
X19995Y5952D1*
X20038Y5938D1*
X20081D1*
X20124Y5952D1*
X20138Y5967D1*
X20152Y5995D1*
X19672Y6139D2*
X19687Y6096D1*
X19715Y6067D1*
X19758Y6053D1*
X19773D1*
X19816Y6067D1*
X19844Y6096D1*
X19859Y6139D1*
Y6153D1*
X19844Y6196D1*
X19816Y6225D1*
X19773Y6239D1*
X19758D1*
X19715Y6225D1*
X19687Y6196D1*
X19672Y6139D1*
Y6067D1*
X19687Y5995D1*
X19715Y5952D1*
X19758Y5938D1*
X19787D1*
X19830Y5952D1*
X19844Y5981D1*
X19422Y6167D2*
X19465D1*
X19493Y6153D1*
X19508Y6139D1*
X19522Y6110D1*
Y6053D1*
X19508Y6038D1*
X19479D1*
X19422Y6053D1*
X19407Y6024D1*
X19393D1*
X19364Y6053D1*
X19350Y6124D1*
X19364Y6167D1*
X19379Y6196D1*
X19407Y6225D1*
X19436Y6239D1*
X19493D1*
X19522Y6225D1*
X19551Y6196D1*
X19565Y6167D1*
X19580Y6124D1*
Y6053D1*
X19565Y6010D1*
X19551Y5981D1*
X19522Y5952D1*
X19493Y5938D1*
X19436D1*
X19407Y5952D1*
X19379Y5981D1*
X19422Y6182D2*
Y6053D1*
X19085Y6125D2*
Y5895D1*
X19100Y5852D1*
X19114Y5837D1*
X19143Y5823D1*
X19186D1*
X19214Y5837D1*
X19085Y6082D2*
X19114Y6110D1*
X19143Y6125D1*
X19186D1*
X19214Y6110D1*
X19243Y6082D1*
X19257Y6038D1*
Y6010D1*
X19243Y5967D1*
X19214Y5938D1*
X19186Y5924D1*
X19143D1*
X19114Y5938D1*
X19085Y5967D1*
X18993Y6139D2*
Y5938D1*
Y6082D2*
X18950Y6125D1*
X18921Y6139D1*
X18878D1*
X18849Y6125D1*
X18835Y6082D1*
Y5938D1*
Y6082D2*
X18792Y6125D1*
X18763Y6139D1*
X18720D1*
X18691Y6125D1*
X18677Y6082D1*
Y5938D1*
X18412Y6139D2*
Y5938D1*
Y6096D2*
X18440Y6125D1*
X18469Y6139D1*
X18512D1*
X18541Y6125D1*
X18569Y6096D1*
X18584Y6053D1*
Y6024D1*
X18569Y5981D1*
X18541Y5953D1*
X18512Y5938D1*
X18469D1*
X18440Y5953D1*
X18412Y5981D1*
X18319Y6239D2*
X18305Y6225D1*
X18290Y6239D1*
X18305Y6254D1*
X18319Y6239D1*
X18305Y6139D2*
Y5938D1*
X18198Y6239D2*
Y5938D1*
X18091Y5967D2*
X18105Y5952D1*
X18091Y5938D1*
X18076Y5952D1*
X18091Y5967D1*
X17811Y6096D2*
X17840Y6125D1*
X17869Y6139D1*
X17912D1*
X17941Y6125D1*
X17969Y6096D1*
X17984Y6053D1*
Y6024D1*
X17969Y5981D1*
X17941Y5953D1*
X17912Y5938D1*
X17869D1*
X17840Y5953D1*
X17811Y5981D1*
X17647Y6139D2*
X17675Y6125D1*
X17704Y6096D1*
X17719Y6053D1*
Y6024D1*
X17704Y5981D1*
X17675Y5953D1*
X17647Y5938D1*
X17604D1*
X17575Y5953D1*
X17546Y5981D1*
X17532Y6024D1*
Y6053D1*
X17546Y6096D1*
X17575Y6125D1*
X17604Y6139D1*
X17647D1*
X17439D2*
Y5938D1*
Y6082D2*
X17396Y6125D1*
X17367Y6139D1*
X17324D1*
X17296Y6125D1*
X17281Y6082D1*
Y5938D1*
Y6082D2*
X17238Y6125D1*
X17209Y6139D1*
X17167D1*
X17138Y6125D1*
X17123Y6082D1*
Y5938D1*
X21899Y5584D2*
X21770D1*
X21727Y5598D1*
X21712Y5613D1*
X21698Y5641D1*
Y5670D1*
X21712Y5698D1*
X21727Y5713D1*
X21770Y5727D1*
X21899D1*
Y5426D1*
X21799Y5584D2*
X21698Y5426D1*
X21605Y5541D2*
X21433D1*
Y5569D1*
X21448Y5598D1*
X21462Y5613D1*
X21491Y5627D1*
X21534D1*
X21562Y5613D1*
X21591Y5584D1*
X21605Y5541D1*
Y5512D1*
X21591Y5469D1*
X21562Y5440D1*
X21534Y5426D1*
X21491D1*
X21462Y5440D1*
X21433Y5469D1*
X21341Y5627D2*
Y5426D1*
Y5569D2*
X21298Y5613D1*
X21269Y5627D1*
X21226D1*
X21197Y5613D1*
X21183Y5569D1*
Y5426D1*
X20932Y5584D2*
X20947Y5613D1*
X20990Y5627D1*
X21033D1*
X21076Y5613D1*
X21090Y5584D1*
X21076Y5555D1*
X21047Y5541D1*
X20976Y5526D1*
X20947Y5512D1*
X20932Y5483D1*
Y5469D1*
X20947Y5440D1*
X20990Y5426D1*
X21033D1*
X21076Y5440D1*
X21090Y5469D1*
X20682Y5584D2*
X20696Y5613D1*
X20739Y5627D1*
X20782D1*
X20826Y5613D1*
X20840Y5584D1*
X20826Y5555D1*
X20797Y5541D1*
X20725Y5526D1*
X20696Y5512D1*
X20682Y5483D1*
Y5469D1*
X20696Y5440D1*
X20739Y5426D1*
X20782D1*
X20826Y5440D1*
X20840Y5469D1*
X20589Y5541D2*
X20417D1*
Y5569D1*
X20431Y5598D1*
X20446Y5613D1*
X20475Y5627D1*
X20518D1*
X20546Y5613D1*
X20575Y5584D1*
X20589Y5541D1*
Y5512D1*
X20575Y5469D1*
X20546Y5440D1*
X20518Y5426D1*
X20475D1*
X20446Y5440D1*
X20417Y5469D1*
X20325Y5727D2*
Y5426D1*
X20060Y5627D2*
Y5426D1*
Y5584D2*
X20088Y5613D1*
X20117Y5627D1*
X20160D1*
X20189Y5613D1*
X20217Y5584D1*
X20232Y5541D1*
Y5512D1*
X20217Y5469D1*
X20189Y5440D1*
X20160Y5426D1*
X20117D1*
X20088Y5440D1*
X20060Y5469D1*
X19967Y5541D2*
X19795D1*
Y5569D1*
X19809Y5598D1*
X19824Y5613D1*
X19852Y5627D1*
X19896D1*
X19924Y5613D1*
X19953Y5584D1*
X19967Y5541D1*
Y5512D1*
X19953Y5469D1*
X19924Y5440D1*
X19896Y5426D1*
X19852D1*
X19824Y5440D1*
X19795Y5469D1*
X19702Y5627D2*
Y5426D1*
Y5541D2*
X19688Y5584D1*
X19659Y5613D1*
X19630Y5627D1*
X19587D1*
X18974Y5426D2*
Y5727D1*
X19088Y5426D1*
X19203Y5727D1*
Y5426D1*
X18809Y5627D2*
X18838Y5613D1*
X18867Y5584D1*
X18881Y5541D1*
Y5512D1*
X18867Y5469D1*
X18838Y5440D1*
X18809Y5426D1*
X18766D1*
X18737Y5440D1*
X18709Y5469D1*
X18694Y5512D1*
Y5541D1*
X18709Y5584D1*
X18737Y5613D1*
X18766Y5627D1*
X18809D1*
X18559Y5727D2*
Y5483D1*
X18544Y5440D1*
X18515Y5426D1*
X18487D1*
X18602Y5627D2*
X18501D1*
X18323D2*
X18351Y5613D1*
X18380Y5584D1*
X18394Y5541D1*
Y5512D1*
X18380Y5469D1*
X18351Y5440D1*
X18323Y5426D1*
X18280D1*
X18251Y5440D1*
X18222Y5469D1*
X18208Y5512D1*
Y5541D1*
X18222Y5584D1*
X18251Y5613D1*
X18280Y5627D1*
X18323D1*
X18115D2*
Y5426D1*
Y5541D2*
X18100Y5584D1*
X18072Y5613D1*
X18043Y5627D1*
X18000D1*
X17749Y5584D2*
X17764Y5613D1*
X17807Y5627D1*
X17850D1*
X17893Y5613D1*
X17907Y5584D1*
X17893Y5555D1*
X17864Y5541D1*
X17792Y5526D1*
X17764Y5512D1*
X17749Y5483D1*
Y5469D1*
X17764Y5440D1*
X17807Y5426D1*
X17850D1*
X17893Y5440D1*
X17907Y5469D1*
X17657Y5627D2*
Y5325D1*
Y5584D2*
X17628Y5612D1*
X17599Y5627D1*
X17556D1*
X17527Y5612D1*
X17499Y5584D1*
X17484Y5541D1*
Y5512D1*
X17499Y5469D1*
X17527Y5440D1*
X17556Y5426D1*
X17599D1*
X17628Y5440D1*
X17657Y5469D1*
X17320Y5627D2*
X17349Y5613D1*
X17377Y5584D1*
X17392Y5541D1*
Y5512D1*
X17377Y5469D1*
X17349Y5440D1*
X17320Y5426D1*
X17277D1*
X17248Y5440D1*
X17220Y5469D1*
X17205Y5512D1*
Y5541D1*
X17220Y5584D1*
X17248Y5613D1*
X17277Y5627D1*
X17320D1*
X17112D2*
Y5426D1*
Y5541D2*
X17098Y5584D1*
X17069Y5613D1*
X17040Y5627D1*
X16997D1*
X16862Y5727D2*
Y5483D1*
X16847Y5440D1*
X16818Y5426D1*
X16790D1*
X16905Y5627D2*
X16804D1*
X21683Y4932D2*
Y5233D1*
X21797Y4932D1*
X21912Y5233D1*
Y4932D1*
X21418Y5133D2*
Y4932D1*
Y5090D2*
X21446Y5119D1*
X21475Y5133D1*
X21518D1*
X21547Y5119D1*
X21575Y5090D1*
X21590Y5047D1*
Y5018D1*
X21575Y4975D1*
X21547Y4947D1*
X21518Y4932D1*
X21475D1*
X21446Y4947D1*
X21418Y4975D1*
X21325Y5233D2*
X21311Y5219D1*
X21296Y5233D1*
X21311Y5248D1*
X21325Y5233D1*
X21311Y5133D2*
Y4932D1*
X21204Y5133D2*
Y4932D1*
Y5076D2*
X21161Y5119D1*
X21132Y5133D1*
X21089D1*
X21060Y5119D1*
X21046Y5076D1*
Y4932D1*
X20953Y5233D2*
Y4932D1*
Y5090D2*
X20924Y5119D1*
X20896Y5133D1*
X20853D1*
X20824Y5119D1*
X20795Y5090D1*
X20781Y5047D1*
Y5018D1*
X20795Y4975D1*
X20824Y4947D1*
X20853Y4932D1*
X20896D1*
X20924Y4947D1*
X20953Y4975D1*
X20617Y5133D2*
X20645Y5119D1*
X20674Y5090D1*
X20688Y5047D1*
Y5018D1*
X20674Y4975D1*
X20645Y4947D1*
X20617Y4932D1*
X20574D1*
X20545Y4947D1*
X20516Y4975D1*
X20502Y5018D1*
Y5047D1*
X20516Y5090D1*
X20545Y5119D1*
X20574Y5133D1*
X20617D1*
X20237D2*
Y4932D1*
Y5090D2*
X20266Y5119D1*
X20294Y5133D1*
X20337D1*
X20366Y5119D1*
X20395Y5090D1*
X20409Y5047D1*
Y5018D1*
X20395Y4975D1*
X20366Y4947D1*
X20337Y4932D1*
X20294D1*
X20266Y4947D1*
X20237Y4975D1*
X20144Y5133D2*
Y4932D1*
Y5047D2*
X20130Y5090D1*
X20101Y5119D1*
X20072Y5133D1*
X20029D1*
X19765Y5233D2*
Y4932D1*
Y5090D2*
X19793Y5119D1*
X19822Y5133D1*
X19865D1*
X19894Y5119D1*
X19922Y5090D1*
X19937Y5047D1*
Y5018D1*
X19922Y4975D1*
X19894Y4947D1*
X19865Y4932D1*
X19822D1*
X19793Y4947D1*
X19765Y4975D1*
X19380Y5133D2*
X19294Y4932D1*
X19208Y5133D1*
X19087Y5233D2*
X18929D1*
X19015Y5118D1*
X18972D1*
X18943Y5104D1*
X18929Y5090D1*
X18915Y5047D1*
Y5018D1*
X18929Y4975D1*
X18958Y4946D1*
X19001Y4932D1*
X19044D1*
X19087Y4946D1*
X19101Y4961D1*
X19116Y4989D1*
X18808Y4961D2*
X18822Y4946D1*
X18808Y4932D1*
X18793Y4946D1*
X18808Y4961D1*
X18614Y5233D2*
X18657Y5219D1*
X18686Y5176D1*
X18700Y5104D1*
Y5061D1*
X18686Y4989D1*
X18657Y4946D1*
X18614Y4932D1*
X18586D1*
X18543Y4946D1*
X18514Y4989D1*
X18500Y5061D1*
Y5104D1*
X18514Y5176D1*
X18543Y5219D1*
X18586Y5233D1*
X18614D1*
X18514Y5176D2*
X18686Y4989D1*
X21942Y4733D2*
Y4432D1*
Y4576D2*
X21899Y4619D1*
X21871Y4633D1*
X21827D1*
X21799Y4619D1*
X21785Y4576D1*
Y4432D1*
X21649Y4733D2*
Y4489D1*
X21635Y4447D1*
X21606Y4432D1*
X21577D1*
X21692Y4633D2*
X21592D1*
X21442Y4733D2*
Y4489D1*
X21427Y4447D1*
X21398Y4432D1*
X21370D1*
X21485Y4633D2*
X21384D1*
X21277D2*
Y4332D1*
Y4590D2*
X21248Y4618D1*
X21220Y4633D1*
X21177D1*
X21148Y4618D1*
X21119Y4590D1*
X21105Y4547D1*
Y4518D1*
X21119Y4475D1*
X21148Y4446D1*
X21177Y4432D1*
X21220D1*
X21248Y4446D1*
X21277Y4475D1*
X20854Y4590D2*
X20869Y4619D1*
X20912Y4633D1*
X20955D1*
X20998Y4619D1*
X21012Y4590D1*
X20998Y4561D1*
X20969Y4547D1*
X20897Y4532D1*
X20869Y4518D1*
X20854Y4489D1*
Y4475D1*
X20869Y4447D1*
X20912Y4432D1*
X20955D1*
X20998Y4447D1*
X21012Y4475D1*
X20747Y4633D2*
X20762Y4618D1*
X20747Y4604D1*
X20733Y4618D1*
X20747Y4633D1*
Y4461D2*
X20762Y4446D1*
X20747Y4432D1*
X20733Y4446D1*
X20747Y4461D1*
X20640Y4432D2*
X20439Y4733D1*
X20347Y4432D2*
X20146Y4733D1*
X19881Y4619D2*
Y4389D1*
X19895Y4346D1*
X19909Y4332D1*
X19938Y4317D1*
X19981D1*
X20010Y4332D1*
X19881Y4576D2*
X19909Y4604D1*
X19938Y4619D1*
X19981D1*
X20010Y4604D1*
X20039Y4576D1*
X20053Y4532D1*
Y4504D1*
X20039Y4461D1*
X20010Y4432D1*
X19981Y4418D1*
X19938D1*
X19909Y4432D1*
X19881Y4461D1*
X19788Y4733D2*
X19774Y4719D1*
X19759Y4733D1*
X19774Y4748D1*
X19788Y4733D1*
X19774Y4633D2*
Y4432D1*
X19624Y4733D2*
Y4489D1*
X19609Y4447D1*
X19581Y4432D1*
X19552D1*
X19667Y4633D2*
X19566D1*
X19459Y4733D2*
Y4432D1*
Y4576D2*
X19416Y4619D1*
X19387Y4633D1*
X19344D1*
X19316Y4619D1*
X19302Y4576D1*
Y4432D1*
X19209Y4633D2*
Y4489D1*
X19195Y4447D1*
X19166Y4432D1*
X19123D1*
X19094Y4447D1*
X19051Y4489D1*
Y4633D2*
Y4432D1*
X18958Y4733D2*
Y4432D1*
Y4590D2*
X18930Y4619D1*
X18901Y4633D1*
X18858D1*
X18829Y4619D1*
X18801Y4590D1*
X18786Y4547D1*
Y4518D1*
X18801Y4475D1*
X18829Y4447D1*
X18858Y4432D1*
X18901D1*
X18930Y4447D1*
X18958Y4475D1*
X18679Y4461D2*
X18694Y4446D1*
X18679Y4432D1*
X18665Y4446D1*
X18679Y4461D1*
X18400Y4590D2*
X18429Y4619D1*
X18457Y4633D1*
X18500D1*
X18529Y4619D1*
X18558Y4590D1*
X18572Y4547D1*
Y4518D1*
X18558Y4475D1*
X18529Y4447D1*
X18500Y4432D1*
X18457D1*
X18429Y4447D1*
X18400Y4475D1*
X18236Y4633D2*
X18264Y4619D1*
X18293Y4590D1*
X18307Y4547D1*
Y4518D1*
X18293Y4475D1*
X18264Y4447D1*
X18236Y4432D1*
X18192D1*
X18164Y4447D1*
X18135Y4475D1*
X18120Y4518D1*
Y4547D1*
X18135Y4590D1*
X18164Y4619D1*
X18192Y4633D1*
X18236D1*
X18028D2*
Y4432D1*
Y4576D2*
X17985Y4619D1*
X17956Y4633D1*
X17913D1*
X17884Y4619D1*
X17870Y4576D1*
Y4432D1*
Y4576D2*
X17827Y4619D1*
X17798Y4633D1*
X17755D1*
X17726Y4619D1*
X17712Y4576D1*
Y4432D1*
X17619D2*
X17418Y4733D1*
X17326Y4590D2*
X17197D1*
X17153Y4604D1*
X17139Y4619D1*
X17125Y4647D1*
Y4676D1*
X17139Y4705D1*
X17153Y4719D1*
X17197Y4733D1*
X17326D1*
Y4432D1*
X17225Y4590D2*
X17125Y4432D1*
X17032Y4547D2*
X16860D1*
Y4576D1*
X16874Y4604D1*
X16888Y4619D1*
X16917Y4633D1*
X16960D1*
X16989Y4619D1*
X17018Y4590D1*
X17032Y4547D1*
Y4518D1*
X17018Y4475D1*
X16989Y4447D1*
X16960Y4432D1*
X16917D1*
X16888Y4447D1*
X16860Y4475D1*
X16767Y4633D2*
Y4432D1*
Y4576D2*
X16724Y4619D1*
X16695Y4633D1*
X16652D1*
X16624Y4619D1*
X16609Y4576D1*
Y4432D1*
X16359Y4590D2*
X16373Y4619D1*
X16416Y4633D1*
X16459D1*
X16502Y4619D1*
X16517Y4590D1*
X16502Y4561D1*
X16474Y4547D1*
X16402Y4532D1*
X16373Y4518D1*
X16359Y4489D1*
Y4475D1*
X16373Y4447D1*
X16416Y4432D1*
X16459D1*
X16502Y4447D1*
X16517Y4475D1*
X16108Y4590D2*
X16123Y4619D1*
X16166Y4633D1*
X16209D1*
X16252Y4619D1*
X16266Y4590D1*
X16252Y4561D1*
X16223Y4547D1*
X16151Y4532D1*
X16123Y4518D1*
X16108Y4489D1*
Y4475D1*
X16123Y4447D1*
X16166Y4432D1*
X16209D1*
X16252Y4447D1*
X16266Y4475D1*
X16016Y4547D2*
X15844D1*
Y4576D1*
X15858Y4604D1*
X15872Y4619D1*
X15901Y4633D1*
X15944D1*
X15973Y4619D1*
X16001Y4590D1*
X16016Y4547D1*
Y4518D1*
X16001Y4475D1*
X15973Y4447D1*
X15944Y4432D1*
X15901D1*
X15872Y4447D1*
X15844Y4475D1*
X15751Y4733D2*
Y4432D1*
X15486Y4633D2*
Y4432D1*
Y4590D2*
X15515Y4619D1*
X15544Y4633D1*
X15586D1*
X15615Y4619D1*
X15644Y4590D1*
X15658Y4547D1*
Y4518D1*
X15644Y4475D1*
X15615Y4447D1*
X15586Y4432D1*
X15544D1*
X15515Y4447D1*
X15486Y4475D1*
X15394Y4547D2*
X15222D1*
Y4576D1*
X15236Y4604D1*
X15250Y4619D1*
X15279Y4633D1*
X15322D1*
X15351Y4619D1*
X15379Y4590D1*
X15394Y4547D1*
Y4518D1*
X15379Y4475D1*
X15351Y4447D1*
X15322Y4432D1*
X15279D1*
X15250Y4447D1*
X15222Y4475D1*
X15129Y4633D2*
Y4432D1*
Y4547D2*
X15114Y4590D1*
X15086Y4619D1*
X15057Y4633D1*
X15014D1*
X14921Y4583D2*
X14755D1*
X14433Y4432D2*
Y4733D1*
X14548Y4432D1*
X14663Y4733D1*
Y4432D1*
X14269Y4633D2*
X14297Y4619D1*
X14326Y4590D1*
X14341Y4547D1*
Y4518D1*
X14326Y4475D1*
X14297Y4447D1*
X14269Y4432D1*
X14226D1*
X14197Y4447D1*
X14169Y4475D1*
X14154Y4518D1*
Y4547D1*
X14169Y4590D1*
X14197Y4619D1*
X14226Y4633D1*
X14269D1*
X14018Y4733D2*
Y4489D1*
X14004Y4447D1*
X13975Y4432D1*
X13947D1*
X14061Y4633D2*
X13961D1*
X13782D2*
X13811Y4619D1*
X13840Y4590D1*
X13854Y4547D1*
Y4518D1*
X13840Y4475D1*
X13811Y4447D1*
X13782Y4432D1*
X13739D1*
X13710Y4447D1*
X13682Y4475D1*
X13667Y4518D1*
Y4547D1*
X13682Y4590D1*
X13710Y4619D1*
X13739Y4633D1*
X13782D1*
X13575D2*
Y4432D1*
Y4547D2*
X13560Y4590D1*
X13531Y4619D1*
X13503Y4633D1*
X13459D1*
X13209Y4590D2*
X13223Y4619D1*
X13266Y4633D1*
X13309D1*
X13353Y4619D1*
X13367Y4590D1*
X13353Y4561D1*
X13324Y4547D1*
X13252Y4532D1*
X13223Y4518D1*
X13209Y4489D1*
Y4475D1*
X13223Y4447D1*
X13266Y4432D1*
X13309D1*
X13353Y4447D1*
X13367Y4475D1*
X13116Y4633D2*
Y4332D1*
Y4590D2*
X13088Y4618D1*
X13059Y4633D1*
X13016D1*
X12987Y4618D1*
X12959Y4590D1*
X12944Y4547D1*
Y4518D1*
X12959Y4475D1*
X12987Y4446D1*
X13016Y4432D1*
X13059D1*
X13088Y4446D1*
X13116Y4475D1*
X12780Y4633D2*
X12808Y4619D1*
X12837Y4590D1*
X12851Y4547D1*
Y4518D1*
X12837Y4475D1*
X12808Y4447D1*
X12780Y4432D1*
X12737D1*
X12708Y4447D1*
X12679Y4475D1*
X12665Y4518D1*
Y4547D1*
X12679Y4590D1*
X12708Y4619D1*
X12737Y4633D1*
X12780D1*
X12572D2*
Y4432D1*
Y4547D2*
X12557Y4590D1*
X12529Y4619D1*
X12500Y4633D1*
X12457D1*
X12321Y4733D2*
Y4489D1*
X12307Y4447D1*
X12278Y4432D1*
X12250D1*
X12364Y4633D2*
X12264D1*
M02*
