G04 DipTrace 2.4.0.2*
%INBottom.gbr*%
%MOIN*%
%ADD13C,0.007*%
%ADD15C,0.03*%
%ADD17C,0.015*%
%ADD22C,0.05*%
%ADD23R,0.05X0.05*%
%ADD27R,0.0669X0.0669*%
%ADD28C,0.0669*%
%ADD32R,0.0748X0.0748*%
%ADD33C,0.0748*%
%ADD41C,0.025*%
%FSLAX44Y44*%
G04*
G70*
G90*
G75*
G01*
%LNBottom*%
%LPD*%
X10196Y12405D2*
D13*
X12341D1*
X13191Y13256D1*
X15055D1*
X9407Y12139D2*
Y12082D1*
X9485Y12161D1*
X12448D1*
X12917Y12629D1*
X16620D1*
X17246Y13256D1*
X9829Y12417D2*
Y13000D1*
X9755Y13074D1*
Y14747D1*
X10455Y15447D1*
X15055D1*
X23437Y16096D2*
X23352D1*
X22860Y15604D1*
X20484D1*
X20211Y15332D1*
X16877D1*
X16123Y14578D1*
X21215Y15045D2*
X22386D1*
X22437Y15096D1*
X13042Y12254D2*
X17912D1*
X18497Y12838D1*
X21691D1*
X21925Y12605D1*
X22627D1*
X22977Y12955D1*
Y13636D1*
X23437Y14096D1*
X6942Y7047D2*
Y8060D1*
X7755Y8873D1*
X23852D1*
X24096Y9117D1*
Y12436D1*
X23437Y13096D1*
Y19096D2*
X23266D1*
X22796Y18626D1*
X22251D1*
X21657Y19220D1*
X7309D1*
X7051Y18963D1*
Y17735D1*
X5021Y15705D1*
Y11652D1*
X6333Y10341D1*
X22437Y19096D2*
X22583D1*
X22251Y19427D1*
X7252D1*
X6779Y18954D1*
Y17897D1*
X4665Y15783D1*
Y11606D1*
X6341Y9930D1*
X10252Y13093D2*
Y14239D1*
X10874Y14861D1*
X11402D1*
X12044Y14220D1*
X16422D1*
X16837Y14635D1*
X22976D1*
X23437Y15096D1*
X22437Y14096D2*
X17013D1*
X16768Y13851D1*
X11781D1*
X11119Y14514D1*
X8874Y9591D2*
X14937D1*
X17865Y10338D2*
X20680D1*
X22437Y12096D1*
X8187Y4937D2*
Y8049D1*
X8361Y8223D1*
X23437Y18096D2*
X23157D1*
X22681Y17620D1*
X21447D1*
X21251Y17816D1*
X7836D1*
X5478Y15458D1*
Y11962D1*
X7023Y10417D1*
X7348D1*
X8405Y9360D1*
X7466Y7055D2*
Y6988D1*
X7210Y6732D1*
Y6108D1*
Y4960D1*
X7187Y4937D1*
X22437Y18096D2*
X7709D1*
X5234Y15621D1*
Y11881D1*
X6942Y10174D1*
Y8466D1*
X6372Y7897D1*
Y6946D1*
X7210Y6108D1*
X15315Y12910D2*
X16427D1*
X17070Y13553D1*
X21980D1*
X22437Y13096D1*
Y16096D2*
X20776D1*
X20548Y16324D1*
X11120Y10137D2*
D15*
X13489D1*
X21938Y16582D2*
D13*
X19967D1*
X19687Y16302D1*
X19437Y16552D1*
Y16937D1*
X12764Y4732D2*
X12415Y4383D1*
X10741D1*
X10187Y4937D1*
X22437Y10096D2*
X20960D1*
X19521D1*
X21931Y13834D2*
X19290D1*
X13532Y17437D2*
X11597D1*
X9248Y15088D1*
X14563Y16937D2*
X14063Y17437D1*
X13532D1*
X19437Y16937D2*
X14563D1*
X9034Y6713D2*
X8498D1*
X10187Y4937D2*
Y5560D1*
X9034Y6713D1*
X4401Y9972D2*
Y7592D1*
X5316Y6678D1*
X5722D1*
X6454Y5946D1*
Y4628D1*
X6762Y4320D1*
X8570D1*
X9187Y4937D1*
X4401Y9972D2*
Y16088D1*
X6535Y18222D1*
Y19035D1*
X7125Y19625D1*
X23669D1*
X24096Y19198D1*
Y16840D1*
X23852Y16596D1*
X22936D1*
X22437Y17096D1*
D41*
X15055Y13256D3*
X17246D3*
X15055Y15447D3*
X9407Y12139D3*
X9829Y12417D3*
X10196Y12405D3*
X7466Y7055D3*
X4401Y9972D3*
X8361Y8223D3*
X17865Y10338D3*
X15315Y12910D3*
X21215Y15045D3*
X6942Y7047D3*
X16123Y14578D3*
X13042Y12254D3*
X11119Y14514D3*
X10252Y13093D3*
X20548Y16324D3*
X6341Y9930D3*
X6333Y10341D3*
X8405Y9360D3*
X17362Y12676D3*
X18553Y13087D3*
X10173Y16785D3*
X8919Y16685D3*
X13176Y14610D3*
X14937Y9591D3*
X8874D3*
X13489Y10137D3*
X11120D3*
X9248Y15088D3*
X8498Y6713D3*
X19521Y10096D3*
X19290Y13834D3*
X12764Y4732D3*
X21931Y13834D3*
X14563Y16937D3*
X9034Y6713D3*
X13532Y17437D3*
X21938Y16582D3*
X5958Y19591D2*
D17*
X5889Y19522D1*
X4352Y17985D2*
X4283Y17916D1*
X6383Y19591D2*
X6090Y19299D1*
X4575Y17784D2*
X4283Y17491D1*
X6282Y19067D2*
X6227Y19012D1*
X4862Y17647D2*
X4283Y17067D1*
X5242Y17602D2*
X4283Y16643D1*
X9574Y18964D2*
X9282Y18672D1*
X8168Y17559D2*
X5735Y15126D1*
X9998Y18964D2*
X9386Y18352D1*
X8593Y17559D2*
X5735Y14701D1*
X10422Y18964D2*
X9810Y18352D1*
X9017Y17559D2*
X5735Y14277D1*
X10847Y18964D2*
X10235Y18352D1*
X9441Y17559D2*
X5735Y13853D1*
X11271Y18964D2*
X10659Y18352D1*
X9866Y17559D2*
X5735Y13428D1*
X11592Y18861D2*
X11083Y18352D1*
X10290Y17559D2*
X5735Y13004D1*
X11592Y18437D2*
X11508Y18352D1*
X10714Y17559D2*
X5735Y12580D1*
X11138Y17559D2*
X5735Y12156D1*
X4741Y11162D2*
X4656Y11077D1*
X11563Y17559D2*
X5906Y11902D1*
X4953Y10950D2*
X4656Y10653D1*
X11987Y17559D2*
X6118Y11690D1*
X5165Y10737D2*
X4656Y10228D1*
X13816Y18964D2*
X13748Y18896D1*
X12411Y17559D2*
X10556Y15704D1*
X9499Y14647D2*
X6330Y11478D1*
X5378Y10525D2*
X4731Y9879D1*
X14241Y18964D2*
X13728Y18452D1*
X12835Y17559D2*
X10981Y15704D1*
X9499Y14223D2*
X6542Y11266D1*
X5590Y10313D2*
X4656Y9380D1*
X14665Y18964D2*
X14053Y18352D1*
X13260Y17559D2*
X11405Y15704D1*
X10891Y15190D2*
X10805Y15104D1*
X9499Y13798D2*
X6754Y11054D1*
X5802Y10101D2*
X4656Y8955D1*
X15089Y18964D2*
X14477Y18352D1*
X13684Y17559D2*
X11829Y15704D1*
X11316Y15190D2*
X11242Y15117D1*
X9499Y13374D2*
X6967Y10841D1*
X5997Y9872D2*
X4656Y8531D1*
X15514Y18964D2*
X14902Y18352D1*
X14108Y17559D2*
X12253Y15704D1*
X11740Y15190D2*
X11590Y15041D1*
X10845Y14296D2*
X10508Y13959D1*
X9517Y12968D2*
X7223Y10674D1*
X6173Y9624D2*
X4656Y8107D1*
X15938Y18964D2*
X15326Y18352D1*
X14532Y17559D2*
X12678Y15704D1*
X12164Y15190D2*
X11803Y14829D1*
X11118Y14145D2*
X10508Y13535D1*
X9508Y12534D2*
X9457Y12483D1*
X9062Y12088D2*
X7553Y10580D1*
X6685Y9712D2*
X4668Y7694D1*
X16092Y18694D2*
X15750Y18352D1*
X14957Y17559D2*
X13102Y15704D1*
X12588Y15190D2*
X12015Y14617D1*
X11331Y13933D2*
X10588Y13190D1*
X9232Y11835D2*
X7765Y10367D1*
X7398Y10000D2*
X7199Y9801D1*
X6685Y9287D2*
X4880Y7482D1*
X4511Y7113D2*
X4283Y6885D1*
X15381Y17559D2*
X13526Y15704D1*
X13013Y15190D2*
X12298Y14476D1*
X11543Y13720D2*
X10483Y12661D1*
X9726Y11904D2*
X7978Y10155D1*
X7610Y9788D2*
X7199Y9376D1*
X6685Y8863D2*
X5092Y7270D1*
X4723Y6901D2*
X4283Y6460D1*
X15805Y17559D2*
X13950Y15704D1*
X13437Y15190D2*
X12722Y14476D1*
X11841Y13595D2*
X10908Y12661D1*
X10151Y11904D2*
X8190Y9943D1*
X7822Y9576D2*
X7199Y8952D1*
X6117Y7870D2*
X5304Y7058D1*
X4935Y6689D2*
X4283Y6036D1*
X16229Y17559D2*
X14375Y15704D1*
X13861Y15190D2*
X13147Y14476D1*
X12265Y13595D2*
X11332Y12661D1*
X10575Y11904D2*
X8402Y9731D1*
X8034Y9363D2*
X7800Y9129D1*
X6117Y7446D2*
X5604Y6934D1*
X5149Y6478D2*
X4903Y6233D1*
X16654Y17559D2*
X14799Y15704D1*
X14285Y15190D2*
X13571Y14476D1*
X12690Y13595D2*
X11756Y12661D1*
X10999Y11904D2*
X9008Y9913D1*
X6685Y7590D2*
X6629Y7534D1*
X6117Y7022D2*
X5932Y6837D1*
X5517Y6422D2*
X5357Y6262D1*
X18483Y18964D2*
X18279Y18760D1*
X17078Y17559D2*
X15255Y15735D1*
X14710Y15190D2*
X13995Y14476D1*
X13114Y13595D2*
X12180Y12661D1*
X11423Y11904D2*
X9366Y9847D1*
X8775Y9256D2*
X8659Y9139D1*
X8135Y8616D2*
X7199Y7679D1*
X6234Y6715D2*
X6145Y6625D1*
X5775Y6256D2*
X5679Y6160D1*
X18908Y18964D2*
X18296Y18352D1*
X17502Y17559D2*
X15402Y15459D1*
X15045Y15101D2*
X14419Y14476D1*
X13538Y13595D2*
X13456Y13513D1*
X11848Y11904D2*
X9791Y9847D1*
X9277Y9334D2*
X9073Y9129D1*
X8560Y8616D2*
X8491Y8548D1*
X7930Y7986D2*
X7283Y7340D1*
X6447Y6503D2*
X6357Y6413D1*
X5987Y6044D2*
X5930Y5987D1*
X4388Y4445D2*
X4283Y4339D1*
X19332Y18964D2*
X18720Y18352D1*
X17927Y17559D2*
X14844Y14476D1*
X13962Y13595D2*
X13881Y13513D1*
X13367Y13000D2*
X13254Y12887D1*
X12272Y11904D2*
X10215Y9847D1*
X9701Y9334D2*
X9497Y9129D1*
X8984Y8616D2*
X8695Y8327D1*
X7930Y7562D2*
X7691Y7323D1*
X6659Y6291D2*
X6569Y6201D1*
X6198Y5830D2*
X6120Y5752D1*
X19756Y18964D2*
X19144Y18352D1*
X18351Y17559D2*
X15268Y14476D1*
X14387Y13595D2*
X14305Y13513D1*
X13792Y13000D2*
X13679Y12887D1*
X12796Y12004D2*
X11300Y10508D1*
X10777Y9985D2*
X10639Y9847D1*
X10126Y9334D2*
X9922Y9129D1*
X9408Y8616D2*
X8443Y7651D1*
X7930Y7138D2*
X7808Y7016D1*
X6871Y6079D2*
X6710Y5918D1*
X20180Y18964D2*
X19569Y18352D1*
X18775Y17559D2*
X16779Y15563D1*
X15777Y14561D2*
X15692Y14476D1*
X14811Y13595D2*
X14729Y13513D1*
X14216Y13000D2*
X14103Y12887D1*
X13142Y11926D2*
X11725Y10508D1*
X10550Y9334D2*
X10346Y9129D1*
X9832Y8616D2*
X8443Y7227D1*
X7930Y6713D2*
X7467Y6251D1*
X6954Y5737D2*
X6710Y5493D1*
X20605Y18964D2*
X19993Y18352D1*
X19199Y17559D2*
X17228Y15588D1*
X14640Y13000D2*
X14527Y12887D1*
X13637Y11997D2*
X12149Y10508D1*
X10974Y9334D2*
X10770Y9129D1*
X10257Y8616D2*
X8443Y6803D1*
X7930Y6289D2*
X7467Y5827D1*
X6203Y4562D2*
X5922Y4282D1*
X21029Y18964D2*
X20417Y18352D1*
X19624Y17559D2*
X17653Y15588D1*
X17141Y15076D2*
X16957Y14892D1*
X15659Y13595D2*
X15396Y13331D1*
X14062Y11997D2*
X12573Y10508D1*
X11398Y9334D2*
X11194Y9129D1*
X10681Y8616D2*
X8443Y6378D1*
X7930Y5865D2*
X7558Y5493D1*
X6389Y4324D2*
X6347Y4282D1*
X21453Y18964D2*
X20841Y18352D1*
X20048Y17559D2*
X18077Y15588D1*
X17565Y15076D2*
X17381Y14892D1*
X16084Y13595D2*
X15656Y13167D1*
X14486Y11997D2*
X12997Y10508D1*
X11823Y9334D2*
X11619Y9129D1*
X11105Y8616D2*
X8443Y5954D1*
X7930Y5441D2*
X7880Y5391D1*
X21712Y18798D2*
X21266Y18352D1*
X20472Y17559D2*
X19297Y16383D1*
X18990Y16077D2*
X18501Y15588D1*
X17989Y15076D2*
X17805Y14892D1*
X16508Y13595D2*
X16080Y13167D1*
X14910Y11997D2*
X13422Y10508D1*
X12247Y9334D2*
X12043Y9129D1*
X11529Y8616D2*
X8443Y5530D1*
X21924Y18586D2*
X21690Y18352D1*
X20896Y17559D2*
X19681Y16344D1*
X19030Y15693D2*
X18926Y15588D1*
X18414Y15076D2*
X18229Y14892D1*
X15335Y11997D2*
X13748Y10411D1*
X12671Y9334D2*
X12467Y9129D1*
X11954Y8616D2*
X8624Y5286D1*
X21229Y17468D2*
X20384Y16622D1*
X20250Y16488D2*
X19877Y16115D1*
X18838Y15076D2*
X18654Y14892D1*
X15759Y11997D2*
X13856Y10094D1*
X13096Y9334D2*
X12891Y9129D1*
X12378Y8616D2*
X9252Y5490D1*
X21549Y17363D2*
X20777Y16591D1*
X20282Y16095D2*
X19774Y15588D1*
X19262Y15076D2*
X19078Y14892D1*
X16183Y11997D2*
X14033Y9847D1*
X13520Y9334D2*
X13316Y9129D1*
X12802Y8616D2*
X9550Y5364D1*
X21938Y17327D2*
X20963Y16353D1*
X20557Y15947D2*
X20471Y15860D1*
X19686Y15075D2*
X19501Y14891D1*
X17907Y13297D2*
X17121Y12511D1*
X16608Y11998D2*
X14458Y9848D1*
X13945Y9334D2*
X13739Y9128D1*
X13227Y8617D2*
X9718Y5108D1*
X9016Y4406D2*
X8893Y4283D1*
X21920Y16885D2*
X21387Y16353D1*
X20110Y15075D2*
X19926Y14891D1*
X18332Y13297D2*
X17546Y12511D1*
X17032Y11998D2*
X14970Y9936D1*
X14369Y9334D2*
X14163Y9128D1*
X13651Y8617D2*
X9317Y4283D1*
X23104Y17646D2*
X22887Y17428D1*
X22103Y16645D2*
X21811Y16353D1*
X20807Y15349D2*
X20350Y14891D1*
X18756Y13297D2*
X18553Y13094D1*
X17456Y11998D2*
X15234Y9775D1*
X14752Y9293D2*
X14587Y9128D1*
X14076Y8617D2*
X9741Y4283D1*
X23423Y17539D2*
X22993Y17110D1*
X20872Y14989D2*
X20774Y14891D1*
X19180Y13297D2*
X18978Y13094D1*
X17881Y11998D2*
X15012Y9128D1*
X14500Y8617D2*
X11354Y5471D1*
X10653Y4770D2*
X10166Y4283D1*
X23840Y17533D2*
X23161Y16853D1*
X21656Y15349D2*
X21609Y15302D1*
X19604Y13297D2*
X19402Y13094D1*
X18882Y12574D2*
X15436Y9128D1*
X14924Y8617D2*
X11611Y5303D1*
X10821Y4513D2*
X10590Y4283D1*
X23840Y17109D2*
X23585Y16853D1*
X20029Y13297D2*
X19826Y13094D1*
X18882Y12150D2*
X15860Y9128D1*
X15348Y8617D2*
X11740Y5008D1*
X11116Y4384D2*
X11014Y4283D1*
X20453Y13297D2*
X20250Y13094D1*
X18882Y11726D2*
X17839Y10683D1*
X17521Y10365D2*
X16284Y9128D1*
X15773Y8617D2*
X11439Y4283D1*
X20877Y13297D2*
X20675Y13094D1*
X19212Y11631D2*
X18175Y10595D1*
X17645Y10065D2*
X16709Y9128D1*
X16197Y8617D2*
X13848Y6268D1*
X13297Y5716D2*
X11863Y4283D1*
X24091Y16087D2*
X23976Y15971D1*
X21301Y13297D2*
X21099Y13094D1*
X19636Y11631D2*
X18600Y10595D1*
X18086Y10082D2*
X17133Y9128D1*
X16621Y8617D2*
X14037Y6033D1*
X13532Y5528D2*
X12287Y4283D1*
X24091Y15663D2*
X23875Y15446D1*
X21726Y13297D2*
X21523Y13094D1*
X21011Y12583D2*
X20912Y12483D1*
X20141Y11712D2*
X19024Y10595D1*
X18511Y10082D2*
X17557Y9128D1*
X17045Y8617D2*
X12711Y4283D1*
X24091Y15238D2*
X23992Y15139D1*
X21436Y12583D2*
X20989Y12136D1*
X20488Y11635D2*
X19448Y10595D1*
X18935Y10082D2*
X17981Y9128D1*
X17470Y8617D2*
X13136Y4283D1*
X24091Y14814D2*
X23800Y14523D1*
X21719Y12442D2*
X19872Y10595D1*
X19359Y10082D2*
X18406Y9128D1*
X17894Y8617D2*
X15557Y6280D1*
X15017Y5740D2*
X13560Y4283D1*
X24091Y14390D2*
X23969Y14268D1*
X21891Y12190D2*
X20297Y10595D1*
X19783Y10082D2*
X18830Y9128D1*
X18318Y8617D2*
X15761Y6059D1*
X15237Y5536D2*
X13984Y4283D1*
X24091Y13966D2*
X23711Y13585D1*
X20208Y10082D2*
X19254Y9128D1*
X18743Y8617D2*
X14408Y4283D1*
X24091Y13541D2*
X23923Y13373D1*
X23159Y12609D2*
X22924Y12373D1*
X20632Y10082D2*
X19679Y9128D1*
X19167Y8617D2*
X14833Y4283D1*
X24091Y13117D2*
X23984Y13010D1*
X21903Y10929D2*
X20103Y9128D1*
X19591Y8617D2*
X15257Y4283D1*
X23070Y11671D2*
X22861Y11462D1*
X22070Y10672D2*
X20527Y9128D1*
X20015Y8617D2*
X15681Y4283D1*
X22365Y10542D2*
X20951Y9128D1*
X20440Y8617D2*
X16105Y4283D1*
X22997Y10750D2*
X21376Y9128D1*
X20864Y8617D2*
X16530Y4283D1*
X22881Y10209D2*
X21800Y9128D1*
X21288Y8617D2*
X16954Y4283D1*
X22881Y9785D2*
X22224Y9128D1*
X21712Y8617D2*
X17378Y4283D1*
X23060Y9540D2*
X22648Y9128D1*
X22137Y8617D2*
X17803Y4283D1*
X23484Y9540D2*
X23073Y9128D1*
X22561Y8617D2*
X18227Y4283D1*
X23840Y9472D2*
X23497Y9128D1*
X22985Y8617D2*
X18651Y4283D1*
X23409Y8617D2*
X19075Y4283D1*
X23834Y8617D2*
X19500Y4283D1*
X24091Y8450D2*
X19924Y4283D1*
X24091Y8026D2*
X20348Y4283D1*
X24091Y7602D2*
X22537Y6048D1*
X22327Y5837D2*
X20772Y4283D1*
X24091Y7177D2*
X23187Y6273D1*
X22100Y5186D2*
X21197Y4283D1*
X24091Y6753D2*
X23552Y6213D1*
X22160Y4822D2*
X21621Y4283D1*
X24091Y6329D2*
X23830Y6067D1*
X22306Y4543D2*
X22045Y4283D1*
X24091Y5905D2*
X24046Y5859D1*
X22515Y4328D2*
X22470Y4283D1*
X23598Y17560D2*
X23840Y17318D1*
X23083Y17652D2*
X23810Y16924D1*
X21346Y18964D2*
X21946Y18364D1*
X22870Y17439D2*
X23457Y16852D1*
X23953Y16357D2*
X24091Y16219D1*
X20922Y18964D2*
X21533Y18352D1*
X22967Y16919D2*
X23033Y16852D1*
X23968Y15918D2*
X24091Y15794D1*
X20497Y18964D2*
X21109Y18352D1*
X23795Y15666D2*
X24091Y15370D1*
X20073Y18964D2*
X20685Y18352D1*
X21674Y17363D2*
X21883Y17154D1*
X23991Y15046D2*
X24091Y14946D1*
X19649Y18964D2*
X20261Y18352D1*
X21054Y17559D2*
X22084Y16529D1*
X23871Y14741D2*
X24091Y14521D1*
X19224Y18964D2*
X19836Y18352D1*
X20630Y17559D2*
X21837Y16352D1*
X23979Y14209D2*
X24091Y14097D1*
X18800Y18964D2*
X19412Y18352D1*
X20206Y17559D2*
X21412Y16352D1*
X23931Y13833D2*
X24091Y13673D1*
X18376Y18964D2*
X18988Y18352D1*
X19781Y17559D2*
X20731Y16609D1*
X20832Y16508D2*
X20988Y16352D1*
X23724Y13616D2*
X24091Y13249D1*
X18281Y18634D2*
X18564Y18352D1*
X19357Y17559D2*
X20322Y16594D1*
X21568Y15348D2*
X21614Y15302D1*
X23974Y12942D2*
X24091Y12824D1*
X18933Y17559D2*
X20204Y16287D1*
X20511Y15981D2*
X20630Y15861D1*
X18509Y17559D2*
X20289Y15778D1*
X20719Y15348D2*
X20890Y15177D1*
X18084Y17559D2*
X19265Y16378D1*
X19879Y15764D2*
X20055Y15588D1*
X20446Y15197D2*
X20751Y14892D1*
X23016Y12627D2*
X23100Y12543D1*
X17660Y17559D2*
X19033Y16186D1*
X20143Y15076D2*
X20327Y14892D1*
X15830Y18964D2*
X16091Y18704D1*
X17236Y17559D2*
X18988Y15807D1*
X19718Y15076D2*
X19903Y14892D1*
X21498Y13296D2*
X21701Y13094D1*
X15406Y18964D2*
X16018Y18352D1*
X16811Y17559D2*
X18782Y15588D1*
X19294Y15076D2*
X19478Y14892D1*
X21074Y13296D2*
X21275Y13095D1*
X22743Y11627D2*
X22969Y11402D1*
X14982Y18964D2*
X15594Y18352D1*
X16387Y17559D2*
X18358Y15588D1*
X18870Y15076D2*
X19054Y14892D1*
X20650Y13296D2*
X20851Y13095D1*
X21364Y12582D2*
X21883Y12063D1*
X14558Y18964D2*
X15169Y18352D1*
X15963Y17559D2*
X17934Y15588D1*
X18446Y15076D2*
X18630Y14892D1*
X20225Y13296D2*
X20426Y13095D1*
X20940Y12582D2*
X21747Y11775D1*
X22827Y10694D2*
X22881Y10641D1*
X14133Y18964D2*
X14745Y18352D1*
X15539Y17559D2*
X17510Y15588D1*
X18021Y15076D2*
X18206Y14892D1*
X19801Y13296D2*
X20002Y13095D1*
X20989Y12108D2*
X21535Y11562D1*
X22549Y10548D2*
X22881Y10217D1*
X23558Y9539D2*
X23840Y9257D1*
X13709Y18964D2*
X14321Y18352D1*
X15114Y17559D2*
X17085Y15588D1*
X17597Y15076D2*
X17781Y14892D1*
X19377Y13296D2*
X19578Y13095D1*
X20857Y11816D2*
X21323Y11350D1*
X21692Y10981D2*
X22881Y9792D1*
X23134Y9539D2*
X23544Y9129D1*
X24009Y8664D2*
X24091Y8582D1*
X13754Y18495D2*
X13897Y18352D1*
X14690Y17559D2*
X16714Y15535D1*
X17173Y15076D2*
X17357Y14892D1*
X18953Y13296D2*
X19154Y13095D1*
X20597Y11652D2*
X21111Y11138D1*
X21480Y10769D2*
X23119Y9129D1*
X23633Y8616D2*
X24091Y8157D1*
X14266Y17559D2*
X16500Y15324D1*
X16869Y14955D2*
X16933Y14892D1*
X18528Y13296D2*
X18729Y13095D1*
X19993Y11831D2*
X20899Y10926D1*
X21268Y10557D2*
X22695Y9129D1*
X23209Y8616D2*
X24091Y7733D1*
X13842Y17559D2*
X16288Y15112D1*
X18104Y13296D2*
X18348Y13052D1*
X18818Y12582D2*
X18881Y12520D1*
X19770Y11631D2*
X20687Y10714D1*
X21056Y10345D2*
X22271Y9129D1*
X22784Y8616D2*
X24091Y7309D1*
X13417Y17559D2*
X15266Y15711D1*
X15319Y15658D2*
X16056Y14920D1*
X17680Y13296D2*
X18133Y12843D1*
X18502Y12474D2*
X18882Y12094D1*
X19345Y11631D2*
X20382Y10595D1*
X20842Y10134D2*
X21847Y9129D1*
X22360Y8616D2*
X24091Y6885D1*
X12993Y17559D2*
X14833Y15719D1*
X15327Y15225D2*
X15812Y14739D1*
X17517Y13034D2*
X17921Y12631D1*
X18290Y12262D2*
X18882Y11670D1*
X18920Y11631D2*
X19957Y10595D1*
X20469Y10083D2*
X21422Y9129D1*
X21936Y8616D2*
X24091Y6460D1*
X11163Y18964D2*
X11591Y18536D1*
X12569Y17559D2*
X14424Y15704D1*
X15025Y15103D2*
X15652Y14476D1*
X16533Y13595D2*
X16638Y13490D1*
X17244Y12884D2*
X17617Y12510D1*
X18076Y12052D2*
X19533Y10595D1*
X20045Y10083D2*
X20998Y9129D1*
X21512Y8616D2*
X24091Y6036D1*
X10739Y18964D2*
X11351Y18352D1*
X12145Y17559D2*
X13999Y15704D1*
X14513Y15190D2*
X15227Y14476D1*
X16109Y13595D2*
X16426Y13278D1*
X17032Y12671D2*
X17193Y12510D1*
X17706Y11997D2*
X19109Y10595D1*
X19621Y10083D2*
X20574Y9129D1*
X21087Y8616D2*
X23471Y6233D1*
X10315Y18964D2*
X10927Y18352D1*
X11720Y17559D2*
X13575Y15704D1*
X14089Y15190D2*
X14803Y14476D1*
X15685Y13595D2*
X16112Y13167D1*
X17282Y11997D2*
X18685Y10595D1*
X19196Y10083D2*
X20150Y9129D1*
X20663Y8616D2*
X23017Y6262D1*
X9891Y18964D2*
X10503Y18352D1*
X11296Y17559D2*
X13151Y15704D1*
X13664Y15190D2*
X14379Y14476D1*
X15260Y13595D2*
X15688Y13167D1*
X16858Y11997D2*
X18260Y10595D1*
X18772Y10083D2*
X19725Y9129D1*
X20239Y8616D2*
X22695Y6160D1*
X9466Y18964D2*
X10078Y18352D1*
X10872Y17559D2*
X12727Y15704D1*
X13240Y15190D2*
X13955Y14476D1*
X14836Y13595D2*
X14874Y13557D1*
X16434Y11997D2*
X17760Y10671D1*
X18348Y10083D2*
X19301Y9129D1*
X19814Y8616D2*
X22445Y5986D1*
X23986Y4445D2*
X24091Y4339D1*
X9281Y18725D2*
X9654Y18352D1*
X10447Y17559D2*
X12302Y15704D1*
X12816Y15190D2*
X13530Y14476D1*
X14412Y13595D2*
X14493Y13513D1*
X16009Y11997D2*
X17539Y10467D1*
X17993Y10013D2*
X18877Y9129D1*
X19390Y8616D2*
X22254Y5752D1*
X10023Y17559D2*
X11878Y15704D1*
X12391Y15190D2*
X13106Y14476D1*
X13987Y13595D2*
X14069Y13513D1*
X14582Y13000D2*
X14695Y12887D1*
X15585Y11997D2*
X18453Y9129D1*
X18966Y8616D2*
X22130Y5452D1*
X9599Y17559D2*
X11454Y15704D1*
X11967Y15190D2*
X12682Y14476D1*
X13563Y13595D2*
X13645Y13513D1*
X14158Y13000D2*
X14271Y12887D1*
X15161Y11997D2*
X18028Y9129D1*
X18542Y8616D2*
X22110Y5048D1*
X9175Y17559D2*
X11030Y15704D1*
X11543Y15190D2*
X12258Y14476D1*
X13139Y13595D2*
X13220Y13513D1*
X13734Y13000D2*
X13847Y12887D1*
X14737Y11997D2*
X17604Y9129D1*
X18117Y8616D2*
X22452Y4282D1*
X8750Y17559D2*
X10605Y15704D1*
X11119Y15190D2*
X11192Y15117D1*
X12715Y13595D2*
X12937Y13372D1*
X13310Y13000D2*
X13423Y12887D1*
X14312Y11997D2*
X17180Y9129D1*
X17693Y8616D2*
X22027Y4282D1*
X6294Y19591D2*
X6508Y19376D1*
X8326Y17559D2*
X10262Y15623D1*
X10694Y15190D2*
X10781Y15104D1*
X12290Y13595D2*
X12725Y13160D1*
X13888Y11997D2*
X16755Y9129D1*
X17269Y8616D2*
X21603Y4282D1*
X5869Y19591D2*
X6305Y19156D1*
X7925Y17536D2*
X10050Y15411D1*
X10419Y15041D2*
X10552Y14908D1*
X11866Y13595D2*
X12513Y12948D1*
X13464Y11997D2*
X16331Y9129D1*
X16845Y8616D2*
X21179Y4282D1*
X7713Y17323D2*
X9838Y15198D1*
X10207Y14829D2*
X10340Y14696D1*
X10709Y14327D2*
X12301Y12736D1*
X13122Y11914D2*
X15907Y9129D1*
X16420Y8616D2*
X20754Y4282D1*
X6231Y18381D2*
X6278Y18334D1*
X7501Y17111D2*
X9626Y14986D1*
X10012Y14601D2*
X10128Y14484D1*
X10509Y14103D2*
X11951Y12661D1*
X12635Y11977D2*
X14735Y9877D1*
X15224Y9388D2*
X15483Y9129D1*
X15996Y8616D2*
X20330Y4282D1*
X7289Y16899D2*
X9498Y14690D1*
X10509Y13679D2*
X11527Y12661D1*
X12284Y11904D2*
X14341Y9847D1*
X14944Y9244D2*
X15058Y9129D1*
X15572Y8616D2*
X19906Y4282D1*
X4283Y19481D2*
X4362Y19402D1*
X7076Y16688D2*
X9499Y14264D1*
X10584Y13179D2*
X11102Y12662D1*
X11859Y11905D2*
X13255Y10509D1*
X13814Y9949D2*
X13916Y9848D1*
X14429Y9334D2*
X14635Y9128D1*
X15147Y8617D2*
X19481Y4283D1*
X6864Y16476D2*
X9499Y13840D1*
X10497Y12843D2*
X10678Y12662D1*
X11435Y11905D2*
X12830Y10509D1*
X14005Y9334D2*
X14211Y9128D1*
X14723Y8617D2*
X19057Y4283D1*
X5309Y17606D2*
X5429Y17486D1*
X6652Y16263D2*
X9499Y13416D1*
X11010Y11905D2*
X12406Y10509D1*
X13581Y9334D2*
X13787Y9128D1*
X14298Y8617D2*
X18633Y4283D1*
X4824Y17667D2*
X5217Y17274D1*
X6440Y16051D2*
X9536Y12955D1*
X10586Y11905D2*
X11982Y10509D1*
X13157Y9334D2*
X13362Y9128D1*
X13874Y8617D2*
X18208Y4283D1*
X4283Y17784D2*
X5005Y17062D1*
X6227Y15839D2*
X9509Y12557D1*
X10162Y11905D2*
X11558Y10509D1*
X12732Y9334D2*
X12938Y9128D1*
X13450Y8617D2*
X17784Y4283D1*
X4283Y17360D2*
X4793Y16850D1*
X6015Y15627D2*
X9213Y12430D1*
X9738Y11905D2*
X11133Y10509D1*
X12308Y9334D2*
X12514Y9128D1*
X13026Y8617D2*
X15330Y6313D1*
X15782Y5861D2*
X17360Y4283D1*
X4283Y16935D2*
X4580Y16638D1*
X5803Y15415D2*
X9060Y12158D1*
X9426Y11792D2*
X10835Y10383D1*
X11884Y9334D2*
X12090Y9128D1*
X12601Y8617D2*
X15059Y6159D1*
X15628Y5590D2*
X16935Y4283D1*
X4283Y16511D2*
X4368Y16425D1*
X5735Y15059D2*
X10772Y10022D1*
X11459Y9334D2*
X11665Y9128D1*
X12177Y8617D2*
X15005Y5789D1*
X15258Y5536D2*
X16511Y4283D1*
X5735Y14634D2*
X10522Y9848D1*
X11035Y9334D2*
X11241Y9128D1*
X11753Y8617D2*
X16087Y4283D1*
X5735Y14210D2*
X10098Y9848D1*
X10611Y9334D2*
X10817Y9128D1*
X11329Y8617D2*
X13631Y6314D1*
X14051Y5894D2*
X15663Y4283D1*
X5735Y13786D2*
X9673Y9848D1*
X10187Y9334D2*
X10393Y9128D1*
X10904Y8617D2*
X13342Y6178D1*
X13916Y5605D2*
X15238Y4283D1*
X5735Y13361D2*
X9249Y9848D1*
X9762Y9334D2*
X9968Y9128D1*
X10480Y8617D2*
X13258Y5839D1*
X13576Y5521D2*
X14814Y4283D1*
X5735Y12937D2*
X8753Y9919D1*
X9338Y9334D2*
X9544Y9128D1*
X10056Y8617D2*
X14390Y4283D1*
X5735Y12513D2*
X8545Y9704D1*
X8988Y9260D2*
X9120Y9128D1*
X9631Y8617D2*
X13966Y4283D1*
X5735Y12089D2*
X7151Y10673D1*
X9207Y8617D2*
X13541Y4283D1*
X7238Y10161D2*
X8061Y9339D1*
X8783Y8617D2*
X13117Y4283D1*
X7199Y9777D2*
X7847Y9128D1*
X8359Y8617D2*
X8410Y8565D1*
X8702Y8274D2*
X12693Y4283D1*
X7199Y9353D2*
X7532Y9019D1*
X7934Y8617D2*
X8097Y8454D1*
X8592Y7959D2*
X11069Y5482D1*
X11733Y4818D2*
X12269Y4283D1*
X6506Y9621D2*
X6685Y9442D1*
X7199Y8928D2*
X7320Y8807D1*
X7689Y8438D2*
X7956Y8171D1*
X8443Y7684D2*
X10792Y5335D1*
X11585Y4541D2*
X11844Y4283D1*
X4656Y11046D2*
X6685Y9017D1*
X7477Y8226D2*
X7930Y7773D1*
X8443Y7259D2*
X10643Y5060D1*
X11310Y4392D2*
X11420Y4283D1*
X4656Y10622D2*
X6685Y8593D1*
X7265Y8013D2*
X7930Y7349D1*
X8443Y6835D2*
X10996Y4283D1*
X4656Y10198D2*
X6480Y8374D1*
X7199Y7655D2*
X7452Y7402D1*
X7812Y7042D2*
X7930Y6924D1*
X8443Y6411D2*
X9416Y5438D1*
X9688Y5166D2*
X10571Y4283D1*
X4676Y9754D2*
X6268Y8162D1*
X6637Y7793D2*
X6686Y7744D1*
X7664Y6766D2*
X7930Y6500D1*
X8443Y5987D2*
X8976Y5454D1*
X9704Y4725D2*
X10147Y4283D1*
X4656Y9349D2*
X6117Y7889D1*
X6628Y7377D2*
X6685Y7321D1*
X7467Y6538D2*
X7930Y6076D1*
X8443Y5562D2*
X8735Y5270D1*
X9519Y4487D2*
X9723Y4283D1*
X4656Y8925D2*
X6117Y7465D1*
X7467Y6114D2*
X7930Y5651D1*
X9201Y4381D2*
X9299Y4283D1*
X4656Y8501D2*
X6117Y7040D1*
X7467Y5690D2*
X7665Y5492D1*
X7742Y5415D2*
X7807Y5350D1*
X4656Y8076D2*
X5828Y6904D1*
X6680Y6053D2*
X6954Y5779D1*
X6710Y5599D2*
X6816Y5492D1*
X5463Y6421D2*
X5837Y6048D1*
X6047Y5837D2*
X6198Y5686D1*
X4283Y7177D2*
X5187Y6273D1*
X4283Y6753D2*
X4822Y6213D1*
X4283Y6329D2*
X4544Y6067D1*
X6068Y4543D2*
X6329Y4283D1*
X4283Y5905D2*
X4329Y5859D1*
X5860Y4328D2*
X5904Y4283D1*
X19892Y15862D2*
X19874Y15790D1*
X19844Y15721D1*
X19804Y15658D1*
X19754Y15602D1*
X19727Y15578D1*
X20109D1*
X20310Y15778D1*
X20370Y15823D1*
X20461Y15849D1*
X20756Y15851D1*
X20683Y15868D1*
X20602Y15922D1*
X20535Y15990D1*
X20476Y15996D1*
X20405Y16020D1*
X20341Y16060D1*
X20288Y16112D1*
X20247Y16175D1*
X20221Y16245D1*
X20212Y16319D1*
X20219Y16394D1*
X20242Y16465D1*
X20281Y16529D1*
X20333Y16583D1*
X20395Y16624D1*
X20465Y16650D1*
X20540Y16660D1*
X20614Y16654D1*
X20685Y16631D1*
X20750Y16593D1*
X20804Y16541D1*
X20846Y16479D1*
X20873Y16409D1*
X20882Y16342D1*
X21951D1*
X21978Y16390D1*
X22022Y16450D1*
X22075Y16504D1*
X22134Y16550D1*
X22219Y16595D1*
X22116Y16654D1*
X22059Y16703D1*
X22008Y16758D1*
X21966Y16820D1*
X21933Y16887D1*
X21909Y16958D1*
X21895Y17032D1*
X21892Y17107D1*
X21898Y17181D1*
X21915Y17254D1*
X21942Y17324D1*
X21970Y17376D1*
X21481Y17374D1*
X21373Y17385D1*
X21290Y17431D1*
X21149Y17570D1*
X7936D1*
X6843Y16475D1*
X5724Y15357D1*
Y12062D1*
X6607Y11181D1*
X7125Y10663D1*
X7348D1*
X7422Y10652D1*
X7505Y10607D1*
X8419Y9695D1*
X8472Y9690D1*
X8545Y9666D1*
X8569Y9731D1*
X8608Y9795D1*
X8660Y9849D1*
X8722Y9890D1*
X8792Y9916D1*
X8866Y9926D1*
X8941Y9920D1*
X9012Y9897D1*
X9077Y9859D1*
X9099Y9838D1*
X10674Y9836D1*
X10920D1*
X10853Y9894D1*
X10809Y9954D1*
X10778Y10023D1*
X10762Y10096D1*
X10761Y10170D1*
X10775Y10244D1*
X10805Y10313D1*
X10848Y10374D1*
X10902Y10425D1*
X10966Y10464D1*
X11037Y10489D1*
X11120Y10498D1*
X13489D1*
X13563Y10491D1*
X13635Y10468D1*
X13700Y10430D1*
X13755Y10381D1*
X13800Y10320D1*
X13831Y10252D1*
X13847Y10179D1*
X13848Y10104D1*
X13834Y10031D1*
X13804Y9962D1*
X13761Y9901D1*
X13707Y9850D1*
X13685Y9836D1*
X14708D1*
X14785Y9890D1*
X14855Y9916D1*
X14929Y9926D1*
X15004Y9920D1*
X15075Y9897D1*
X15139Y9859D1*
X15194Y9807D1*
X15235Y9745D1*
X15262Y9675D1*
X15273Y9591D1*
X15265Y9516D1*
X15240Y9445D1*
X15200Y9382D1*
X15148Y9329D1*
X15084Y9289D1*
X15014Y9264D1*
X14940Y9255D1*
X14865Y9262D1*
X14794Y9286D1*
X14731Y9326D1*
X14712Y9343D1*
X11262Y9345D1*
X9103D1*
X9022Y9289D1*
X8951Y9264D1*
X8877Y9255D1*
X8803Y9262D1*
X8734Y9286D1*
X8708Y9215D1*
X8668Y9152D1*
X8634Y9117D1*
X9255Y9119D1*
X23751D1*
X23849Y9217D1*
X23850Y9550D1*
X22891D1*
Y10641D1*
X23138D1*
X23059Y10703D1*
X23008Y10758D1*
X22966Y10820D1*
X22937Y10877D1*
X22902Y10811D1*
X22859Y10750D1*
X22807Y10695D1*
X22749Y10648D1*
X22685Y10610D1*
X22616Y10580D1*
X22543Y10561D1*
X22469Y10551D1*
X22394Y10552D1*
X22320Y10563D1*
X22248Y10584D1*
X22180Y10615D1*
X22116Y10654D1*
X22059Y10703D1*
X22008Y10758D1*
X21966Y10820D1*
X21933Y10887D1*
X21909Y10958D1*
X21895Y11032D1*
X21892Y11107D1*
X21906Y11216D1*
X20854Y10165D1*
X20793Y10120D1*
X20702Y10094D1*
X18430Y10092D1*
X18095D1*
X18012Y10037D1*
X17942Y10011D1*
X17867Y10003D1*
X17793Y10010D1*
X17722Y10034D1*
X17658Y10073D1*
X17605Y10126D1*
X17564Y10189D1*
X17538Y10259D1*
X17529Y10333D1*
X17536Y10408D1*
X17559Y10479D1*
X17598Y10543D1*
X17650Y10597D1*
X17712Y10638D1*
X17783Y10664D1*
X17857Y10674D1*
X17931Y10668D1*
X18003Y10645D1*
X18067Y10607D1*
X18089Y10586D1*
X19665Y10584D1*
X20576D1*
X21919Y11926D1*
X21895Y12032D1*
X21892Y12107D1*
X21898Y12181D1*
X21915Y12254D1*
X21961Y12359D1*
X21925D1*
X21851Y12370D1*
X21768Y12415D1*
X21591Y12591D1*
X20803Y12592D1*
X20872Y12516D1*
X20913Y12453D1*
X20945Y12385D1*
X20968Y12314D1*
X20983Y12187D1*
X20977Y12112D1*
X20962Y12039D1*
X20937Y11968D1*
X20902Y11902D1*
X20859Y11841D1*
X20807Y11786D1*
X20749Y11739D1*
X20685Y11701D1*
X20616Y11672D1*
X20543Y11652D1*
X20469Y11642D1*
X20394Y11643D1*
X20320Y11654D1*
X20248Y11675D1*
X20180Y11706D1*
X20116Y11746D1*
X20059Y11794D1*
X20008Y11849D1*
X19983Y11886D1*
Y11641D1*
X18891D1*
Y12591D1*
X18600Y12592D1*
X18086Y12080D1*
X18026Y12036D1*
X17935Y12009D1*
X15662Y12008D1*
X13269D1*
X13190Y11952D1*
X13119Y11927D1*
X13045Y11918D1*
X12971Y11926D1*
X12900Y11950D1*
X12836Y11989D1*
X12782Y12041D1*
X12741Y12106D1*
X12622Y11987D1*
X12562Y11942D1*
X12471Y11916D1*
X10198Y11915D1*
X9657D1*
X9617Y11877D1*
X9554Y11837D1*
X9484Y11812D1*
X9409Y11803D1*
X9335Y11811D1*
X9264Y11835D1*
X9200Y11874D1*
X9147Y11926D1*
X9106Y11989D1*
X9080Y12059D1*
X9071Y12133D1*
X9078Y12208D1*
X9101Y12279D1*
X9140Y12343D1*
X9192Y12397D1*
X9254Y12438D1*
X9324Y12464D1*
X9399Y12475D1*
X9473Y12468D1*
X9498Y12460D1*
X9500Y12486D1*
X9524Y12557D1*
X9563Y12621D1*
X9584Y12643D1*
X9581Y12900D1*
X9540Y12956D1*
X9515Y13023D1*
X9509Y13074D1*
Y14747D1*
X9521Y14821D1*
X9566Y14905D1*
X10281Y15621D1*
X10341Y15665D1*
X10432Y15692D1*
X12705Y15693D1*
X14826D1*
X14903Y15746D1*
X14973Y15773D1*
X15047Y15783D1*
X15122Y15776D1*
X15193Y15753D1*
X15258Y15715D1*
X15312Y15664D1*
X15354Y15602D1*
X15380Y15532D1*
X15391Y15447D1*
X15383Y15373D1*
X15358Y15302D1*
X15319Y15238D1*
X15266Y15185D1*
X15203Y15145D1*
X15132Y15120D1*
X15058Y15111D1*
X14984Y15119D1*
X14913Y15143D1*
X14849Y15182D1*
X14831Y15200D1*
X11380Y15201D1*
X10558D1*
X10001Y14645D1*
Y13315D1*
X10006Y13468D1*
Y14239D1*
X10017Y14313D1*
X10063Y14397D1*
X10700Y15035D1*
X10760Y15079D1*
X10851Y15106D1*
X11402Y15107D1*
X11476Y15096D1*
X11559Y15050D1*
X12144Y14467D1*
X14369Y14465D1*
X15805D1*
X15787Y14573D1*
X15795Y14647D1*
X15818Y14719D1*
X15857Y14783D1*
X15908Y14837D1*
X15971Y14878D1*
X16041Y14904D1*
X16113Y14914D1*
X16703Y15506D1*
X16763Y15550D1*
X16854Y15577D1*
X19148Y15578D1*
X19085Y15640D1*
X19041Y15701D1*
X19008Y15768D1*
X18986Y15840D1*
X18977Y15914D1*
X18979Y15989D1*
X18993Y16062D1*
X19020Y16133D1*
X19057Y16198D1*
X19104Y16256D1*
X19160Y16305D1*
X19223Y16345D1*
X19292Y16375D1*
X19365Y16392D1*
X19440Y16398D1*
X19515Y16391D1*
X19587Y16373D1*
X19656Y16343D1*
X19719Y16302D1*
X19774Y16251D1*
X19821Y16193D1*
X19857Y16127D1*
X19882Y16057D1*
X19898Y15937D1*
X19892Y15862D1*
X24102Y4620D2*
X24012Y4496D1*
X23908Y4388D1*
X23791Y4296D1*
X23753Y4272D1*
X24102D1*
Y4621D1*
X22623Y4271D2*
X22528Y4336D1*
X22416Y4436D1*
X22319Y4550D1*
X22239Y4677D1*
X22178Y4814D1*
X22135Y4957D1*
X22114Y5106D1*
X22113Y5256D1*
X22133Y5404D1*
X22173Y5549D1*
X22233Y5686D1*
X22312Y5813D1*
X22407Y5929D1*
X22518Y6030D1*
X22642Y6115D1*
X22776Y6182D1*
X22918Y6229D1*
X23065Y6256D1*
X23215Y6263D1*
X23364Y6249D1*
X23510Y6214D1*
X23649Y6159D1*
X23780Y6085D1*
X23899Y5994D1*
X24004Y5887D1*
X24094Y5767D1*
X24102Y5753D1*
Y8774D1*
X24026Y8699D1*
X23966Y8655D1*
X23875Y8628D1*
X21602Y8627D1*
X7856D1*
X7188Y7958D1*
Y7275D1*
X7199Y7262D1*
X7251Y7313D1*
X7314Y7354D1*
X7384Y7380D1*
X7458Y7391D1*
X7533Y7384D1*
X7604Y7361D1*
X7668Y7323D1*
X7723Y7272D1*
X7764Y7209D1*
X7791Y7139D1*
X7802Y7055D1*
X7794Y6980D1*
X7769Y6910D1*
X7730Y6846D1*
X7677Y6793D1*
X7614Y6753D1*
X7559Y6733D1*
X7456Y6630D1*
Y5482D1*
X7733Y5483D1*
Y5236D1*
X7772Y5292D1*
X7825Y5345D1*
X7884Y5391D1*
X7943Y5425D1*
X7941Y5762D1*
Y8049D1*
X7952Y8123D1*
X7998Y8207D1*
X8025Y8235D1*
X8032Y8293D1*
X8056Y8364D1*
X8094Y8428D1*
X8146Y8482D1*
X8209Y8523D1*
X8279Y8549D1*
X8353Y8559D1*
X8428Y8553D1*
X8499Y8530D1*
X8563Y8492D1*
X8618Y8440D1*
X8659Y8378D1*
X8686Y8308D1*
X8697Y8223D1*
X8689Y8149D1*
X8664Y8078D1*
X8624Y8015D1*
X8572Y7962D1*
X8509Y7922D1*
X8431Y7896D1*
X8433Y7149D1*
Y5422D1*
X8517Y5372D1*
X8573Y5322D1*
X8622Y5266D1*
X8663Y5203D1*
X8686Y5154D1*
X8728Y5231D1*
X8772Y5292D1*
X8825Y5345D1*
X8884Y5391D1*
X8949Y5428D1*
X9019Y5456D1*
X9092Y5474D1*
X9166Y5482D1*
X9241Y5480D1*
X9315Y5467D1*
X9386Y5445D1*
X9454Y5413D1*
X9517Y5372D1*
X9573Y5322D1*
X9622Y5266D1*
X9663Y5203D1*
X9695Y5135D1*
X9718Y5064D1*
X9733Y4937D1*
X9727Y4862D1*
X9712Y4789D1*
X9687Y4718D1*
X9652Y4652D1*
X9609Y4591D1*
X9557Y4536D1*
X9499Y4489D1*
X9435Y4451D1*
X9366Y4422D1*
X9293Y4402D1*
X9219Y4392D1*
X9144Y4393D1*
X9070Y4404D1*
X9018Y4419D1*
X8869Y4271D1*
X11547Y4272D1*
X22621D1*
X6208Y4849D2*
X6171Y4750D1*
X6100Y4618D1*
X6012Y4496D1*
X5908Y4388D1*
X5791Y4296D1*
X5753Y4272D1*
X6463D1*
X6280Y4454D1*
X6236Y4514D1*
X6209Y4605D1*
X6208Y4846D1*
X4623Y4271D2*
X4528Y4336D1*
X4416Y4436D1*
X4319Y4550D1*
X4271Y4622D1*
X4272Y4272D1*
X4621D1*
X4272Y5753D2*
X4358Y5873D1*
X4461Y5981D1*
X4578Y6075D1*
X4707Y6151D1*
X4846Y6208D1*
X4991Y6245D1*
X5140Y6262D1*
X5290Y6258D1*
X5438Y6234D1*
X5581Y6189D1*
X5716Y6124D1*
X5841Y6042D1*
X5953Y5943D1*
X6051Y5829D1*
X6132Y5703D1*
X6194Y5566D1*
X6208Y5528D1*
Y5844D1*
X5619Y6433D1*
X5316Y6432D1*
X5242Y6443D1*
X5158Y6488D1*
X4272Y7374D1*
Y5753D1*
X6261Y18612D2*
X6240Y18464D1*
X6199Y18320D1*
X6138Y18183D1*
X6125Y18160D1*
X6290Y18325D1*
X6289Y19035D1*
X6301Y19109D1*
X6346Y19193D1*
X6754Y19602D1*
X5753D1*
X5841Y19542D1*
X5953Y19443D1*
X6051Y19329D1*
X6132Y19203D1*
X6194Y19066D1*
X6237Y18923D1*
X6260Y18775D1*
X6261Y18612D1*
X5713Y17748D2*
X5592Y17690D1*
X5450Y17643D1*
X5302Y17617D1*
X5153Y17611D1*
X5004Y17626D1*
X4858Y17662D1*
X4719Y17718D1*
X4589Y17792D1*
X4470Y17884D1*
X4366Y17991D1*
X4271Y18122D1*
X4272Y16309D1*
X4810Y16845D1*
X5713Y17748D1*
X4272Y19253D2*
X4358Y19373D1*
X4461Y19481D1*
X4578Y19575D1*
X4620Y19601D1*
X4272Y19602D1*
Y19253D1*
X22938Y11314D2*
X22978Y11390D1*
X23022Y11450D1*
X23075Y11504D1*
X23134Y11550D1*
X23219Y11595D1*
X23116Y11654D1*
X23059Y11703D1*
X23008Y11758D1*
X22966Y11820D1*
X22937Y11877D1*
X22902Y11811D1*
X22859Y11750D1*
X22807Y11695D1*
X22749Y11648D1*
X22652Y11596D1*
X22704Y11571D1*
X22767Y11530D1*
X22823Y11481D1*
X22872Y11424D1*
X22913Y11362D1*
X22936Y11313D1*
X22938Y12314D2*
X22978Y12390D1*
X23022Y12450D1*
X23075Y12504D1*
X23134Y12550D1*
X23219Y12595D1*
X23116Y12654D1*
X23068Y12695D1*
X22838Y12468D1*
X22913Y12362D1*
X22936Y12313D1*
X23977Y13021D2*
X23955Y12928D1*
X24103Y12777D1*
X24102Y15222D1*
Y16499D1*
X24026Y16422D1*
X23947Y16370D1*
X23945Y16294D1*
X23968Y16222D1*
X23983Y16096D1*
X23977Y16021D1*
X23962Y15948D1*
X23937Y15877D1*
X23902Y15811D1*
X23859Y15750D1*
X23807Y15695D1*
X23749Y15648D1*
X23652Y15596D1*
X23704Y15571D1*
X23767Y15530D1*
X23823Y15481D1*
X23872Y15424D1*
X23913Y15362D1*
X23945Y15294D1*
X23968Y15222D1*
X23983Y15096D1*
X23977Y15021D1*
X23962Y14948D1*
X23937Y14877D1*
X23902Y14811D1*
X23859Y14750D1*
X23807Y14695D1*
X23749Y14648D1*
X23652Y14596D1*
X23704Y14571D1*
X23767Y14530D1*
X23823Y14481D1*
X23872Y14424D1*
X23913Y14362D1*
X23945Y14294D1*
X23968Y14222D1*
X23983Y14096D1*
X23977Y14021D1*
X23962Y13948D1*
X23937Y13877D1*
X23902Y13811D1*
X23859Y13750D1*
X23807Y13695D1*
X23749Y13648D1*
X23652Y13596D1*
X23704Y13571D1*
X23767Y13530D1*
X23823Y13481D1*
X23872Y13424D1*
X23913Y13362D1*
X23945Y13294D1*
X23968Y13222D1*
X23983Y13096D1*
X23977Y13021D1*
X21907Y12970D2*
X21895Y13032D1*
X21892Y13107D1*
X21898Y13181D1*
X21919Y13265D1*
X21877Y13308D1*
X17580Y13307D1*
X17582Y13256D1*
X17574Y13182D1*
X17549Y13111D1*
X17510Y13048D1*
X17457Y12994D1*
X17394Y12954D1*
X17323Y12929D1*
X17261Y12922D1*
X16838Y12500D1*
X17812D1*
X18323Y13012D1*
X18383Y13056D1*
X18474Y13083D1*
X20747Y13084D1*
X21691D1*
X21765Y13073D1*
X21849Y13027D1*
X21907Y12971D1*
X21981Y13799D2*
X21951Y13852D1*
X21387Y13850D1*
X17114D1*
X17062Y13798D1*
X17670Y13799D1*
X21979D1*
X21929Y15292D2*
X21961Y15359D1*
X21335D1*
X21417Y15313D1*
X21439Y15292D1*
X21930Y15291D1*
X22977Y17021D2*
X22955Y16928D1*
X23037Y16844D1*
X23750Y16842D1*
X23849Y16941D1*
X23850Y17738D1*
X23749Y17648D1*
X23685Y17610D1*
X23616Y17580D1*
X23543Y17561D1*
X23469Y17551D1*
X23394Y17552D1*
X23320Y17563D1*
X23248Y17584D1*
X23180Y17615D1*
X23086Y17680D1*
X22856Y17447D1*
X22913Y17362D1*
X22945Y17294D1*
X22968Y17222D1*
X22983Y17096D1*
X22977Y17021D1*
X21952Y18343D2*
X21978Y18390D1*
X22050Y18479D1*
X21555Y18974D1*
X18197D1*
X18229Y18907D1*
X18253Y18836D1*
X18267Y18762D1*
X18272Y18687D1*
X18267Y18612D1*
X18253Y18539D1*
X18229Y18468D1*
X18197Y18400D1*
X18160Y18343D1*
X19259Y18342D1*
X21952D1*
X14034Y5839D2*
X14013Y5767D1*
X13978Y5701D1*
X13932Y5642D1*
X13875Y5593D1*
X13810Y5556D1*
X13739Y5532D1*
X13665Y5522D1*
X13590Y5527D1*
X13517Y5545D1*
X13450Y5577D1*
X13389Y5622D1*
X13339Y5677D1*
X13299Y5740D1*
X13273Y5810D1*
X13260Y5884D1*
X13262Y5959D1*
X13277Y6032D1*
X13307Y6101D1*
X13349Y6163D1*
X13402Y6216D1*
X13464Y6258D1*
X13533Y6287D1*
X13606Y6302D1*
X13681Y6303D1*
X13755Y6290D1*
X13825Y6263D1*
X13888Y6224D1*
X13943Y6173D1*
X13987Y6112D1*
X14019Y6044D1*
X14037Y5972D1*
X14041Y5913D1*
X14034Y5839D1*
X15767D2*
X15745Y5767D1*
X15711Y5701D1*
X15664Y5642D1*
X15607Y5593D1*
X15542Y5556D1*
X15471Y5532D1*
X15397Y5522D1*
X15322Y5527D1*
X15250Y5545D1*
X15182Y5577D1*
X15122Y5622D1*
X15071Y5677D1*
X15031Y5740D1*
X15005Y5810D1*
X14992Y5884D1*
X14994Y5959D1*
X15010Y6032D1*
X15039Y6101D1*
X15081Y6163D1*
X15134Y6216D1*
X15196Y6258D1*
X15265Y6287D1*
X15339Y6302D1*
X15414Y6303D1*
X15487Y6290D1*
X15557Y6263D1*
X15621Y6224D1*
X15675Y6173D1*
X15719Y6112D1*
X15751Y6044D1*
X15769Y5972D1*
X15774Y5913D1*
X15767Y5839D1*
X6700Y5483D2*
X6965Y5485D1*
Y6008D1*
X6241Y6730D1*
X6199Y6772D1*
X6154Y6832D1*
X6128Y6923D1*
X6127Y7897D1*
X6138Y7971D1*
X6183Y8054D1*
X6697Y8570D1*
X6696Y9216D1*
Y10072D1*
X6614Y10154D1*
X6666Y10014D1*
X6677Y9930D1*
X6669Y9855D1*
X6644Y9785D1*
X6605Y9721D1*
X6552Y9668D1*
X6489Y9628D1*
X6418Y9603D1*
X6344Y9594D1*
X6269Y9601D1*
X6199Y9625D1*
X6135Y9665D1*
X6081Y9717D1*
X6041Y9780D1*
X6015Y9850D1*
X6006Y9917D1*
X4648Y11275D1*
X4647Y10198D1*
X4699Y10126D1*
X4726Y10056D1*
X4737Y9972D1*
X4728Y9897D1*
X4704Y9827D1*
X4664Y9763D1*
X4646Y9745D1*
X4647Y7696D1*
X5418Y6923D1*
X5722D1*
X5796Y6912D1*
X5879Y6867D1*
X6628Y6120D1*
X6672Y6059D1*
X6699Y5968D1*
X6700Y5484D1*
X11727Y4862D2*
X11712Y4789D1*
X11687Y4718D1*
X11652Y4652D1*
X11609Y4591D1*
X11557Y4536D1*
X11499Y4489D1*
X11435Y4451D1*
X11366Y4422D1*
X11293Y4402D1*
X11219Y4392D1*
X11144Y4393D1*
X11070Y4404D1*
X10998Y4425D1*
X10930Y4456D1*
X10866Y4496D1*
X10809Y4544D1*
X10758Y4599D1*
X10716Y4661D1*
X10683Y4729D1*
X10659Y4800D1*
X10645Y4873D1*
X10642Y4948D1*
X10648Y5023D1*
X10665Y5096D1*
X10692Y5166D1*
X10728Y5231D1*
X10772Y5292D1*
X10825Y5345D1*
X10884Y5391D1*
X10949Y5428D1*
X11019Y5456D1*
X11092Y5474D1*
X11166Y5482D1*
X11241Y5480D1*
X11315Y5467D1*
X11386Y5445D1*
X11454Y5413D1*
X11517Y5372D1*
X11573Y5322D1*
X11622Y5266D1*
X11663Y5203D1*
X11695Y5135D1*
X11718Y5064D1*
X11733Y4937D1*
X11727Y4862D1*
X16102Y18343D2*
Y18976D1*
X15507Y18974D1*
X13697D1*
X13729Y18907D1*
X13753Y18836D1*
X13767Y18762D1*
X13772Y18687D1*
X13767Y18612D1*
X13753Y18539D1*
X13729Y18468D1*
X13697Y18400D1*
X13660Y18343D1*
X14759Y18342D1*
X16102D1*
X11602Y18343D2*
Y18976D1*
X11007Y18974D1*
X9197D1*
X9229Y18907D1*
X9253Y18836D1*
X9267Y18762D1*
X9272Y18687D1*
X9267Y18612D1*
X9253Y18539D1*
X9229Y18468D1*
X9197Y18400D1*
X9160Y18343D1*
X10259Y18342D1*
X11602D1*
X14981Y12929D2*
X14913Y12952D1*
X14849Y12991D1*
X14831Y13009D1*
X13295Y13010D1*
X13158Y12875D1*
X14982D1*
X14981Y12931D1*
X14829Y13503D2*
X14903Y13556D1*
X14973Y13582D1*
X15047Y13592D1*
X15122Y13585D1*
X15193Y13562D1*
X15258Y13524D1*
X15312Y13473D1*
X15354Y13411D1*
X15380Y13341D1*
X15391Y13256D1*
X15389Y13240D1*
X15452Y13217D1*
X15517Y13179D1*
X15539Y13158D1*
X16325Y13156D1*
X16776Y13606D1*
X14668Y13605D1*
X11781D1*
X11707Y13617D1*
X11624Y13662D1*
X11105Y14180D1*
X11047Y14185D1*
X10976Y14209D1*
X10912Y14249D1*
X10859Y14301D1*
X10818Y14364D1*
X10793Y14432D1*
X10499Y14139D1*
X10498Y13323D1*
X10550Y13247D1*
X10577Y13178D1*
X10588Y13093D1*
X10579Y13018D1*
X10555Y12948D1*
X10515Y12884D1*
X10463Y12831D1*
X10399Y12791D1*
X10329Y12766D1*
X10255Y12757D1*
X10180Y12765D1*
X10109Y12789D1*
X10075Y12810D1*
Y12717D1*
X10114Y12731D1*
X10188Y12741D1*
X10263Y12735D1*
X10334Y12712D1*
X10398Y12674D1*
X10420Y12653D1*
X11996Y12651D1*
X12237D1*
X13018Y13430D1*
X13078Y13474D1*
X13169Y13501D1*
X14825Y13502D1*
X20923Y14881D2*
X20888Y14965D1*
X20879Y15040D1*
X20886Y15114D1*
X20909Y15185D1*
X20948Y15249D1*
X21000Y15303D1*
X21062Y15344D1*
X21100Y15358D1*
X20585Y15359D1*
X20385Y15158D1*
X20325Y15114D1*
X20234Y15087D1*
X17961Y15086D1*
X16979D1*
X16761Y14868D1*
X16814Y14880D1*
X19087Y14881D1*
X20922D1*
X6618Y7132D2*
X6636Y7187D1*
X6675Y7251D1*
X6696Y7273D1*
Y7874D1*
X6617Y7793D1*
X6618Y7140D1*
X8173Y9120D2*
X8145Y9148D1*
X8104Y9211D1*
X8079Y9281D1*
X8070Y9348D1*
X7245Y10173D1*
X7186Y10171D1*
X7188Y8652D1*
X7581Y9047D1*
X7641Y9091D1*
X7732Y9118D1*
X8174Y9119D1*
X16940Y14390D2*
X16648Y14098D1*
X16668Y14097D1*
X16839Y14270D1*
X16899Y14314D1*
X16990Y14341D1*
X19263Y14342D1*
X21951D1*
X21926Y14389D1*
X16941D1*
X16918Y14323D1*
X16990Y14341D1*
D22*
X19437Y15937D3*
D23*
Y16937D3*
D27*
X23437Y10096D3*
D28*
X22437D3*
X23437Y11096D3*
X22437D3*
X23437Y12096D3*
X22437D3*
X23437Y13096D3*
X22437D3*
X23437Y14096D3*
X22437D3*
X23437Y15096D3*
X22437D3*
X23437Y16096D3*
X22437D3*
X23437Y17096D3*
X22437D3*
X23437Y18096D3*
X22437D3*
X23437Y19096D3*
X22437D3*
D27*
X19437Y12187D3*
D28*
X20437D3*
D27*
X7187Y4937D3*
D28*
X8187D3*
X9187D3*
X10187D3*
X11187D3*
D32*
X16687Y18687D3*
D33*
X17687D3*
X18687D3*
D32*
X12187D3*
D33*
X13187D3*
X14187D3*
D32*
X7687D3*
D33*
X8687D3*
X9687D3*
M02*
