M48
INCH
T01C0.015
T02C0.028
T03C0.0354
T04C0.0433
T05C0.116
%
T01
X+015055Y+013256
X+015315Y+012910
X+016123Y+014578
X+015055Y+015447
X+014563Y+016937
X+013532Y+017437
X+013176Y+014610
X+011119Y+014514
X+010252Y+013093
X+010196Y+012405
X+009829Y+012417
X+009407Y+012139
X+008874Y+009591
X+008405Y+009360
X+008361Y+008223
X+007466Y+007055
X+006942Y+007047
X+008498Y+006713
X+009034Y+006713
X+011120Y+010137
X+013489Y+010137
X+014937Y+009591
X+017865Y+010338
X+019521Y+010096
X+018553Y+013087
X+019290Y+013834
X+017246Y+013256
X+017362Y+012676
X+013042Y+012254
X+009248Y+015088
X+008919Y+016685
X+010173Y+016785
X+006333Y+010341
X+006341Y+009930
X+004401Y+009972
X+012764Y+004732
X+021931Y+013834
X+021215Y+015045
X+020548Y+016324
X+021938Y+016582
T02
X+019437Y+015937
X+019437Y+016937
T03
X+013650Y+005913
X+015382Y+005913
T04
X+023437Y+010096
X+023437Y+011096
X+022437Y+011096
X+022437Y+010096
X+022437Y+012096
X+023437Y+012096
X+023437Y+013096
X+022437Y+013096
X+022437Y+014096
X+023437Y+014096
X+023437Y+015096
X+022437Y+015096
X+022437Y+016096
X+023437Y+016096
X+023437Y+017096
X+022437Y+017096
X+022437Y+018096
X+022437Y+019096
X+023437Y+019096
X+023437Y+018096
X+018687Y+018687
X+017687Y+018687
X+016687Y+018687
X+014187Y+018687
X+013187Y+018687
X+012187Y+018687
X+009687Y+018687
X+008687Y+018687
X+007687Y+018687
X+019437Y+012187
X+020437Y+012187
X+011187Y+004937
X+010187Y+004937
X+009187Y+004937
X+008187Y+004937
X+007187Y+004937
T05
X+023187Y+005187
X+032619Y+004994
X+005187Y+005187
X+005187Y+018687
T00
M30
