G04 DipTrace 2.4.0.2*
%INTopPaste.gbr*%
%MOIN*%
%ADD50R,0.0177X0.0177*%
%ADD52R,0.0767X0.0216*%
%ADD54R,0.2165X0.2401*%
%ADD56R,0.0374X0.1063*%
%ADD58R,0.0059X0.061*%
%ADD60R,0.061X0.0059*%
%ADD66R,0.0767X0.0964*%
%ADD68R,0.0177X0.0886*%
%ADD72R,0.0236X0.0393*%
%ADD74R,0.0393X0.0236*%
%ADD80R,0.0689X0.061*%
%ADD82R,0.0374X0.0413*%
%ADD84R,0.0413X0.0374*%
%FSLAX44Y44*%
G04*
G70*
G90*
G75*
G01*
%LNTopPaste*%
%LPD*%
D84*
X5687Y13687D3*
X5018D3*
X8579Y14588D3*
X9248D3*
X8579Y15088D3*
X9248D3*
X12579Y13713D3*
X11909D3*
D82*
X17187Y7687D3*
Y7018D3*
X12656Y10687D3*
Y11356D3*
X13187Y10687D3*
Y11356D3*
X11829Y7588D3*
Y6918D3*
D84*
X7829Y6713D3*
X8498D3*
X9704D3*
X9034D3*
D80*
X20937Y6437D3*
Y7539D3*
X19062Y8187D3*
Y9289D3*
D84*
X20437Y9187D3*
X21106D3*
D82*
X5812Y7687D3*
Y7018D3*
X14937Y11437D3*
Y12106D3*
D84*
X12562Y14312D3*
X11893D3*
D82*
X13748Y13913D3*
Y14583D3*
D84*
X17187Y15937D3*
X16518D3*
D82*
X18062Y13231D3*
Y13901D3*
X19312Y13856D3*
Y14526D3*
X18687Y13856D3*
Y14526D3*
D84*
X13562Y9437D3*
X14231D3*
X12812Y8437D3*
X13481D3*
D74*
X15437Y17437D3*
Y16689D3*
X16343Y17063D3*
X10937Y17437D3*
Y16689D3*
X11843Y17063D3*
X6437Y17437D3*
Y16689D3*
X7343Y17063D3*
D72*
X20687Y11187D3*
X19939D3*
X20313Y10281D3*
D68*
X13886Y6937D3*
X14201D3*
X14516D3*
X14831D3*
X15146D3*
D66*
X12764Y6898D3*
X16268D3*
X12764Y4732D3*
X16268D3*
D82*
X21187Y16187D3*
Y16856D3*
X13937Y15937D3*
Y16606D3*
D84*
X14687Y17437D3*
X14018D3*
D82*
X9437Y15937D3*
Y16606D3*
D84*
X10187Y17437D3*
X9518D3*
D82*
X4937Y16437D3*
Y15768D3*
D84*
Y17187D3*
X5606D3*
D82*
X17312Y10981D3*
Y10312D3*
Y12312D3*
Y11643D3*
D84*
X16437Y11312D3*
X15768D3*
D82*
X13937Y12312D3*
Y12981D3*
Y10937D3*
Y11606D3*
X4812Y9312D3*
Y9981D3*
X12562Y12437D3*
Y13106D3*
X10562Y14562D3*
Y15231D3*
X9937Y14562D3*
Y15231D3*
D84*
X20062Y13187D3*
X20731D3*
D60*
X5687Y13062D3*
Y12865D3*
Y12668D3*
Y12471D3*
Y12275D3*
Y12078D3*
Y11881D3*
Y11684D3*
Y11487D3*
Y11290D3*
Y11094D3*
Y10897D3*
Y10700D3*
Y10503D3*
Y10306D3*
Y10109D3*
Y9912D3*
Y9716D3*
Y9519D3*
Y9322D3*
Y9125D3*
Y8928D3*
Y8731D3*
Y8534D3*
Y8338D3*
D58*
X6396Y7629D3*
X6593D3*
X6789D3*
X6986D3*
X7183D3*
X7380D3*
X7577D3*
X7774D3*
X7970D3*
X8167D3*
X8364D3*
X8561D3*
X8758D3*
X8955D3*
X9152D3*
X9348D3*
X9545D3*
X9742D3*
X9939D3*
X10136D3*
X10333D3*
X10530D3*
X10726D3*
X10923D3*
X11120D3*
D60*
X11829Y8338D3*
Y8534D3*
Y8731D3*
Y8928D3*
Y9125D3*
Y9322D3*
Y9519D3*
Y9716D3*
Y9912D3*
Y10109D3*
Y10306D3*
Y10503D3*
Y10700D3*
Y10897D3*
Y11094D3*
Y11290D3*
Y11487D3*
Y11684D3*
Y11881D3*
Y12078D3*
Y12275D3*
Y12471D3*
Y12668D3*
Y12865D3*
Y13062D3*
D58*
X11120Y13771D3*
X10923D3*
X10726D3*
X10530D3*
X10333D3*
X10136D3*
X9939D3*
X9742D3*
X9545D3*
X9348D3*
X9152D3*
X8955D3*
X8758D3*
X8561D3*
X8364D3*
X8167D3*
X7970D3*
X7774D3*
X7577D3*
X7380D3*
X7183D3*
X6986D3*
X6789D3*
X6593D3*
X6396D3*
D56*
X19937Y8187D3*
X18142D3*
D54*
X19039Y5549D3*
D52*
X15062Y15106D3*
Y14606D3*
Y14106D3*
Y13606D3*
X17188D3*
Y14106D3*
Y14606D3*
Y15106D3*
D50*
X12687Y8937D3*
X13041Y9449D3*
X12687D3*
X13041Y8937D3*
M02*
