G04 DipTrace 2.4.0.2*
%INTopSilk.gbr*%
%MOIN*%
%ADD10C,0.0098*%
%ADD24C,0.0154*%
%ADD29C,0.0197*%
%ADD34O,0.0179X0.0184*%
%ADD85C,0.0046*%
%FSLAX44Y44*%
G04*
G70*
G90*
G75*
G01*
%LNTopSilk*%
%LPD*%
X21252Y6945D2*
D10*
X20622D1*
X21252Y6870D2*
X20622D1*
X21252D2*
Y7106D1*
X20622Y6870D2*
Y7106D1*
X19377Y8695D2*
X18747D1*
X19377Y8620D2*
X18747D1*
X19377D2*
Y8856D1*
X18747Y8620D2*
Y8856D1*
X18688Y17437D2*
X20186D1*
X18685Y17435D2*
G03X20189Y17435I752J-998D01*
G01*
D24*
X15290Y17745D3*
X15791Y17653D2*
D10*
Y16472D1*
X15988D1*
Y17653D1*
X15791D1*
D24*
X10790Y17745D3*
X11291Y17653D2*
D10*
Y16472D1*
X11488D1*
Y17653D1*
X11291D1*
D24*
X6290Y17745D3*
X6791Y17653D2*
D10*
Y16472D1*
X6988D1*
Y17653D1*
X6791D1*
D24*
X20995Y11334D3*
X20903Y10833D2*
D10*
X19722D1*
Y10636D1*
X20903D1*
Y10833D1*
X21937Y9596D2*
X23937D1*
Y19596D1*
X21937D1*
Y9596D1*
X12981Y3571D2*
X16052D1*
X12981D2*
Y4063D1*
Y5394D2*
Y6236D1*
X13335Y7271D2*
X13611D1*
X15422D2*
X15697D1*
X16052Y6236D2*
Y5394D1*
Y4063D2*
Y3571D1*
D29*
X13886Y7606D3*
X20937Y12687D2*
D10*
X18937D1*
Y11687D1*
X20937D1*
Y12687D1*
X6687Y5437D2*
X11687D1*
Y4437D1*
X6687D1*
Y5437D1*
X15719Y19750D2*
X19656D1*
Y17978D1*
X15719D1*
Y19750D1*
Y19396D2*
X19656D1*
X11219Y19750D2*
X15156D1*
Y17978D1*
X11219D1*
Y19750D1*
Y19396D2*
X15156D1*
X6719Y19750D2*
X10656D1*
Y17978D1*
X6719D1*
Y19750D1*
Y19396D2*
X10656D1*
X6258Y13200D2*
X11258D1*
Y8200D1*
X6258D1*
Y13200D1*
G36*
X6219Y13239D2*
Y12763D1*
X6695Y13239D1*
X6219D1*
G37*
D34*
X5669Y13296D3*
X20339Y7478D2*
D10*
X17740D1*
X20339Y4722D2*
Y7478D1*
Y4722D2*
X20260D1*
X17740D2*
Y7478D1*
Y4722D2*
X17819D1*
D24*
X20329Y8628D3*
X15613Y15341D2*
D10*
Y13372D1*
X16637Y15341D2*
Y13372D1*
X15613D2*
X16637D1*
X15928Y15341D2*
X15613D1*
X16322D2*
X16637D1*
X15928D2*
G03X16322Y15341I197J0D01*
G01*
X5378Y14252D2*
D85*
X5363Y14280D1*
X5335Y14309D1*
X5306Y14323D1*
X5249D1*
X5220Y14309D1*
X5191Y14280D1*
X5177Y14252D1*
X5162Y14208D1*
Y14136D1*
X5177Y14094D1*
X5191Y14065D1*
X5220Y14036D1*
X5249Y14022D1*
X5306D1*
X5335Y14036D1*
X5363Y14065D1*
X5378Y14094D1*
X5470Y14265D2*
X5499Y14280D1*
X5542Y14323D1*
Y14022D1*
X8874Y15152D2*
X8860Y15181D1*
X8831Y15210D1*
X8803Y15224D1*
X8745D1*
X8716Y15210D1*
X8688Y15181D1*
X8673Y15152D1*
X8659Y15109D1*
Y15037D1*
X8673Y14994D1*
X8688Y14965D1*
X8716Y14937D1*
X8745Y14922D1*
X8803D1*
X8831Y14937D1*
X8860Y14965D1*
X8874Y14994D1*
X8981Y15152D2*
Y15166D1*
X8996Y15195D1*
X9010Y15209D1*
X9039Y15223D1*
X9096D1*
X9125Y15209D1*
X9139Y15195D1*
X9154Y15166D1*
Y15138D1*
X9139Y15109D1*
X9110Y15066D1*
X8967Y14922D1*
X9168D1*
X8874Y15652D2*
X8860Y15681D1*
X8831Y15710D1*
X8803Y15724D1*
X8745D1*
X8716Y15710D1*
X8688Y15681D1*
X8673Y15652D1*
X8659Y15609D1*
Y15537D1*
X8673Y15494D1*
X8688Y15465D1*
X8716Y15437D1*
X8745Y15422D1*
X8803D1*
X8831Y15437D1*
X8860Y15465D1*
X8874Y15494D1*
X8996Y15723D2*
X9153D1*
X9067Y15609D1*
X9110D1*
X9139Y15594D1*
X9153Y15580D1*
X9168Y15537D1*
Y15509D1*
X9153Y15465D1*
X9125Y15437D1*
X9082Y15422D1*
X9038D1*
X8996Y15437D1*
X8981Y15451D1*
X8967Y15480D1*
X12198Y14277D2*
X12184Y14306D1*
X12155Y14335D1*
X12126Y14349D1*
X12069D1*
X12040Y14335D1*
X12011Y14306D1*
X11997Y14277D1*
X11983Y14234D1*
Y14162D1*
X11997Y14119D1*
X12011Y14090D1*
X12040Y14062D1*
X12069Y14047D1*
X12126D1*
X12155Y14062D1*
X12184Y14090D1*
X12198Y14119D1*
X12434Y14047D2*
Y14348D1*
X12290Y14148D1*
X12506D1*
X16622Y7313D2*
X16594Y7299D1*
X16565Y7270D1*
X16551Y7242D1*
Y7184D1*
X16565Y7155D1*
X16594Y7127D1*
X16622Y7112D1*
X16666Y7098D1*
X16738D1*
X16780Y7112D1*
X16809Y7127D1*
X16838Y7155D1*
X16852Y7184D1*
Y7242D1*
X16838Y7270D1*
X16809Y7299D1*
X16780Y7313D1*
X16551Y7578D2*
Y7435D1*
X16680Y7420D1*
X16666Y7435D1*
X16651Y7478D1*
Y7521D1*
X16666Y7564D1*
X16694Y7593D1*
X16738Y7607D1*
X16766D1*
X16809Y7593D1*
X16838Y7564D1*
X16852Y7521D1*
Y7478D1*
X16838Y7435D1*
X16823Y7420D1*
X16795Y7406D1*
X12092Y10990D2*
X12063Y10976D1*
X12035Y10947D1*
X12020Y10918D1*
Y10861D1*
X12035Y10832D1*
X12063Y10803D1*
X12092Y10789D1*
X12135Y10775D1*
X12207D1*
X12250Y10789D1*
X12279Y10803D1*
X12307Y10832D1*
X12322Y10861D1*
Y10918D1*
X12307Y10947D1*
X12279Y10976D1*
X12250Y10990D1*
X12063Y11255D2*
X12035Y11240D1*
X12021Y11197D1*
Y11169D1*
X12035Y11126D1*
X12078Y11097D1*
X12150Y11082D1*
X12221D1*
X12279Y11097D1*
X12307Y11126D1*
X12322Y11169D1*
Y11183D1*
X12307Y11226D1*
X12279Y11255D1*
X12236Y11269D1*
X12221D1*
X12178Y11255D1*
X12150Y11226D1*
X12135Y11183D1*
Y11169D1*
X12150Y11126D1*
X12178Y11097D1*
X12221Y11082D1*
X12622Y10982D2*
X12594Y10968D1*
X12565Y10939D1*
X12551Y10911D1*
Y10853D1*
X12565Y10825D1*
X12594Y10796D1*
X12622Y10782D1*
X12666Y10767D1*
X12738D1*
X12780Y10782D1*
X12809Y10796D1*
X12838Y10825D1*
X12852Y10853D1*
Y10911D1*
X12838Y10939D1*
X12809Y10968D1*
X12780Y10982D1*
X12852Y11132D2*
X12551Y11276D1*
Y11075D1*
X11264Y7214D2*
X11236Y7200D1*
X11207Y7171D1*
X11193Y7142D1*
Y7085D1*
X11207Y7056D1*
X11236Y7028D1*
X11264Y7013D1*
X11307Y6999D1*
X11379D1*
X11422Y7013D1*
X11451Y7028D1*
X11479Y7056D1*
X11494Y7085D1*
Y7142D1*
X11479Y7171D1*
X11451Y7200D1*
X11422Y7214D1*
X11193Y7378D2*
X11207Y7335D1*
X11236Y7321D1*
X11265D1*
X11293Y7335D1*
X11308Y7364D1*
X11322Y7421D1*
X11336Y7464D1*
X11365Y7493D1*
X11394Y7507D1*
X11437D1*
X11465Y7493D1*
X11480Y7479D1*
X11494Y7436D1*
Y7378D1*
X11480Y7335D1*
X11465Y7321D1*
X11437Y7307D1*
X11394D1*
X11365Y7321D1*
X11336Y7350D1*
X11322Y7392D1*
X11308Y7450D1*
X11293Y7479D1*
X11265Y7493D1*
X11236D1*
X11207Y7479D1*
X11193Y7436D1*
Y7378D1*
X8131Y7277D2*
X8117Y7306D1*
X8088Y7335D1*
X8060Y7349D1*
X8002D1*
X7973Y7335D1*
X7945Y7306D1*
X7930Y7277D1*
X7916Y7234D1*
Y7162D1*
X7930Y7119D1*
X7945Y7090D1*
X7973Y7062D1*
X8002Y7047D1*
X8060D1*
X8088Y7062D1*
X8117Y7090D1*
X8131Y7119D1*
X8411Y7248D2*
X8396Y7205D1*
X8368Y7176D1*
X8324Y7162D1*
X8310D1*
X8267Y7176D1*
X8239Y7205D1*
X8224Y7248D1*
Y7263D1*
X8239Y7306D1*
X8267Y7334D1*
X8310Y7348D1*
X8324D1*
X8368Y7334D1*
X8396Y7306D1*
X8411Y7248D1*
Y7176D1*
X8396Y7105D1*
X8368Y7062D1*
X8324Y7047D1*
X8296D1*
X8253Y7062D1*
X8239Y7090D1*
X9248Y7277D2*
X9233Y7306D1*
X9205Y7335D1*
X9176Y7349D1*
X9119D1*
X9090Y7335D1*
X9061Y7306D1*
X9047Y7277D1*
X9032Y7234D1*
Y7162D1*
X9047Y7119D1*
X9061Y7090D1*
X9090Y7062D1*
X9119Y7047D1*
X9176D1*
X9205Y7062D1*
X9233Y7090D1*
X9248Y7119D1*
X9340Y7291D2*
X9369Y7306D1*
X9412Y7348D1*
Y7047D1*
X9591Y7348D2*
X9548Y7334D1*
X9519Y7291D1*
X9505Y7219D1*
Y7176D1*
X9519Y7105D1*
X9548Y7062D1*
X9591Y7047D1*
X9620D1*
X9663Y7062D1*
X9691Y7105D1*
X9706Y7176D1*
Y7219D1*
X9691Y7291D1*
X9663Y7334D1*
X9620Y7348D1*
X9591D1*
X9691Y7291D2*
X9519Y7105D1*
X20215Y6931D2*
X20186Y6917D1*
X20158Y6888D1*
X20143Y6860D1*
Y6802D1*
X20158Y6773D1*
X20186Y6745D1*
X20215Y6730D1*
X20258Y6716D1*
X20330D1*
X20373Y6730D1*
X20402Y6745D1*
X20430Y6773D1*
X20445Y6802D1*
Y6860D1*
X20430Y6888D1*
X20402Y6917D1*
X20373Y6931D1*
X20201Y7024D2*
X20186Y7053D1*
X20144Y7096D1*
X20445D1*
X20201Y7188D2*
X20186Y7217D1*
X20144Y7260D1*
X20445D1*
X18340Y8617D2*
X18311Y8602D1*
X18283Y8574D1*
X18268Y8545D1*
Y8488D1*
X18283Y8459D1*
X18311Y8430D1*
X18340Y8416D1*
X18383Y8401D1*
X18455D1*
X18498Y8416D1*
X18527Y8430D1*
X18555Y8459D1*
X18570Y8488D1*
Y8545D1*
X18555Y8574D1*
X18527Y8602D1*
X18498Y8617D1*
X18326Y8709D2*
X18311Y8738D1*
X18269Y8781D1*
X18570D1*
X18340Y8889D2*
X18326D1*
X18297Y8903D1*
X18283Y8917D1*
X18269Y8946D1*
Y9003D1*
X18283Y9032D1*
X18297Y9046D1*
X18326Y9061D1*
X18355D1*
X18383Y9046D1*
X18426Y9018D1*
X18570Y8874D1*
Y9075D1*
X20650Y9752D2*
X20636Y9780D1*
X20607Y9809D1*
X20579Y9823D1*
X20521D1*
X20492Y9809D1*
X20464Y9780D1*
X20449Y9752D1*
X20435Y9708D1*
Y9636D1*
X20449Y9594D1*
X20464Y9565D1*
X20492Y9536D1*
X20521Y9522D1*
X20579D1*
X20607Y9536D1*
X20636Y9565D1*
X20650Y9594D1*
X20743Y9765D2*
X20772Y9780D1*
X20815Y9823D1*
Y9522D1*
X20936Y9823D2*
X21094D1*
X21008Y9708D1*
X21051D1*
X21080Y9694D1*
X21094Y9680D1*
X21108Y9636D1*
Y9608D1*
X21094Y9565D1*
X21065Y9536D1*
X21022Y9522D1*
X20979D1*
X20936Y9536D1*
X20922Y9551D1*
X20907Y9579D1*
X5247Y7224D2*
X5219Y7209D1*
X5190Y7181D1*
X5176Y7152D1*
Y7095D1*
X5190Y7066D1*
X5219Y7037D1*
X5247Y7023D1*
X5291Y7009D1*
X5363D1*
X5405Y7023D1*
X5434Y7037D1*
X5463Y7066D1*
X5477Y7095D1*
Y7152D1*
X5463Y7181D1*
X5434Y7209D1*
X5405Y7224D1*
X5234Y7316D2*
X5219Y7345D1*
X5176Y7388D1*
X5477D1*
Y7625D2*
X5176D1*
X5377Y7481D1*
Y7696D1*
X14372Y11650D2*
X14344Y11636D1*
X14315Y11607D1*
X14301Y11579D1*
Y11521D1*
X14315Y11492D1*
X14344Y11464D1*
X14372Y11449D1*
X14416Y11435D1*
X14488D1*
X14530Y11449D1*
X14559Y11464D1*
X14588Y11492D1*
X14602Y11521D1*
Y11579D1*
X14588Y11607D1*
X14559Y11636D1*
X14530Y11650D1*
X14359Y11743D2*
X14344Y11772D1*
X14301Y11815D1*
X14602D1*
X14301Y12080D2*
Y11936D1*
X14430Y11922D1*
X14416Y11936D1*
X14401Y11979D1*
Y12022D1*
X14416Y12065D1*
X14444Y12094D1*
X14488Y12108D1*
X14516D1*
X14559Y12094D1*
X14588Y12065D1*
X14602Y12022D1*
Y11979D1*
X14588Y11936D1*
X14573Y11922D1*
X14545Y11907D1*
X12113Y14877D2*
X12099Y14905D1*
X12070Y14934D1*
X12042Y14948D1*
X11984D1*
X11955Y14934D1*
X11927Y14905D1*
X11912Y14877D1*
X11898Y14833D1*
Y14761D1*
X11912Y14719D1*
X11927Y14690D1*
X11955Y14661D1*
X11984Y14647D1*
X12042D1*
X12070Y14661D1*
X12099Y14690D1*
X12113Y14719D1*
X12206Y14890D2*
X12235Y14905D1*
X12278Y14948D1*
Y14647D1*
X12543Y14905D2*
X12528Y14934D1*
X12485Y14948D1*
X12457D1*
X12414Y14934D1*
X12385Y14890D1*
X12370Y14819D1*
Y14747D1*
X12385Y14690D1*
X12414Y14661D1*
X12457Y14647D1*
X12471D1*
X12514Y14661D1*
X12543Y14690D1*
X12557Y14733D1*
Y14747D1*
X12543Y14790D1*
X12514Y14819D1*
X12471Y14833D1*
X12457D1*
X12414Y14819D1*
X12385Y14790D1*
X12370Y14747D1*
X13183Y14127D2*
X13155Y14112D1*
X13126Y14083D1*
X13112Y14055D1*
Y13998D1*
X13126Y13969D1*
X13155Y13940D1*
X13183Y13926D1*
X13227Y13911D1*
X13299D1*
X13341Y13926D1*
X13370Y13940D1*
X13399Y13969D1*
X13413Y13998D1*
Y14055D1*
X13399Y14083D1*
X13370Y14112D1*
X13341Y14127D1*
X13170Y14219D2*
X13155Y14248D1*
X13112Y14291D1*
X13413D1*
Y14441D2*
X13112Y14585D1*
Y14384D1*
X16731Y16502D2*
X16717Y16530D1*
X16688Y16559D1*
X16659Y16573D1*
X16602D1*
X16573Y16559D1*
X16545Y16530D1*
X16530Y16502D1*
X16516Y16458D1*
Y16386D1*
X16530Y16344D1*
X16545Y16315D1*
X16573Y16286D1*
X16602Y16272D1*
X16659D1*
X16688Y16286D1*
X16717Y16315D1*
X16731Y16344D1*
X16824Y16515D2*
X16853Y16530D1*
X16896Y16573D1*
Y16272D1*
X17060Y16573D2*
X17017Y16559D1*
X17003Y16530D1*
Y16501D1*
X17017Y16473D1*
X17046Y16458D1*
X17103Y16444D1*
X17146Y16430D1*
X17175Y16401D1*
X17189Y16372D1*
Y16329D1*
X17175Y16301D1*
X17160Y16286D1*
X17117Y16272D1*
X17060D1*
X17017Y16286D1*
X17003Y16301D1*
X16988Y16329D1*
Y16372D1*
X17003Y16401D1*
X17031Y16430D1*
X17074Y16444D1*
X17132Y16458D1*
X17160Y16473D1*
X17175Y16501D1*
Y16530D1*
X17160Y16559D1*
X17117Y16573D1*
X17060D1*
X17497Y13452D2*
X17469Y13437D1*
X17440Y13408D1*
X17426Y13380D1*
Y13323D1*
X17440Y13294D1*
X17469Y13265D1*
X17497Y13251D1*
X17541Y13236D1*
X17613D1*
X17655Y13251D1*
X17684Y13265D1*
X17713Y13294D1*
X17727Y13323D1*
Y13380D1*
X17713Y13408D1*
X17684Y13437D1*
X17655Y13452D1*
X17484Y13544D2*
X17469Y13573D1*
X17426Y13616D1*
X17727D1*
X17526Y13896D2*
X17569Y13881D1*
X17598Y13852D1*
X17613Y13809D1*
Y13795D1*
X17598Y13752D1*
X17569Y13723D1*
X17526Y13709D1*
X17512D1*
X17469Y13723D1*
X17440Y13752D1*
X17426Y13795D1*
Y13809D1*
X17440Y13852D1*
X17469Y13881D1*
X17526Y13896D1*
X17598D1*
X17670Y13881D1*
X17713Y13852D1*
X17727Y13809D1*
Y13781D1*
X17713Y13738D1*
X17684Y13723D1*
X18747Y14005D2*
X18719Y13991D1*
X18690Y13962D1*
X18676Y13933D1*
Y13876D1*
X18690Y13847D1*
X18719Y13819D1*
X18747Y13804D1*
X18791Y13790D1*
X18863D1*
X18905Y13804D1*
X18934Y13819D1*
X18963Y13847D1*
X18977Y13876D1*
Y13933D1*
X18963Y13962D1*
X18934Y13991D1*
X18905Y14005D1*
X18748Y14112D2*
X18734D1*
X18705Y14126D1*
X18690Y14141D1*
X18676Y14170D1*
Y14227D1*
X18690Y14255D1*
X18705Y14270D1*
X18734Y14284D1*
X18762D1*
X18791Y14270D1*
X18834Y14241D1*
X18977Y14098D1*
Y14299D1*
X18676Y14477D2*
X18690Y14434D1*
X18734Y14405D1*
X18805Y14391D1*
X18848D1*
X18920Y14405D1*
X18963Y14434D1*
X18977Y14477D1*
Y14506D1*
X18963Y14549D1*
X18920Y14578D1*
X18848Y14592D1*
X18805D1*
X18734Y14578D1*
X18690Y14549D1*
X18676Y14506D1*
Y14477D1*
X18734Y14578D2*
X18920Y14405D1*
X18122Y14069D2*
X18094Y14055D1*
X18065Y14026D1*
X18051Y13998D1*
Y13940D1*
X18065Y13912D1*
X18094Y13883D1*
X18122Y13869D1*
X18166Y13854D1*
X18238D1*
X18280Y13869D1*
X18309Y13883D1*
X18338Y13912D1*
X18352Y13940D1*
Y13998D1*
X18338Y14026D1*
X18309Y14055D1*
X18280Y14069D1*
X18123Y14177D2*
X18109D1*
X18080Y14191D1*
X18065Y14205D1*
X18051Y14234D1*
Y14291D1*
X18065Y14320D1*
X18080Y14334D1*
X18109Y14349D1*
X18137D1*
X18166Y14334D1*
X18209Y14306D1*
X18352Y14162D1*
Y14363D1*
X18109Y14456D2*
X18094Y14485D1*
X18051Y14528D1*
X18352D1*
X13711Y10002D2*
X13696Y10030D1*
X13668Y10059D1*
X13639Y10073D1*
X13582D1*
X13553Y10059D1*
X13524Y10030D1*
X13510Y10002D1*
X13495Y9958D1*
Y9886D1*
X13510Y9844D1*
X13524Y9815D1*
X13553Y9786D1*
X13582Y9772D1*
X13639D1*
X13668Y9786D1*
X13696Y9815D1*
X13711Y9844D1*
X13818Y10001D2*
Y10015D1*
X13832Y10044D1*
X13846Y10059D1*
X13875Y10073D1*
X13933D1*
X13961Y10059D1*
X13975Y10044D1*
X13990Y10015D1*
Y9987D1*
X13975Y9958D1*
X13947Y9915D1*
X13803Y9772D1*
X14004D1*
X14111Y10001D2*
Y10015D1*
X14126Y10044D1*
X14140Y10059D1*
X14169Y10073D1*
X14226D1*
X14255Y10059D1*
X14269Y10044D1*
X14284Y10015D1*
Y9987D1*
X14269Y9958D1*
X14240Y9915D1*
X14097Y9772D1*
X14298D1*
X12961Y9002D2*
X12946Y9030D1*
X12918Y9059D1*
X12889Y9073D1*
X12832D1*
X12803Y9059D1*
X12774Y9030D1*
X12760Y9002D1*
X12745Y8958D1*
Y8886D1*
X12760Y8844D1*
X12774Y8815D1*
X12803Y8786D1*
X12832Y8772D1*
X12889D1*
X12918Y8786D1*
X12946Y8815D1*
X12961Y8844D1*
X13068Y9001D2*
Y9015D1*
X13082Y9044D1*
X13096Y9059D1*
X13125Y9073D1*
X13183D1*
X13211Y9059D1*
X13225Y9044D1*
X13240Y9015D1*
Y8987D1*
X13225Y8958D1*
X13197Y8915D1*
X13053Y8772D1*
X13254D1*
X13376Y9073D2*
X13533D1*
X13447Y8958D1*
X13490D1*
X13519Y8944D1*
X13533Y8930D1*
X13548Y8886D1*
Y8858D1*
X13533Y8815D1*
X13505Y8786D1*
X13462Y8772D1*
X13419D1*
X13376Y8786D1*
X13361Y8801D1*
X13347Y8829D1*
X19254Y17876D2*
Y17575D1*
X19355D1*
X19398Y17589D1*
X19427Y17618D1*
X19441Y17647D1*
X19455Y17690D1*
Y17762D1*
X19441Y17805D1*
X19427Y17833D1*
X19398Y17862D1*
X19355Y17876D1*
X19254D1*
X19548Y17819D2*
X19577Y17833D1*
X19620Y17876D1*
Y17575D1*
X15634Y18262D2*
Y17960D1*
X15734D1*
X15777Y17975D1*
X15806Y18004D1*
X15820Y18032D1*
X15835Y18075D1*
Y18147D1*
X15820Y18190D1*
X15806Y18219D1*
X15777Y18248D1*
X15734Y18262D1*
X15634D1*
X15942Y18190D2*
Y18204D1*
X15956Y18233D1*
X15970Y18247D1*
X15999Y18262D1*
X16057D1*
X16085Y18247D1*
X16099Y18233D1*
X16114Y18204D1*
Y18176D1*
X16099Y18147D1*
X16071Y18104D1*
X15927Y17960D1*
X16128D1*
X11134Y18262D2*
Y17960D1*
X11234D1*
X11277Y17975D1*
X11306Y18004D1*
X11320Y18032D1*
X11335Y18075D1*
Y18147D1*
X11320Y18190D1*
X11306Y18219D1*
X11277Y18248D1*
X11234Y18262D1*
X11134D1*
X11456D2*
X11614D1*
X11528Y18147D1*
X11571D1*
X11599Y18133D1*
X11614Y18118D1*
X11628Y18075D1*
Y18047D1*
X11614Y18004D1*
X11585Y17975D1*
X11542Y17960D1*
X11499D1*
X11456Y17975D1*
X11442Y17989D1*
X11427Y18018D1*
X6627Y18262D2*
Y17960D1*
X6727D1*
X6770Y17975D1*
X6799Y18004D1*
X6813Y18032D1*
X6828Y18075D1*
Y18147D1*
X6813Y18190D1*
X6799Y18219D1*
X6770Y18248D1*
X6727Y18262D1*
X6627D1*
X7064Y17960D2*
Y18262D1*
X6920Y18061D1*
X7135D1*
X20150Y11851D2*
Y11549D1*
X20251D1*
X20294Y11564D1*
X20323Y11592D1*
X20337Y11621D1*
X20351Y11664D1*
Y11736D1*
X20337Y11779D1*
X20323Y11807D1*
X20294Y11836D1*
X20251Y11851D1*
X20150D1*
X20616Y11850D2*
X20473D1*
X20458Y11721D1*
X20473Y11735D1*
X20516Y11750D1*
X20559D1*
X20602Y11735D1*
X20631Y11707D1*
X20645Y11664D1*
Y11635D1*
X20631Y11592D1*
X20602Y11563D1*
X20559Y11549D1*
X20516D1*
X20473Y11563D1*
X20458Y11578D1*
X20444Y11606D1*
X22927Y20035D2*
Y19806D1*
X22912Y19762D1*
X22898Y19748D1*
X22869Y19734D1*
X22840D1*
X22812Y19748D1*
X22798Y19762D1*
X22783Y19806D1*
Y19834D1*
X23019Y19977D2*
X23048Y19992D1*
X23091Y20035D1*
Y19734D1*
X14441Y8144D2*
Y7915D1*
X14427Y7871D1*
X14412Y7857D1*
X14384Y7843D1*
X14355D1*
X14326Y7857D1*
X14312Y7871D1*
X14297Y7915D1*
Y7943D1*
X14548Y8072D2*
Y8086D1*
X14563Y8115D1*
X14577Y8129D1*
X14606Y8144D1*
X14663D1*
X14692Y8129D1*
X14706Y8115D1*
X14720Y8086D1*
Y8058D1*
X14706Y8029D1*
X14677Y7986D1*
X14534Y7843D1*
X14735D1*
X19862Y13126D2*
Y12897D1*
X19848Y12854D1*
X19833Y12839D1*
X19805Y12825D1*
X19776D1*
X19747Y12839D1*
X19733Y12854D1*
X19718Y12897D1*
Y12925D1*
X19983Y13126D2*
X20141D1*
X20055Y13011D1*
X20098D1*
X20127Y12997D1*
X20141Y12983D1*
X20156Y12940D1*
Y12911D1*
X20141Y12868D1*
X20112Y12839D1*
X20069Y12825D1*
X20026D1*
X19983Y12839D1*
X19969Y12854D1*
X19955Y12882D1*
X9030Y6426D2*
Y6196D1*
X9015Y6153D1*
X9001Y6139D1*
X8972Y6124D1*
X8943D1*
X8915Y6139D1*
X8901Y6153D1*
X8886Y6196D1*
Y6225D1*
X9122Y6368D2*
X9151Y6382D1*
X9194Y6425D1*
Y6124D1*
X9373Y6425D2*
X9330Y6411D1*
X9301Y6368D1*
X9287Y6296D1*
Y6253D1*
X9301Y6181D1*
X9330Y6138D1*
X9373Y6124D1*
X9402D1*
X9445Y6138D1*
X9473Y6181D1*
X9488Y6253D1*
Y6296D1*
X9473Y6368D1*
X9445Y6411D1*
X9402Y6425D1*
X9373D1*
X9473Y6368D2*
X9301Y6181D1*
X17576Y20189D2*
X17548Y20175D1*
X17519Y20147D1*
X17504Y20118D1*
X17490Y20075D1*
Y20003D1*
X17504Y19960D1*
X17519Y19931D1*
X17548Y19902D1*
X17576Y19888D1*
X17633D1*
X17662Y19902D1*
X17691Y19931D1*
X17705Y19960D1*
X17720Y20003D1*
Y20075D1*
X17705Y20118D1*
X17691Y20147D1*
X17662Y20175D1*
X17633Y20189D1*
X17576D1*
X17619Y19946D2*
X17705Y19859D1*
X17812Y20132D2*
X17841Y20146D1*
X17884Y20189D1*
Y19888D1*
X13012Y20189D2*
X12983Y20175D1*
X12954Y20147D1*
X12940Y20118D1*
X12925Y20075D1*
Y20003D1*
X12940Y19960D1*
X12954Y19931D1*
X12983Y19902D1*
X13012Y19888D1*
X13069D1*
X13098Y19902D1*
X13126Y19931D1*
X13141Y19960D1*
X13155Y20003D1*
Y20075D1*
X13141Y20118D1*
X13126Y20147D1*
X13098Y20175D1*
X13069Y20189D1*
X13012D1*
X13055Y19946D2*
X13141Y19859D1*
X13262Y20117D2*
Y20132D1*
X13277Y20160D1*
X13291Y20175D1*
X13320Y20189D1*
X13377D1*
X13406Y20175D1*
X13420Y20160D1*
X13434Y20132D1*
Y20103D1*
X13420Y20074D1*
X13391Y20031D1*
X13248Y19888D1*
X13449D1*
X8512Y20189D2*
X8483Y20175D1*
X8454Y20147D1*
X8440Y20118D1*
X8425Y20075D1*
Y20003D1*
X8440Y19960D1*
X8454Y19931D1*
X8483Y19902D1*
X8512Y19888D1*
X8569D1*
X8598Y19902D1*
X8626Y19931D1*
X8641Y19960D1*
X8655Y20003D1*
Y20075D1*
X8641Y20118D1*
X8626Y20147D1*
X8598Y20175D1*
X8569Y20189D1*
X8512D1*
X8555Y19946D2*
X8641Y19859D1*
X8777Y20189D2*
X8934D1*
X8848Y20074D1*
X8891D1*
X8920Y20060D1*
X8934Y20046D1*
X8949Y20003D1*
Y19974D1*
X8934Y19931D1*
X8906Y19902D1*
X8862Y19888D1*
X8819D1*
X8777Y19902D1*
X8762Y19917D1*
X8748Y19945D1*
X20694Y16339D2*
Y16468D1*
X20680Y16511D1*
X20666Y16526D1*
X20637Y16540D1*
X20608D1*
X20580Y16526D1*
X20565Y16511D1*
X20551Y16468D1*
Y16339D1*
X20852D1*
X20694Y16439D2*
X20852Y16540D1*
X20609Y16632D2*
X20594Y16661D1*
X20551Y16704D1*
X20852D1*
X13444Y16024D2*
Y16153D1*
X13430Y16196D1*
X13416Y16211D1*
X13387Y16225D1*
X13358D1*
X13330Y16211D1*
X13315Y16196D1*
X13301Y16153D1*
Y16024D1*
X13602D1*
X13444Y16125D2*
X13602Y16225D1*
X13373Y16333D2*
X13359D1*
X13330Y16347D1*
X13315Y16361D1*
X13301Y16390D1*
Y16447D1*
X13315Y16476D1*
X13330Y16490D1*
X13359Y16505D1*
X13387D1*
X13416Y16490D1*
X13459Y16462D1*
X13602Y16318D1*
Y16519D1*
X14105Y17930D2*
X14234D1*
X14277Y17944D1*
X14292Y17958D1*
X14306Y17987D1*
Y18016D1*
X14292Y18044D1*
X14277Y18059D1*
X14234Y18073D1*
X14105D1*
Y17772D1*
X14206Y17930D2*
X14306Y17772D1*
X14428Y18073D2*
X14585D1*
X14499Y17958D1*
X14542D1*
X14571Y17944D1*
X14585Y17930D1*
X14600Y17886D1*
Y17858D1*
X14585Y17815D1*
X14557Y17786D1*
X14513Y17772D1*
X14470D1*
X14428Y17786D1*
X14413Y17801D1*
X14399Y17829D1*
X8944Y16017D2*
Y16146D1*
X8930Y16189D1*
X8916Y16204D1*
X8887Y16218D1*
X8858D1*
X8830Y16204D1*
X8815Y16189D1*
X8801Y16146D1*
Y16017D1*
X9102D1*
X8944Y16118D2*
X9102Y16218D1*
Y16454D2*
X8801D1*
X9002Y16311D1*
Y16526D1*
X9605Y17930D2*
X9734D1*
X9777Y17944D1*
X9792Y17958D1*
X9806Y17987D1*
Y18016D1*
X9792Y18044D1*
X9777Y18059D1*
X9734Y18073D1*
X9605D1*
Y17772D1*
X9706Y17930D2*
X9806Y17772D1*
X10071Y18073D2*
X9928D1*
X9913Y17944D1*
X9928Y17958D1*
X9971Y17973D1*
X10013D1*
X10057Y17958D1*
X10085Y17930D1*
X10100Y17886D1*
Y17858D1*
X10085Y17815D1*
X10057Y17786D1*
X10013Y17772D1*
X9971D1*
X9928Y17786D1*
X9913Y17801D1*
X9899Y17829D1*
X4444Y15862D2*
Y15991D1*
X4430Y16034D1*
X4416Y16049D1*
X4387Y16063D1*
X4358D1*
X4330Y16049D1*
X4315Y16034D1*
X4301Y15991D1*
Y15862D1*
X4602D1*
X4444Y15963D2*
X4602Y16063D1*
X4344Y16328D2*
X4315Y16314D1*
X4301Y16271D1*
Y16242D1*
X4315Y16199D1*
X4359Y16170D1*
X4430Y16156D1*
X4502D1*
X4559Y16170D1*
X4588Y16199D1*
X4602Y16242D1*
Y16256D1*
X4588Y16299D1*
X4559Y16328D1*
X4516Y16342D1*
X4502D1*
X4459Y16328D1*
X4430Y16299D1*
X4416Y16256D1*
Y16242D1*
X4430Y16199D1*
X4459Y16170D1*
X4502Y16156D1*
X5024Y17680D2*
X5153D1*
X5196Y17694D1*
X5211Y17708D1*
X5225Y17737D1*
Y17766D1*
X5211Y17794D1*
X5196Y17809D1*
X5153Y17823D1*
X5024D1*
Y17522D1*
X5125Y17680D2*
X5225Y17522D1*
X5375D2*
X5519Y17823D1*
X5318D1*
X16819Y10400D2*
Y10529D1*
X16805Y10572D1*
X16791Y10586D1*
X16762Y10601D1*
X16733D1*
X16705Y10586D1*
X16690Y10572D1*
X16676Y10529D1*
Y10400D1*
X16977D1*
X16819Y10500D2*
X16977Y10601D1*
X16676Y10765D2*
X16690Y10722D1*
X16719Y10707D1*
X16748D1*
X16776Y10722D1*
X16791Y10751D1*
X16805Y10808D1*
X16819Y10851D1*
X16848Y10880D1*
X16877Y10894D1*
X16920D1*
X16948Y10880D1*
X16963Y10865D1*
X16977Y10822D1*
Y10765D1*
X16963Y10722D1*
X16948Y10707D1*
X16920Y10693D1*
X16877D1*
X16848Y10707D1*
X16819Y10736D1*
X16805Y10779D1*
X16791Y10836D1*
X16776Y10865D1*
X16748Y10880D1*
X16719D1*
X16690Y10865D1*
X16676Y10822D1*
Y10765D1*
X16819Y11737D2*
Y11866D1*
X16805Y11909D1*
X16791Y11924D1*
X16762Y11938D1*
X16733D1*
X16705Y11924D1*
X16690Y11909D1*
X16676Y11866D1*
Y11737D1*
X16977D1*
X16819Y11838D2*
X16977Y11938D1*
X16776Y12218D2*
X16819Y12203D1*
X16848Y12174D1*
X16863Y12131D1*
Y12117D1*
X16848Y12074D1*
X16819Y12045D1*
X16776Y12031D1*
X16762D1*
X16719Y12045D1*
X16690Y12074D1*
X16676Y12117D1*
Y12131D1*
X16690Y12174D1*
X16719Y12203D1*
X16776Y12218D1*
X16848D1*
X16920Y12203D1*
X16963Y12174D1*
X16977Y12131D1*
Y12103D1*
X16963Y12060D1*
X16934Y12045D1*
X15773Y11805D2*
X15902D1*
X15945Y11819D1*
X15959Y11833D1*
X15974Y11862D1*
Y11891D1*
X15959Y11919D1*
X15945Y11934D1*
X15902Y11948D1*
X15773D1*
Y11647D1*
X15873Y11805D2*
X15974Y11647D1*
X16066Y11890D2*
X16095Y11905D1*
X16138Y11948D1*
Y11647D1*
X16317Y11948D2*
X16274Y11934D1*
X16245Y11890D1*
X16231Y11819D1*
Y11776D1*
X16245Y11704D1*
X16274Y11661D1*
X16317Y11647D1*
X16346D1*
X16389Y11661D1*
X16417Y11704D1*
X16432Y11776D1*
Y11819D1*
X16417Y11890D1*
X16389Y11934D1*
X16346Y11948D1*
X16317D1*
X16417Y11890D2*
X16245Y11704D1*
X13444Y12382D2*
Y12511D1*
X13430Y12554D1*
X13416Y12568D1*
X13387Y12583D1*
X13358D1*
X13330Y12568D1*
X13315Y12554D1*
X13301Y12511D1*
Y12382D1*
X13602D1*
X13444Y12482D2*
X13602Y12583D1*
X13359Y12675D2*
X13344Y12704D1*
X13301Y12747D1*
X13602D1*
X13359Y12840D2*
X13344Y12869D1*
X13301Y12912D1*
X13602D1*
X13444Y10942D2*
Y11071D1*
X13430Y11114D1*
X13416Y11129D1*
X13387Y11143D1*
X13358D1*
X13330Y11129D1*
X13315Y11114D1*
X13301Y11071D1*
Y10942D1*
X13602D1*
X13444Y11043D2*
X13602Y11143D1*
X13359Y11236D2*
X13344Y11265D1*
X13301Y11308D1*
X13602D1*
X13373Y11415D2*
X13359D1*
X13330Y11429D1*
X13315Y11443D1*
X13301Y11472D1*
Y11530D1*
X13315Y11558D1*
X13330Y11572D1*
X13359Y11587D1*
X13387D1*
X13416Y11572D1*
X13459Y11544D1*
X13602Y11400D1*
Y11601D1*
X4319Y9317D2*
Y9446D1*
X4305Y9489D1*
X4291Y9504D1*
X4262Y9518D1*
X4233D1*
X4205Y9504D1*
X4190Y9489D1*
X4176Y9446D1*
Y9317D1*
X4477D1*
X4319Y9418D2*
X4477Y9518D1*
X4234Y9611D2*
X4219Y9640D1*
X4176Y9683D1*
X4477D1*
X4176Y9804D2*
Y9962D1*
X4291Y9876D1*
Y9919D1*
X4305Y9947D1*
X4319Y9962D1*
X4363Y9976D1*
X4391D1*
X4434Y9962D1*
X4463Y9933D1*
X4477Y9890D1*
Y9847D1*
X4463Y9804D1*
X4448Y9790D1*
X4420Y9775D1*
X12069Y12435D2*
Y12564D1*
X12055Y12607D1*
X12041Y12622D1*
X12012Y12636D1*
X11983D1*
X11955Y12622D1*
X11940Y12607D1*
X11926Y12564D1*
Y12435D1*
X12227D1*
X12069Y12535D2*
X12227Y12636D1*
X11984Y12729D2*
X11969Y12757D1*
X11926Y12801D1*
X12227D1*
Y13037D2*
X11926D1*
X12127Y12893D1*
Y13108D1*
X10069Y14567D2*
Y14696D1*
X10055Y14739D1*
X10041Y14754D1*
X10012Y14768D1*
X9983D1*
X9955Y14754D1*
X9940Y14739D1*
X9926Y14696D1*
Y14567D1*
X10227D1*
X10069Y14668D2*
X10227Y14768D1*
X9984Y14861D2*
X9969Y14890D1*
X9926Y14933D1*
X10227D1*
X9926Y15197D2*
Y15054D1*
X10055Y15040D1*
X10041Y15054D1*
X10026Y15097D1*
Y15140D1*
X10041Y15183D1*
X10069Y15212D1*
X10113Y15226D1*
X10141D1*
X10184Y15212D1*
X10213Y15183D1*
X10227Y15140D1*
Y15097D1*
X10213Y15054D1*
X10198Y15040D1*
X10170Y15025D1*
X9444Y14574D2*
Y14703D1*
X9430Y14746D1*
X9416Y14761D1*
X9387Y14775D1*
X9358D1*
X9330Y14761D1*
X9315Y14746D1*
X9301Y14703D1*
Y14574D1*
X9602D1*
X9444Y14675D2*
X9602Y14775D1*
X9359Y14868D2*
X9344Y14897D1*
X9301Y14940D1*
X9602D1*
X9344Y15205D2*
X9315Y15190D1*
X9301Y15147D1*
Y15119D1*
X9315Y15076D1*
X9359Y15047D1*
X9430Y15033D1*
X9502D1*
X9559Y15047D1*
X9588Y15076D1*
X9602Y15119D1*
Y15133D1*
X9588Y15176D1*
X9559Y15205D1*
X9516Y15219D1*
X9502D1*
X9459Y15205D1*
X9430Y15176D1*
X9416Y15133D1*
Y15119D1*
X9430Y15076D1*
X9459Y15047D1*
X9502Y15033D1*
X20067Y13680D2*
X20196D1*
X20239Y13694D1*
X20254Y13708D1*
X20268Y13737D1*
Y13766D1*
X20254Y13794D1*
X20239Y13809D1*
X20196Y13823D1*
X20067D1*
Y13522D1*
X20168Y13680D2*
X20268Y13522D1*
X20361Y13765D2*
X20390Y13780D1*
X20433Y13823D1*
Y13522D1*
X20583D2*
X20726Y13823D1*
X20525D1*
X8575Y14525D2*
Y14310D1*
X8589Y14267D1*
X8618Y14238D1*
X8661Y14224D1*
X8690D1*
X8733Y14238D1*
X8762Y14267D1*
X8776Y14310D1*
Y14525D1*
X8869Y14467D2*
X8898Y14482D1*
X8941Y14525D1*
Y14224D1*
X18826Y9168D2*
Y8952D1*
X18840Y8909D1*
X18869Y8881D1*
X18912Y8866D1*
X18941D1*
X18984Y8881D1*
X19013Y8909D1*
X19027Y8952D1*
Y9168D1*
X19134Y9096D2*
Y9110D1*
X19148Y9139D1*
X19163Y9153D1*
X19192Y9167D1*
X19249D1*
X19277Y9153D1*
X19292Y9139D1*
X19306Y9110D1*
Y9081D1*
X19292Y9053D1*
X19263Y9010D1*
X19120Y8866D1*
X19321D1*
X15878Y15780D2*
Y15565D1*
X15892Y15522D1*
X15921Y15493D1*
X15964Y15478D1*
X15992D1*
X16036Y15493D1*
X16064Y15522D1*
X16079Y15565D1*
Y15780D1*
X16200D2*
X16358D1*
X16272Y15665D1*
X16315D1*
X16343Y15651D1*
X16358Y15636D1*
X16372Y15593D1*
Y15565D1*
X16358Y15522D1*
X16329Y15493D1*
X16286Y15478D1*
X16243D1*
X16200Y15493D1*
X16186Y15507D1*
X16171Y15536D1*
X12149Y8996D2*
X12293Y9111D1*
X12451D1*
X12149Y9225D2*
X12293Y9111D1*
X12207Y9318D2*
X12192Y9347D1*
X12150Y9390D1*
X12451D1*
M02*
